<svg width="28" height="18" viewBox="0 0 28 18" fill="none" xmlns="http://www.w3.org/2000/svg">
<path d="M1.16845 5.34234L4.52929 7.85627C4.99456 8.20543 4.99456 8.90454 4.52929 9.25369L1.16927 11.7668C0.686947 12.1265 0.00163548 11.7831 0.00163548 11.1806L0 5.92779C0.000811992 5.3253 0.686941 4.98182 1.16845 5.34234Z" fill="#363636"/>
<path d="M8.65267 5.34234L12.0127 7.85627C12.4788 8.20543 12.4788 8.90454 12.0127 9.25369L8.65267 11.7668C8.17116 12.1265 7.48503 11.7831 7.48503 11.1806L7.4834 5.92779C7.4834 5.3253 8.17035 4.98182 8.65267 5.34234Z" fill="#363636"/>
<path d="M18.3348 0.373966L26.8932 6.7765C28.0803 7.66482 28.0803 9.44714 26.8932 10.3355L18.3365 16.7356C17.1095 17.6523 15.363 16.7778 15.363 15.2431L15.3589 1.86557C15.3589 0.331722 17.1079 -0.543584 18.3348 0.373966Z" fill="#363636"/>
</svg>
