<svg width="39" height="43" viewBox="0 0 39 43" fill="none" xmlns="http://www.w3.org/2000/svg">
<path fill-rule="evenodd" clip-rule="evenodd" d="M1 19.8803C1 14.1533 1 8.42524 1 2.69827C1 1.52644 1.5154 1.00769 2.68062 1.00769C10.0189 1.00769 17.3572 1.01212 24.6954 1C25.2912 0.998903 25.746 1.19164 26.1579 1.61236C27.3716 2.85137 28.5964 4.08045 29.8398 5.29083C30.2946 5.73357 30.5016 6.21485 30.4994 6.86024C30.4796 10.8801 30.4895 14.9 30.4895 18.921C30.4895 19.432 30.4906 19.4332 30.9542 19.2294C31.3683 19.0466 31.7847 18.8682 32.1966 18.6787C32.5358 18.5224 32.8276 18.5609 33.0964 18.8318C33.8321 19.5753 34.5733 20.3142 35.3167 21.051C35.5876 21.3187 35.6295 21.6094 35.4709 21.9508C35.2407 22.4486 34.885 22.9409 34.8398 23.4574C34.7957 23.9596 35.2705 24.4047 35.4401 24.9091C35.4533 24.9476 35.4764 24.985 35.4819 25.0247C35.5975 25.974 36.2275 26.3662 37.0734 26.625C38.0095 26.9113 37.9952 26.9597 37.9952 27.9531C37.9952 28.8067 37.9831 29.6602 37.9996 30.5138C38.0095 30.9752 37.8366 31.2682 37.3905 31.418C36.9753 31.5567 36.5744 31.744 36.1603 31.885C35.9467 31.9576 35.8244 32.0645 35.7616 32.2925C35.5634 33.0083 35.2793 33.6944 34.9125 34.3409C34.7969 34.5447 34.7957 34.7055 34.8959 34.9103C35.1063 35.342 35.2903 35.7858 35.4863 36.2242C35.6339 36.5513 35.5778 36.8355 35.3234 37.0888C34.5822 37.8278 33.8409 38.5668 33.1041 39.3091C32.8398 39.5756 32.549 39.6351 32.2054 39.4743C31.7583 39.2651 31.3023 39.0744 30.8563 38.863C30.6922 38.7848 30.5589 38.7914 30.4003 38.8806C29.7285 39.2595 29.0203 39.5568 28.2769 39.7617C28.0666 39.8201 27.9674 39.939 27.898 40.1383C27.746 40.5789 27.5622 41.0084 27.4003 41.4457C27.2648 41.8113 27.0214 41.9919 26.6205 41.9875C25.5874 41.9776 24.5555 41.9798 23.5224 41.9864C23.1436 41.9886 22.9002 41.8267 22.7691 41.4721C22.6028 41.0217 22.4112 40.5811 22.2526 40.1274C22.1821 39.9258 22.0774 39.8124 21.8682 39.7562C21.1358 39.5613 20.4409 39.2628 19.7812 38.8938C19.5841 38.7837 19.4375 38.8003 19.2514 38.8873C18.8296 39.0866 18.3946 39.2562 17.975 39.4599C17.5961 39.6438 17.269 39.5877 17.0179 39.2661C16.736 38.906 16.3923 38.8255 15.9463 38.8266C11.5409 38.8432 7.13554 38.8377 2.72907 38.8366C1.51209 38.8366 1.00328 38.3245 1.00328 37.102C0.999976 31.3629 1 25.6216 1 19.8803ZM15.2315 20.7107C15.1919 20.6876 15.1533 20.6656 15.1137 20.6424C14.3989 20.6424 13.6852 20.6424 12.9705 20.6424C12.7304 20.6424 12.5002 20.6094 12.3339 20.4112C12.161 20.2052 12.107 19.9772 12.2183 19.7206C12.3449 19.431 12.5773 19.3197 12.878 19.3197C13.8824 19.3186 14.8879 19.2955 15.8923 19.3285C16.3681 19.3439 16.7393 19.2426 17.0366 18.856C17.28 18.54 17.606 18.5135 17.9617 18.6787C18.3725 18.8693 18.7888 19.0466 19.203 19.2305C19.3704 19.3054 19.5377 19.3627 19.7161 19.269C20.4474 18.8869 21.2052 18.5763 21.9949 18.3285C22.3209 18.2261 22.3704 17.8329 22.3726 17.5664C22.3737 17.3659 22.0477 17.4805 21.877 17.4794C18.9727 17.4706 16.0686 17.4728 13.1632 17.4728C13.0255 17.4728 12.8868 17.4761 12.7513 17.4607C12.3768 17.4199 12.1775 17.1798 12.1676 16.8285C12.1577 16.4937 12.3438 16.2514 12.6885 16.182C12.8482 16.1501 13.0168 16.1511 13.1809 16.1511C17.3792 16.15 21.5775 16.1512 25.7758 16.1501C27.3386 16.1501 27.1756 16.0399 27.6668 17.4552C27.8804 18.0697 28.1987 18.4475 28.8452 18.573C29.0853 18.6193 29.1723 18.6545 29.1712 18.3516C29.1613 14.6346 29.1613 10.9187 29.1723 7.20167C29.1734 6.90761 29.0644 6.87347 28.8166 6.87567C27.7979 6.88669 26.7791 6.88339 25.7604 6.88008C25.006 6.87678 24.615 6.4891 24.6106 5.74018C24.6061 4.73576 24.5962 3.73022 24.6171 2.7258C24.6237 2.40861 24.5466 2.31831 24.2173 2.31941C17.0597 2.32932 9.90105 2.33042 2.74343 2.31941C2.39761 2.31941 2.31277 2.41084 2.31387 2.75226C2.32268 14.1908 2.3238 25.6304 2.31279 37.0689C2.31279 37.4389 2.4119 37.5227 2.77204 37.5216C6.79194 37.5084 10.8108 37.5138 14.8307 37.5094C14.943 37.5094 15.0729 37.5679 15.1798 37.4522C15.1104 37.3784 15.0476 37.3069 14.9804 37.2397C14.4936 36.7441 14.476 36.6504 14.7612 36.0072C14.9275 35.6306 15.0873 35.2507 15.2668 34.8806C15.3604 34.6879 15.3483 34.5358 15.2415 34.3475C14.867 33.6889 14.5806 32.9907 14.378 32.2605C14.324 32.0656 14.2238 31.9643 14.0377 31.8982C13.5729 31.733 13.1148 31.5479 12.6533 31.3717C12.3196 31.244 12.1522 31.0039 12.1533 30.6459C12.1544 29.5853 12.1511 28.5258 12.1555 27.4664C12.1566 27.1293 12.3141 26.8937 12.6379 26.7736C12.9716 26.6481 13.2931 26.4707 13.6368 26.3947C14.2447 26.2603 14.4738 25.8672 14.5178 25.2725C13.9947 25.2725 13.4727 25.2779 12.9518 25.2702C12.4716 25.2636 12.1643 25.0016 12.1588 24.6117C12.1522 24.2163 12.4517 23.9553 12.9363 23.9509C13.5828 23.9454 14.2304 23.9531 14.8769 23.9475C15.2403 23.9453 15.4265 23.6557 15.2855 23.3176C15.1798 23.0643 15.0762 22.8099 14.9507 22.5654C14.6126 21.9057 14.291 21.2503 15.2315 20.7107ZM19.5223 37.363C19.7349 37.3608 19.8693 37.4313 19.9992 37.5084C20.844 38.0062 21.7338 38.3916 22.6898 38.6196C22.9937 38.6923 23.1931 38.8719 23.2999 39.1725C23.4519 39.5987 23.6336 40.0139 23.7812 40.4412C23.8418 40.6163 23.9321 40.6681 24.1105 40.6659C24.6887 40.656 25.2681 40.6417 25.8441 40.6703C26.1668 40.6857 26.344 40.6054 26.4377 40.2772C26.5423 39.9093 26.7185 39.5624 26.8397 39.199C26.9465 38.8807 27.1514 38.6935 27.4719 38.6164C28.4135 38.3917 29.2978 38.0238 30.1227 37.5194C30.4091 37.3443 30.679 37.3322 30.9796 37.4753C31.3882 37.6703 31.8101 37.8355 32.2176 38.0315C32.3684 38.1042 32.4576 38.0866 32.5722 37.9688C33.0325 37.4952 33.4984 37.0271 33.9742 36.5678C34.0954 36.4511 34.1031 36.3575 34.0348 36.2132C33.8409 35.8035 33.6669 35.386 33.4753 34.9763C33.3354 34.6779 33.3475 34.4058 33.5226 34.1184C34.0237 33.2924 34.3949 32.4092 34.6185 31.4665C34.6956 31.1427 34.8905 30.9444 35.2021 30.8343C35.603 30.6933 35.994 30.5248 36.3949 30.3838C36.5854 30.3167 36.6813 30.2318 36.6747 30.0049C36.657 29.3728 36.6604 28.7384 36.6736 28.1062C36.6769 27.9223 36.6097 27.8386 36.4456 27.7791C36.0205 27.6249 35.6042 27.4454 35.1769 27.2967C34.874 27.191 34.6945 26.995 34.6218 26.691C34.3938 25.735 34.016 24.8408 33.5083 24.0015C33.3431 23.7273 33.3364 23.4652 33.4686 23.181C33.6602 22.7713 33.8343 22.3529 34.0293 21.9443C34.1053 21.7835 34.0887 21.6821 33.9554 21.5544C33.5468 21.1667 33.1273 20.7834 32.7638 20.3539C32.505 20.0488 32.2825 20.0422 31.962 20.2206C31.6514 20.3935 31.3111 20.5114 30.9884 20.6634C30.6768 20.8098 30.3937 20.79 30.0931 20.6061C29.2792 20.1105 28.4036 19.7503 27.4785 19.5245C27.1514 19.4441 26.952 19.2647 26.8408 18.9519C26.6932 18.5389 26.5137 18.1369 26.3716 17.7217C26.3066 17.5323 26.2142 17.4672 26.017 17.4706C25.3838 17.4816 24.7505 17.4838 24.1183 17.4695C23.9112 17.4651 23.8341 17.5521 23.7713 17.7316C23.6259 18.1457 23.4509 18.5488 23.3011 18.9607C23.1943 19.257 23.007 19.4387 22.6964 19.5158C21.7438 19.7504 20.8451 20.1193 20.008 20.6303C19.7371 20.7955 19.4717 20.8032 19.1864 20.6711C18.7889 20.486 18.3781 20.3263 17.986 20.1314C17.79 20.0334 17.6699 20.0675 17.5256 20.2184C17.1159 20.6457 16.7084 21.0774 16.2679 21.4706C16.0432 21.671 16.0587 21.8308 16.1776 22.0654C16.356 22.42 16.4992 22.7923 16.6688 23.1524C16.8164 23.4652 16.7965 23.7482 16.6137 24.0478C16.117 24.8606 15.7568 25.7351 15.5322 26.6624C15.454 26.9851 15.2778 27.191 14.9595 27.3012C14.5454 27.4443 14.1423 27.6227 13.7304 27.7714C13.5553 27.8342 13.4672 27.9091 13.4738 28.1194C13.4914 28.7527 13.4881 29.386 13.4749 30.0182C13.4705 30.2197 13.5432 30.3078 13.7282 30.3717C14.1555 30.5193 14.5729 30.6955 14.9969 30.853C15.2767 30.9576 15.4529 31.1493 15.5223 31.4389C15.7503 32.3938 16.1236 33.2902 16.6313 34.1295C16.7965 34.4015 16.8153 34.6636 16.6831 34.95C16.5102 35.3233 16.3648 35.7099 16.1776 36.0755C16.0553 36.3145 16.0454 36.4764 16.2723 36.668C16.5862 36.9335 16.8615 37.2452 17.1534 37.5381C17.7305 38.1164 17.7272 38.1086 18.4706 37.7904C18.8329 37.6351 19.1765 37.4236 19.5223 37.363ZM25.9332 3.29631C25.9332 4.03421 25.9332 4.70268 25.9332 5.3723C25.9332 5.47472 25.9333 5.56288 26.0776 5.56288C26.767 5.55958 27.4564 5.56175 28.2031 5.56175C27.4256 4.78531 26.7086 4.06945 25.9332 3.29631Z" fill="#532E88" stroke="#532E88" stroke-width="0.4"/>
<path fill-rule="evenodd" clip-rule="evenodd" d="M9.67338 18.4213C9.67338 19.0678 9.67776 19.7143 9.67225 20.3607C9.66785 20.8784 9.43876 21.1306 8.92223 21.135C7.60172 21.1471 6.28122 21.1471 4.96181 21.135C4.44749 21.1306 4.2162 20.874 4.214 20.3563C4.20959 19.0501 4.20959 17.7429 4.214 16.4367C4.2162 15.9202 4.44859 15.6668 4.96622 15.6624C6.28673 15.6503 7.60724 15.6503 8.92664 15.6624C9.44317 15.6668 9.66787 15.919 9.67118 16.441C9.67779 17.1007 9.67338 17.7616 9.67338 18.4213ZM5.53453 18.4356C5.53453 18.8068 5.54664 19.179 5.53012 19.549C5.51911 19.7748 5.60612 19.8244 5.81428 19.8211C6.5698 19.8101 7.3264 19.809 8.08192 19.8222C8.3077 19.8266 8.35726 19.744 8.35505 19.5358C8.34514 18.7803 8.34186 18.0237 8.35618 17.2682C8.36059 17.0226 8.27135 16.9719 8.04777 16.9752C7.30547 16.9873 6.5632 16.9895 5.82089 16.9741C5.57529 16.9686 5.52024 17.0567 5.52905 17.2814C5.54667 17.6658 5.53453 18.0512 5.53453 18.4356Z" fill="#532E88" stroke="#532E88" stroke-width="0.4"/>
<path fill-rule="evenodd" clip-rule="evenodd" d="M4.21216 10.6336C4.21216 9.98712 4.20993 9.34065 4.21324 8.69416C4.21544 8.12807 4.45004 7.8759 5.00181 7.87369C6.29479 7.86708 7.58776 7.86819 8.87963 7.87369C9.4248 7.8759 9.66932 8.11599 9.67042 8.64684C9.67482 9.95303 9.67482 11.2603 9.67042 12.5665C9.66821 13.1062 9.43805 13.3352 8.88517 13.3374C7.5922 13.3429 6.29923 13.3429 5.00735 13.3374C4.43686 13.3352 4.21544 13.105 4.21324 12.5323C4.20993 11.898 4.21216 11.2658 4.21216 10.6336ZM8.34988 10.6325C8.34988 10.2482 8.3422 9.8627 8.35322 9.47833C8.35872 9.28229 8.329 9.18315 8.09111 9.18756C7.32127 9.20298 6.55138 9.1997 5.78265 9.18869C5.5811 9.18538 5.52719 9.25037 5.53049 9.44531C5.5404 10.2151 5.53817 10.9839 5.53157 11.7537C5.52936 11.9332 5.55469 12.0246 5.77055 12.0202C6.5536 12.007 7.33779 12.0103 8.12085 12.0191C8.30037 12.0213 8.35872 11.9663 8.35322 11.7867C8.3422 11.4024 8.34988 11.0169 8.34988 10.6325Z" fill="#532E88" stroke="#532E88" stroke-width="0.4"/>
<path fill-rule="evenodd" clip-rule="evenodd" d="M9.67329 26.1863C9.67329 26.8328 9.67657 27.4794 9.67216 28.1258C9.66886 28.6699 9.4354 28.9199 8.90455 28.9221C7.59836 28.9287 6.29103 28.9287 4.98484 28.9221C4.4573 28.9199 4.21611 28.6644 4.2139 28.1258C4.2106 26.8329 4.2106 25.5399 4.2139 24.248C4.21501 23.6996 4.44081 23.4627 4.98377 23.4605C6.28996 23.4539 7.59723 23.4539 8.90343 23.4605C9.44969 23.4638 9.66775 23.694 9.67216 24.248C9.67657 24.8934 9.67329 25.5399 9.67329 26.1863ZM8.35055 26.204C8.35055 25.8053 8.34287 25.4065 8.35388 25.009C8.35939 24.8283 8.29991 24.7744 8.12039 24.7766C7.33733 24.7855 6.55319 24.7877 5.77014 24.7756C5.55318 24.7723 5.52896 24.8637 5.53116 25.0421C5.53887 25.8119 5.53994 26.5818 5.53003 27.3505C5.52783 27.5454 5.5818 27.6093 5.78224 27.6071C6.55208 27.5961 7.32191 27.5928 8.09065 27.6082C8.32744 27.6126 8.35829 27.5134 8.35168 27.3174C8.34287 26.9462 8.35055 26.5751 8.35055 26.204Z" fill="#532E88" stroke="#532E88" stroke-width="0.4"/>
<path fill-rule="evenodd" clip-rule="evenodd" d="M19.7229 12.8433C17.5357 12.8433 15.3484 12.8433 13.1601 12.8433C13.0224 12.8433 12.8836 12.8477 12.7481 12.8334C12.3935 12.7959 12.1975 12.5713 12.1689 12.2397C12.1402 11.9038 12.312 11.6527 12.6501 11.5646C12.8065 11.5239 12.9761 11.5217 13.1402 11.5217C17.5291 11.5195 21.9179 11.5195 26.3068 11.5217C26.4577 11.5217 26.6118 11.5195 26.7572 11.5536C27.113 11.6373 27.2991 11.8741 27.2705 12.2409C27.2418 12.6076 27.0227 12.808 26.6559 12.8389C26.5326 12.8488 26.4081 12.8444 26.2847 12.8444C24.0975 12.8433 21.9102 12.8433 19.7229 12.8433Z" fill="#532E88" stroke="#532E88" stroke-width="0.4"/>
<path fill-rule="evenodd" clip-rule="evenodd" d="M19.7227 9.68781C17.5355 9.68781 15.3482 9.68781 13.1598 9.68781C13.0365 9.68781 12.912 9.69331 12.7887 9.6834C12.4263 9.65256 12.1532 9.38272 12.1631 9.04131C12.173 8.68007 12.3756 8.45426 12.7281 8.37937C12.847 8.35404 12.9748 8.3662 13.0982 8.3662C17.5145 8.3662 21.931 8.3651 26.3473 8.3662C26.5114 8.3662 26.6766 8.34636 26.8363 8.41024C27.1612 8.5402 27.311 8.78029 27.2669 9.1217C27.2251 9.4477 27.0202 9.63383 26.6975 9.67899C26.5764 9.69661 26.4508 9.68668 26.3264 9.68668C24.1248 9.68778 21.9243 9.68781 19.7227 9.68781Z" fill="#532E88" stroke="#532E88" stroke-width="0.4"/>
<path fill-rule="evenodd" clip-rule="evenodd" d="M18.6336 29.0903C18.6171 25.5451 21.4849 22.653 25.0346 22.6353C28.6095 22.6177 31.4951 25.4735 31.5194 29.0507C31.5425 32.5771 28.6536 35.4958 25.115 35.5189C21.561 35.5431 18.649 32.6554 18.6336 29.0903ZM30.1944 29.0826C30.2021 26.2643 27.9157 23.9657 25.0963 23.958C22.2504 23.9503 19.9531 26.2401 19.9564 29.0804C19.9597 31.89 22.2659 34.1962 25.0732 34.1973C27.8783 34.1973 30.1867 31.8921 30.1944 29.0826Z" fill="#532E88" stroke="#532E88" stroke-width="0.4"/>
<path fill-rule="evenodd" clip-rule="evenodd" d="M29.2484 27.3605C29.244 27.7801 29.0865 28.1369 28.7958 28.4321C27.6746 29.5687 26.5579 30.7085 25.4257 31.833C24.7638 32.4905 23.8827 32.4905 23.2186 31.8462C22.5963 31.2427 21.984 30.6282 21.3793 30.0071C20.7461 29.3573 20.7361 28.4377 21.3397 27.8275C21.9443 27.2152 22.8617 27.2261 23.5181 27.8528C23.5479 27.8814 23.5754 27.9123 23.6062 27.9398C23.854 28.1546 24.0435 28.5786 24.3254 28.5643C24.5622 28.5521 24.7825 28.1678 25.0049 27.9442C25.5688 27.3792 26.1184 26.7988 26.6944 26.2481C27.1669 25.7966 27.7362 25.714 28.3387 25.9574C28.8992 26.1865 29.2507 26.746 29.2484 27.3605ZM27.9224 27.3307C27.918 27.2536 27.875 27.2041 27.8056 27.1788C27.6569 27.1237 27.5766 27.2294 27.4907 27.3164C26.6295 28.1843 25.7692 29.0544 24.9058 29.9201C24.4663 30.3606 24.1624 30.3573 23.7164 29.9157C23.365 29.5676 23.0181 29.214 22.6657 28.8682C22.5621 28.7669 22.452 28.6094 22.289 28.7658C22.1249 28.9233 22.2747 29.0345 22.3804 29.1391C22.9432 29.7041 23.5126 30.2615 24.0666 30.8342C24.2571 31.0313 24.3893 31.0181 24.5743 30.8298C25.6316 29.7493 26.6977 28.6778 27.7594 27.6028C27.8343 27.5257 27.9312 27.4585 27.9224 27.3307Z" fill="#532E88"/>
</svg>
