<svg width="42" height="42" viewBox="0 0 42 42" fill="none" xmlns="http://www.w3.org/2000/svg">
<path fill-rule="evenodd" clip-rule="evenodd" d="M16.336 41.087C16.1653 40.8879 15.9068 40.8651 15.685 40.7783C14.2084 40.1994 12.7282 39.6323 11.2498 39.0589C10.6718 38.8351 10.5421 38.6415 10.5595 38.0343C10.5805 37.291 10.596 36.5477 10.6325 35.8054C10.6435 35.5752 10.586 35.4254 10.3906 35.2857C9.22995 34.452 8.20174 33.4759 7.31507 32.3536C7.1708 32.171 7.01832 32.1135 6.78364 32.1363C6.03121 32.2093 5.27604 32.2568 4.52179 32.3079C3.95016 32.3463 3.73374 32.2203 3.51185 31.7135C2.79777 30.0826 2.0855 28.4499 1.37599 26.8163C1.14132 26.2758 1.18332 26.0776 1.60245 25.6731C2.14668 25.1481 2.68726 24.6184 3.24245 24.1052C3.41412 23.9463 3.46437 23.7929 3.4315 23.5609C3.2297 22.1355 3.18312 20.7037 3.3347 19.2701C3.35662 19.0637 3.28722 18.9377 3.13107 18.8072C2.5494 18.3241 1.98048 17.8246 1.40885 17.3297C0.965066 16.9453 0.908476 16.7407 1.11485 16.2002C1.75679 14.5255 2.39965 12.8508 3.04707 11.1779C3.23335 10.6957 3.45247 10.5505 3.96748 10.5624C4.73635 10.5807 5.50613 10.6008 6.27499 10.6364C6.50419 10.6473 6.65394 10.5898 6.79457 10.3944C7.631 9.23653 8.60353 8.20377 9.7267 7.31803C9.9075 7.17558 9.97322 7.02947 9.94856 6.78931C9.87095 6.0241 9.82438 5.25613 9.77142 4.48818C9.73489 3.95673 9.87097 3.733 10.3659 3.51658C11.9968 2.8025 13.6294 2.09118 15.2621 1.38166C15.8045 1.14607 16.0027 1.18533 16.4063 1.60264C16.9323 2.14687 17.4564 2.69204 17.976 3.24175C18.1175 3.3915 18.249 3.47459 18.4801 3.44172C19.9311 3.23078 21.3884 3.19059 22.8494 3.33944C23.0266 3.3577 23.1353 3.29744 23.2467 3.16412C23.6485 2.68381 24.0649 2.21627 24.4721 1.74144C24.6958 1.48028 24.9141 1.2155 25.1844 1C25.3405 1 25.4975 1 25.6537 1C25.6665 1.02009 25.6756 1.05204 25.6939 1.05935C27.4161 1.71955 29.1383 2.37607 30.8605 3.03718C31.4065 3.2472 31.5325 3.44081 31.517 4.04257C31.4978 4.79866 31.4786 5.55475 31.443 6.30991C31.433 6.52907 31.5015 6.66419 31.6795 6.79203C32.8493 7.63486 33.8857 8.62105 34.7814 9.75061C34.9202 9.92593 35.0619 9.9725 35.2801 9.95241C36.0581 9.88027 36.8388 9.82734 37.6195 9.77803C38.1336 9.74515 38.3537 9.88302 38.5619 10.3569C39.2814 11.9988 39.9974 13.6425 40.7114 15.287C40.9352 15.8011 40.8922 16.0157 40.495 16.4001C39.9699 16.9078 39.4513 17.4219 38.9089 17.9095C38.6806 18.115 38.6067 18.3232 38.6523 18.6218C38.8678 20.0198 38.8797 21.4261 38.7445 22.8323C38.7281 23.0031 38.7646 23.1226 38.9016 23.2377C39.6056 23.8312 40.3014 24.4358 41 25.0366C41 25.3233 41 25.611 41 25.8978C40.8904 25.9854 40.8813 26.1214 40.8365 26.2392C40.2393 27.7778 39.6449 29.3175 39.0477 30.8561C38.8349 31.4049 38.6358 31.5373 38.0459 31.5218C37.2898 31.5017 36.5329 31.4835 35.7777 31.4488C35.5604 31.4387 35.4225 31.5017 35.2929 31.6807C34.45 32.8513 33.4629 33.8868 32.3333 34.7854C32.1754 34.9114 32.1106 35.0365 32.1298 35.2465C32.201 36.0382 32.2566 36.8326 32.3041 37.6261C32.3351 38.1466 32.2018 38.3548 31.7215 38.5648C30.0788 39.2844 28.4342 40.0022 26.7897 40.7171C26.2801 40.939 26.0692 40.8934 25.6793 40.4898C25.1442 39.9364 24.6091 39.383 24.0831 38.8224C23.9471 38.6772 23.8174 38.6151 23.6092 38.6452C22.1573 38.8516 20.6999 38.8972 19.2398 38.7456C19.0654 38.7273 18.9512 38.7776 18.838 38.9127C18.3687 39.4725 17.8874 40.0213 17.4126 40.5765C17.2382 40.7811 17.0656 40.9838 16.8072 41.087C16.6492 41.087 16.4922 41.087 16.336 41.087ZM12.1082 36.3459C12.0844 36.3459 12.0598 36.3459 12.036 36.3459C12.036 36.7367 12.0534 37.1294 12.0296 37.5193C12.0159 37.7457 12.099 37.8325 12.3008 37.9083C13.5783 38.3886 14.854 38.8753 16.1214 39.383C16.3698 39.4825 16.4931 39.4205 16.6438 39.2378C17.0601 38.7356 17.514 38.2635 17.9094 37.7467C18.2344 37.3221 18.6198 37.1951 19.1348 37.2627C20.7118 37.4682 22.2842 37.396 23.8484 37.1248C24.2183 37.0608 24.5077 37.1495 24.7634 37.4234C25.261 37.9585 25.7779 38.4754 26.2728 39.0132C26.4363 39.1904 26.5678 39.2378 26.8034 39.1319C28.048 38.5712 29.299 38.0242 30.5555 37.49C30.7801 37.3951 30.8285 37.2763 30.8084 37.0526C30.7417 36.3121 30.7034 35.5697 30.6367 34.8292C30.6039 34.4685 30.7189 34.1964 31.0056 33.9809C32.3397 32.9755 33.4775 31.7802 34.4181 30.4004C34.639 30.0763 34.9267 29.9502 35.3157 29.9703C36.0453 30.0087 36.7767 30.0132 37.5063 30.0507C37.7237 30.0616 37.8241 29.9995 37.9026 29.7895C38.3875 28.4992 38.8842 27.2136 39.3919 25.9324C39.475 25.7224 39.4367 25.6092 39.2715 25.4722C38.7391 25.0312 38.235 24.5563 37.6926 24.128C37.3082 23.8248 37.194 23.4678 37.2579 22.9975C37.4725 21.4078 37.3913 19.8217 37.1265 18.2456C37.0607 17.8539 37.1593 17.5635 37.4405 17.3005C37.9838 16.7928 38.5108 16.2677 39.0559 15.7618C39.2048 15.623 39.2267 15.5153 39.1427 15.3263C38.5765 14.0552 38.0223 12.7795 37.4725 11.5011C37.3949 11.3194 37.3045 11.25 37.0991 11.2692C36.3585 11.3377 35.6152 11.3715 34.8755 11.4463C34.4838 11.4856 34.1925 11.3705 33.9578 11.0591C32.9616 9.73418 31.7726 8.60918 30.4057 7.67321C30.0852 7.45405 29.9446 7.17006 29.9637 6.77924C30.0003 6.04964 30.0048 5.31823 30.0441 4.58863C30.0569 4.3503 29.9765 4.25076 29.7583 4.16858C28.4927 3.69374 27.2298 3.20889 25.9743 2.70849C25.7387 2.61443 25.6062 2.63999 25.4473 2.83449C25.0355 3.33946 24.5762 3.80788 24.1827 4.32655C23.8494 4.7676 23.4521 4.89271 22.9234 4.8224C21.3601 4.61512 19.7996 4.69091 18.2491 4.95937C17.8628 5.02603 17.5651 4.93379 17.3003 4.64981C16.7935 4.10557 16.2693 3.57778 15.7616 3.03446C15.6292 2.89201 15.527 2.84817 15.3288 2.93584C14.0468 3.50838 12.7583 4.0663 11.4672 4.61966C11.29 4.69546 11.248 4.79407 11.2635 4.97578C11.3284 5.71634 11.3649 6.45967 11.4407 7.1984C11.4808 7.59014 11.3694 7.88233 11.0581 8.11792C9.72488 9.1242 8.59075 10.3232 7.64747 11.7011C7.43471 12.0125 7.15438 12.1349 6.78181 12.1175C6.03943 12.0828 5.29523 12.0718 4.55193 12.0389C4.3556 12.0298 4.25789 12.0791 4.18301 12.2791C3.69448 13.5812 3.19224 14.8788 2.68088 16.1727C2.60326 16.3691 2.63978 16.4732 2.79319 16.601C3.30455 17.0265 3.78303 17.4931 4.31174 17.8949C4.75005 18.2282 4.8843 18.6209 4.81673 19.1505C4.61493 20.7275 4.68157 22.2999 4.95825 23.8641C5.02308 24.2321 4.92354 24.5225 4.64868 24.7764C4.11267 25.2731 3.59766 25.7918 3.05799 26.2849C2.87354 26.4538 2.84983 26.5908 2.9521 26.8182C3.50638 28.0519 4.05335 29.2882 4.57658 30.5346C4.68799 30.8004 4.82767 30.8351 5.07605 30.8113C5.81569 30.741 6.55809 30.6963 7.29956 30.636C7.61094 30.6105 7.86386 30.7091 8.05379 30.9584C9.09569 32.3308 10.3266 33.5042 11.7493 34.4758C12.0068 34.652 12.1173 34.8977 12.1082 35.2118C12.1 35.5889 12.1082 35.9679 12.1082 36.3459Z" fill="#532E88" stroke="#532E88" stroke-width="0.6"/>
<path fill-rule="evenodd" clip-rule="evenodd" d="M34.0747 21.0236C34.04 28.1945 28.3283 34.0524 21.0478 34.067C13.9153 34.0816 8.0465 28.347 8.01454 21.0812C7.98258 14.0098 13.6559 8.04604 21.0095 8.01864C28.0982 7.99307 33.9998 13.6618 34.0747 21.0236ZM13.0267 29.3579C13.0267 28.2073 13.0131 27.1289 13.0295 26.0514C13.066 23.7156 14.6978 21.9806 17.0163 21.7797C17.4016 21.7459 17.7011 21.8491 17.9349 22.166C18.2079 22.5367 18.5549 22.8344 18.9458 23.0764C20.6515 24.1319 22.7983 23.7794 24.0913 22.2253C24.3096 21.9632 24.5341 21.7632 24.904 21.7687C27.0471 21.8025 28.9209 23.5667 29.0268 25.7007C29.0752 26.6897 29.0478 27.6822 29.0551 28.6739C29.056 28.8748 29.0551 29.0757 29.0551 29.3232C33.0255 25.6907 34.1879 18.6713 29.8898 13.6162C25.4291 8.37018 17.6673 8.04695 12.8651 12.862C8.08664 17.6523 8.54413 25.0926 13.0267 29.3579ZM27.6042 28.1479C27.6042 27.4695 27.6124 26.791 27.6024 26.1126C27.5823 24.6999 26.671 23.5531 25.3999 23.3029C25.2081 23.2654 25.0948 23.3028 24.9606 23.438C22.6823 25.7254 19.406 25.7162 17.0893 23.4188C16.9798 23.3101 16.8921 23.2635 16.7214 23.2946C15.6092 23.4964 14.632 24.4771 14.5316 25.6012C14.3892 27.2011 14.5051 28.8082 14.4686 30.4116C14.464 30.6007 14.5891 30.6536 14.7079 30.7248C18.9257 33.2752 23.1453 33.2725 27.3677 30.733C27.5448 30.6262 27.6152 30.5121 27.6097 30.3003C27.5951 29.5834 27.6042 28.8648 27.6042 28.1479Z" fill="#532E88" stroke="#532E88" stroke-width="0.6"/>
<path fill-rule="evenodd" clip-rule="evenodd" d="M25.661 17.0467C25.6519 19.5962 23.5736 21.6663 21.0287 21.659C18.4682 21.6517 16.3972 19.5559 16.4137 16.9873C16.4292 14.4551 18.4929 12.4051 21.0287 12.4033C23.6047 12.4024 25.6692 14.4716 25.661 17.0467ZM17.8774 17.022C17.8747 18.7634 19.2845 20.1805 21.0268 20.1869C22.76 20.1933 24.1781 18.7926 24.2073 17.0439C24.2365 15.3263 22.7582 13.8406 21.0296 13.8507C19.2983 13.8616 17.8802 15.287 17.8774 17.022Z" fill="#532E88" stroke="#532E88" stroke-width="0.6"/>
</svg>
