<svg width="42" height="39" viewBox="0 0 42 39" fill="none" xmlns="http://www.w3.org/2000/svg">
<path fill-rule="evenodd" clip-rule="evenodd" d="M1 35.364C1.13985 35.1639 1.11092 34.9225 1.16014 34.7006C1.80235 31.7982 4.47663 29.4552 7.45561 29.1849C7.48764 29.1818 7.5181 29.1599 7.66264 29.0982C6.11338 28.7935 4.95555 28.0575 4.21178 26.7621C3.46802 25.466 3.37429 24.1004 3.9079 22.7089C4.71338 20.6073 6.99155 19.3807 9.21114 19.8315C11.4651 20.2893 13.0472 22.3456 12.9448 24.6848C12.8479 26.9051 11.0815 28.7989 8.85564 29.0669C8.87673 29.1513 8.93142 29.177 9.01658 29.1841C10.6385 29.3185 12.0534 29.9466 13.2597 31.0271C13.5112 31.2521 13.6136 31.1779 13.7878 30.9677C15.3394 29.0927 17.3363 28.0068 19.7332 27.6419C19.8614 27.6224 19.9926 27.6215 20.1223 27.6114C20.3223 27.6442 20.5208 27.663 20.7528 27.5301C20.5114 27.4747 20.3247 27.4528 20.1348 27.477C17.5855 27.2169 15.298 25.0223 14.8457 22.4043C14.2738 19.0917 16.3707 15.9455 19.6434 15.2056C23.1927 14.4033 26.6803 16.8362 27.1795 20.462C27.635 23.7715 25.3865 26.8637 22.095 27.4544C22.0184 27.4684 21.9396 27.47 21.8622 27.477C21.6677 27.4598 21.477 27.4661 21.295 27.5559C21.4864 27.6356 21.6779 27.6536 21.8747 27.6106C24.3435 27.8434 26.3912 28.9052 28.0334 30.7545C28.4615 31.2365 28.4428 31.2357 28.9327 30.8389C30.1226 29.8756 31.4835 29.3153 33.0359 29.1224C31.4765 28.7645 30.2538 27.9528 29.5421 26.5067C28.8272 25.0551 28.8624 23.5879 29.6335 22.1675C30.6866 20.2277 32.9609 19.3081 35.0695 19.9354C37.1712 20.5612 38.5594 22.5754 38.4079 24.7778C38.2563 26.9716 36.5798 28.7317 34.3164 29.0731C34.3508 29.1521 34.4093 29.1779 34.4984 29.1849C37.7633 29.424 41.0978 32.374 40.9978 36.4023C40.9876 36.8054 41.0041 37.2093 40.9947 37.6124C40.9814 38.1741 40.6806 38.4687 40.1165 38.4867C40.0126 38.4898 39.9079 38.4874 39.804 38.4874C27.3076 38.4874 14.812 38.4858 2.31564 38.4944C1.80235 38.4952 1.33671 38.4616 1.00076 38.0187C0.999982 37.135 1 36.2499 1 35.364ZM20.9778 36.9265C23.4779 36.9265 25.9772 36.9218 28.4765 36.9335C28.7507 36.9351 28.8257 36.8717 28.8061 36.5936C28.7491 35.7842 28.6037 34.9968 28.3256 34.2342C27.0592 30.7654 23.4833 28.6481 19.834 29.2067C16.1597 29.7692 13.3706 32.8615 13.1932 36.553C13.1784 36.8569 13.2464 36.9366 13.5573 36.935C16.03 36.9202 18.5035 36.9265 20.9778 36.9265ZM16.3121 21.305C16.3137 23.8863 18.4285 25.995 21.0098 25.9887C23.5748 25.9825 25.6748 23.8847 25.6834 21.3198C25.6928 18.7393 23.5856 16.6205 21.0051 16.6166C18.4246 16.6135 16.3105 18.7245 16.3121 21.305ZM7.06498 36.9265C8.48298 36.9265 9.90176 36.9218 11.3198 36.9311C11.5377 36.9327 11.6331 36.9046 11.6417 36.6468C11.6854 35.3343 11.9706 34.0749 12.5549 32.8928C12.6448 32.7108 12.6542 32.5834 12.4839 32.4217C10.9502 30.9662 9.14552 30.4091 7.0736 30.8154C4.65323 31.2896 2.41723 33.5108 2.55395 36.5499C2.56723 36.8382 2.60941 36.9406 2.92738 36.9359C4.3071 36.9148 5.68604 36.9265 7.06498 36.9265ZM34.8774 36.9265C36.2954 36.9265 37.7134 36.9272 39.1321 36.9249C39.2736 36.9249 39.4446 36.9905 39.4392 36.7187C39.4267 36.1468 39.447 35.5733 39.2978 35.0139C38.7259 32.8717 37.3524 31.4833 35.2352 30.9029C33.0672 30.3091 31.1601 30.8865 29.5218 32.4099C29.3351 32.5842 29.3561 32.7209 29.4514 32.9146C30.0225 34.074 30.3038 35.3077 30.3523 36.5928C30.3624 36.8577 30.4272 36.9359 30.7015 36.9327C32.0929 36.9179 33.4851 36.9265 34.8774 36.9265ZM11.387 24.4199C11.3799 22.7144 9.94316 21.2894 8.24703 21.3058C6.55245 21.3214 5.15322 22.7238 5.14229 24.4161C5.13135 26.1145 6.55872 27.5481 8.26267 27.5497C9.96505 27.552 11.394 26.12 11.387 24.4199ZM36.8532 24.4535C36.8766 22.7597 35.4563 21.3199 33.7469 21.305C32.064 21.2902 30.6499 22.6761 30.6085 24.3816C30.5679 26.0692 31.9781 27.5169 33.6945 27.5497C35.386 27.5825 36.8298 26.1661 36.8532 24.4535Z" fill="#532E88" stroke="#532E88" stroke-width="0.2"/>
<path fill-rule="evenodd" clip-rule="evenodd" d="M16.819 12.105C16.9893 11.0925 17.1604 10.0276 17.355 8.9674C17.3917 8.76974 17.344 8.65803 17.2096 8.52912C16.4963 7.84395 15.7964 7.1455 15.0815 6.46189C14.8049 6.19782 14.644 5.9017 14.7713 5.52513C14.8994 5.14543 15.2166 5.02279 15.5908 4.97279C16.544 4.84622 17.4948 4.69933 18.448 4.56964C18.6745 4.53917 18.8042 4.44228 18.9058 4.22665C19.3253 3.33445 19.7746 2.4571 20.1996 1.56801C20.3589 1.23519 20.5831 1.00316 20.9636 1.00003C21.3464 0.996906 21.5738 1.22894 21.7332 1.56019C22.1598 2.4485 22.6074 3.32745 23.0246 4.22044C23.1332 4.45325 23.2855 4.5423 23.5215 4.57433C24.4746 4.70402 25.4255 4.84699 26.3786 4.97668C26.7372 5.0259 27.0356 5.15402 27.163 5.51887C27.2966 5.9017 27.1348 6.19467 26.8614 6.45796C26.177 7.11735 25.5122 7.7963 24.8137 8.43928C24.5871 8.64788 24.5528 8.84945 24.6028 9.12289C24.7747 10.0682 24.9294 11.0175 25.102 11.9636C25.1669 12.3175 25.0911 12.6167 24.8036 12.8308C24.5262 13.037 24.2184 13.0183 23.92 12.862C23.0231 12.3941 22.1246 11.9284 21.234 11.4472C21.0426 11.3433 20.8996 11.3417 20.7058 11.4464C19.816 11.9284 18.9214 12.4019 18.0183 12.8589C17.4065 13.1698 16.7948 12.8011 16.819 12.105ZM18.6347 10.7698C19.2347 10.4565 19.798 10.1909 20.3316 9.87525C20.773 9.61352 21.1629 9.61274 21.6051 9.87525C22.1332 10.1893 22.6942 10.4495 23.3004 10.7651C23.22 10.2659 23.2028 9.82757 23.0731 9.42521C22.7848 8.5291 22.9926 7.84551 23.7559 7.28222C24.1082 7.02284 24.3809 6.65562 24.7083 6.31811C24.0395 6.22123 23.4113 6.11498 22.7785 6.04467C22.3152 5.9931 22.027 5.77124 21.8387 5.34389C21.5778 4.75169 21.2714 4.17981 20.9652 3.55792C20.6457 4.21341 20.3425 4.82511 20.0488 5.44231C19.8909 5.77279 19.6566 5.96968 19.28 6.01812C18.6042 6.10484 17.9315 6.21814 17.3104 6.31189C17.7636 6.79862 18.2136 7.29864 18.6823 7.7799C18.9386 8.04318 19.0535 8.32053 18.9831 8.6932C18.8566 9.36665 18.7558 10.044 18.6347 10.7698Z" fill="#532E88" stroke="#532E88" stroke-width="0.2"/>
<path fill-rule="evenodd" clip-rule="evenodd" d="M4.4936 16.0355C4.58657 15.5027 4.68971 14.8613 4.81393 14.2245C4.87018 13.9347 4.8241 13.719 4.58737 13.5097C4.1397 13.1136 3.72795 12.6776 3.29591 12.2643C3.03653 12.0167 2.93108 11.7237 3.03967 11.3823C3.15061 11.0307 3.43497 10.8885 3.77951 10.8401C4.37093 10.7573 4.96237 10.6666 5.55457 10.5939C5.81708 10.5611 5.99129 10.4737 6.10848 10.2041C6.35067 9.64629 6.64599 9.1111 6.91084 8.56265C7.06475 8.24467 7.29369 8.03374 7.65854 8.02984C8.02574 8.02593 8.25853 8.23923 8.41322 8.5533C8.68744 9.11191 8.97418 9.66503 9.2281 10.2322C9.33279 10.4658 9.48434 10.5557 9.72184 10.5862C10.3148 10.6612 10.9047 10.7596 11.4969 10.833C11.8758 10.8799 12.1774 11.0307 12.2977 11.4096C12.4141 11.776 12.2461 12.0612 11.9844 12.3112C11.5422 12.7331 11.1117 13.1674 10.6656 13.5854C10.5094 13.7315 10.4445 13.8612 10.493 14.0901C10.625 14.712 10.7188 15.3425 10.8266 15.9691C10.8867 16.3152 10.8164 16.6214 10.5195 16.8355C10.2375 17.0394 9.94059 17.0246 9.63903 16.8644C9.08979 16.5722 8.52809 16.3011 7.99058 15.9886C7.74214 15.8441 7.55541 15.8652 7.31868 15.9988C6.76554 16.3105 6.20537 16.6129 5.6327 16.8871C5.03893 17.1707 4.46392 16.7847 4.4936 16.0355ZM5.44596 12.1791C6.44833 12.8299 6.72958 13.6706 6.23894 14.7613C6.80224 14.5917 7.15618 14.1886 7.65698 14.1816C8.15933 14.1745 8.51325 14.6019 8.9867 14.7214C9.01092 14.2104 8.71089 13.7495 8.88667 13.2722C9.05699 12.8089 9.54841 12.5971 9.86639 12.1221C8.66948 12.2495 7.96945 11.7159 7.66163 10.5651C7.35537 11.7151 6.64912 12.2495 5.44596 12.1791Z" fill="#532E88" stroke="#532E88" stroke-width="0.2"/>
<path fill-rule="evenodd" clip-rule="evenodd" d="M31.0508 16.0525C31.1422 15.5267 31.2414 14.8978 31.3625 14.2736C31.4227 13.9618 31.4023 13.7196 31.1289 13.4876C30.6836 13.1095 30.2867 12.6759 29.8625 12.272C29.5906 12.0134 29.482 11.7094 29.607 11.3555C29.7297 11.0102 30.0211 10.8813 30.3656 10.836C30.9578 10.7571 31.5485 10.6649 32.1407 10.5891C32.3899 10.5571 32.5516 10.4665 32.6625 10.2133C32.9063 9.65628 33.2001 9.12031 33.4649 8.57186C33.6181 8.25467 33.8415 8.0375 34.2064 8.03047C34.5907 8.02266 34.8243 8.24845 34.9829 8.57892C35.247 9.12815 35.5298 9.66876 35.7829 10.2227C35.8853 10.4477 36.0236 10.5571 36.2697 10.586C36.8627 10.6571 37.4525 10.7586 38.0455 10.8321C38.4228 10.879 38.7275 11.0211 38.8533 11.3993C38.9744 11.7649 38.8135 12.0524 38.5509 12.3032C38.0908 12.7439 37.64 13.1954 37.1767 13.6329C37.0494 13.7533 37.0072 13.8634 37.0424 14.0415C37.1674 14.6783 37.2705 15.3197 37.3838 15.9588C37.4447 16.3049 37.3806 16.6119 37.0877 16.8306C36.7939 17.0502 36.4846 17.0205 36.172 16.8541C35.6002 16.5486 35.022 16.2541 34.454 15.9424C34.2884 15.8517 34.1587 15.851 33.9923 15.9424C33.4009 16.2658 32.8071 16.5877 32.2009 16.8815C31.6063 17.169 31.0281 16.7931 31.0508 16.0525ZM32.7922 14.765C33.3665 14.5868 33.7204 14.1822 34.2235 14.1814C34.7235 14.1806 35.0751 14.5915 35.6416 14.7556C35.1423 13.654 35.4564 12.8227 36.4392 12.1579C35.2056 12.2798 34.5462 11.6915 34.2158 10.568C33.9111 11.7165 33.2032 12.247 31.9914 12.1876C33.036 12.8181 33.2727 13.6618 32.7922 14.765Z" fill="#532E88" stroke="#532E88" stroke-width="0.2"/>
<path fill-rule="evenodd" clip-rule="evenodd" d="M20.1341 27.4795C20.3247 27.4553 20.5106 27.4772 20.7521 27.5327C20.52 27.6655 20.3216 27.646 20.1216 27.6139C20.1263 27.5686 20.1302 27.524 20.1341 27.4795Z" fill="#532E88" stroke="#532E88" stroke-width="0.2"/>
<path fill-rule="evenodd" clip-rule="evenodd" d="M21.8739 27.6129C21.677 27.6558 21.4856 27.6379 21.2942 27.5582C21.4762 27.4684 21.6668 27.4621 21.8614 27.4793C21.8661 27.5238 21.87 27.5683 21.8739 27.6129Z" fill="#532E88" stroke="#532E88" stroke-width="0.2"/>
</svg>
