<svg width="42" height="42" viewBox="0 0 42 42" fill="none" xmlns="http://www.w3.org/2000/svg">
<path fill-rule="evenodd" clip-rule="evenodd" d="M21.6411 1.00102C21.7171 1.15605 21.8711 1.07804 21.9845 1.10613C23.3476 1.44847 24.2299 2.57741 24.2945 4.07679C24.36 5.59699 23.9094 6.91118 22.7003 7.96731C23.3725 8.0776 23.9958 8.17021 24.6066 8.32941C25.3038 8.51046 25.9624 8.77269 26.5274 9.23259C27.2017 9.78095 27.5647 10.4854 27.5668 11.3615C27.5699 13.0908 27.5689 14.8202 27.5668 16.5495C27.5658 17.05 27.3431 17.3195 26.9415 17.3205C26.5388 17.3216 26.3203 17.0552 26.3193 16.5526C26.3172 14.8878 26.3005 13.223 26.3265 11.5592C26.338 10.784 25.9821 10.2804 25.337 9.93179C24.6399 9.55409 23.8699 9.41779 23.103 9.29397C21.2436 8.99326 19.4008 9.08067 17.581 9.58428C17.2428 9.67792 16.9171 9.80589 16.6122 9.98174C16.015 10.3272 15.6966 10.8162 15.707 11.5383C15.7299 13.2021 15.7153 14.867 15.7132 16.5318C15.7132 17.0438 15.5062 17.3101 15.1108 17.3205C14.6956 17.3309 14.4667 17.0541 14.4657 16.5308C14.4636 14.8139 14.4656 13.0981 14.4646 11.3813C14.4646 10.4583 14.8476 9.72892 15.579 9.17432C16.4343 8.52608 17.4457 8.29713 18.4696 8.10255C18.7339 8.05261 19.0023 8.01726 19.2906 7.97147C19.1345 7.80395 18.9909 7.66453 18.8629 7.51157C17.762 6.19324 17.4572 4.69382 17.9452 3.06229C18.275 1.95934 19.0856 1.3319 20.1958 1.08114C20.2645 1.06553 20.3581 1.10301 20.3914 1C20.8087 1.00104 21.2249 1.00102 21.6411 1.00102ZM18.9805 4.3952C18.9784 5.12772 19.1574 5.80925 19.5788 6.4138C20.3758 7.55837 21.6931 7.56252 22.4704 6.40755C23.052 5.54392 23.1904 4.57938 22.95 3.57528C22.8043 2.96554 22.4028 2.55558 21.7982 2.36101C20.2187 1.85323 18.9857 2.7439 18.9805 4.3952Z" fill="#532E88" stroke="#532E88" stroke-width="0.5"/>
<path fill-rule="evenodd" clip-rule="evenodd" d="M1.0408 36.8946C1.62141 35.339 2.97305 34.9697 4.39856 34.7168C4.46203 34.7054 4.52759 34.6991 4.59106 34.6887C4.60043 34.6866 4.60876 34.6741 4.62333 34.6616C4.65246 34.5337 4.52656 34.4962 4.46725 34.4234C3.6494 33.4328 3.39135 32.3028 3.68686 31.0645C4.0011 29.7493 5.10508 29.0533 6.59823 29.1729C7.8635 29.2749 8.80827 30.2176 8.92273 31.4954C9.0299 32.693 8.7188 33.7544 7.83852 34.6554C8.30363 34.7564 8.72919 34.8406 9.1506 34.9426C9.67294 35.0695 10.1578 35.2818 10.5845 35.6148C11.163 36.0664 11.473 36.6584 11.4803 37.394C11.4897 38.3305 11.4741 39.267 11.4887 40.2024C11.4939 40.5343 11.3159 40.7445 11.1068 40.9516C10.9507 40.9516 10.7946 40.9516 10.6386 40.9516C10.3212 40.756 10.2182 40.474 10.2286 40.1025C10.2504 39.2836 10.2119 38.4637 10.2431 37.6458C10.2671 37.008 9.97366 36.6106 9.42739 36.364C9.20368 36.263 8.96957 36.1798 8.73129 36.1215C7.49619 35.8208 6.24445 35.7137 4.98126 35.8906C4.31429 35.9842 3.64523 36.0882 3.03237 36.3952C2.53916 36.6418 2.26028 37.0049 2.28317 37.5969C2.31439 38.4148 2.2738 39.2358 2.29877 40.0536C2.31022 40.4345 2.21344 40.731 1.90025 40.9506C1.6141 40.9506 1.21666 41.0618 1.07306 40.9193C0.929473 40.7767 1.04182 40.3783 1.04182 40.0922C1.04078 39.0267 1.0408 37.9601 1.0408 36.8946ZM7.69595 31.9126C7.68971 31.819 7.68971 31.6754 7.66994 31.5349C7.58254 30.8971 7.15281 30.4861 6.50977 30.4205C5.69297 30.3373 5.12587 30.6099 4.93441 31.2414C4.67324 32.1051 4.82099 32.9168 5.41825 33.6056C5.91249 34.1747 6.59614 34.1643 7.10807 33.6056C7.53052 33.1436 7.68763 32.5775 7.69595 31.9126Z" fill="#532E88" stroke="#532E88" stroke-width="0.5"/>
<path fill-rule="evenodd" clip-rule="evenodd" d="M30.9256 40.9516C30.629 40.706 30.5281 40.3969 30.5406 40.0088C30.5655 39.2305 30.5718 38.4491 30.5427 37.6718C30.498 36.4606 31.1015 35.6896 32.1472 35.2037C32.7746 34.9124 33.452 34.7959 34.1273 34.6856C34.1752 34.5389 34.0451 34.5024 33.9858 34.4306C33.1273 33.3776 32.8682 32.1862 33.2532 30.8907C33.6153 29.6702 34.7099 29.0449 36.1334 29.1739C37.3445 29.2831 38.2612 30.1541 38.4173 31.358C38.5713 32.5525 38.3008 33.6242 37.4673 34.5242C37.433 34.5606 37.3862 34.5898 37.4153 34.6824C38.8939 34.9301 40.3766 35.2183 40.9926 36.8935C40.9926 38.1546 40.9853 39.4168 40.9999 40.6779C41.003 40.911 40.9541 40.9859 40.719 40.9557C40.5275 40.9318 40.3298 40.9505 40.1342 40.9505C39.8189 40.732 39.7252 40.4354 39.7356 40.0546C39.7596 39.2232 39.7263 38.3898 39.7492 37.5584C39.7637 37.0381 39.5328 36.6937 39.1061 36.4471C38.8346 36.29 38.5412 36.1881 38.2374 36.1163C37.0137 35.8239 35.7754 35.7146 34.5257 35.8874C33.8452 35.981 33.1637 36.0871 32.5384 36.3993C32.041 36.6469 31.7736 37.0204 31.7923 37.6062C31.8173 38.4376 31.784 39.2711 31.8059 40.1025C31.8152 40.4739 31.7123 40.7549 31.3959 40.9516C31.2378 40.9516 31.0817 40.9516 30.9256 40.9516ZM35.7858 30.4121C35.1012 30.4101 34.6122 30.6692 34.454 31.2082C34.197 32.0812 34.3198 32.9115 34.9357 33.6107C35.4342 34.1768 36.1199 34.1642 36.6256 33.5992C37.1125 33.055 37.2717 32.3943 37.1979 31.6836C37.1094 30.82 36.6443 30.4153 35.7858 30.4121Z" fill="#532E88" stroke="#532E88" stroke-width="0.5"/>
<path fill-rule="evenodd" clip-rule="evenodd" d="M16.1782 40.9517C15.8567 40.7186 15.7766 40.4001 15.787 40.0131C15.8089 39.1952 15.8068 38.3764 15.7901 37.5585C15.7714 36.5752 16.2188 35.877 17.0429 35.3869C17.7608 34.9603 18.5662 34.8272 19.3674 34.6815C19.4246 34.5588 19.3112 34.5223 19.2582 34.4609C18.38 33.435 18.1323 32.2498 18.4653 30.9658C18.7889 29.7172 19.9314 29.0451 21.3746 29.1751C22.6138 29.2875 23.5399 30.1958 23.67 31.4361C23.7928 32.6171 23.5201 33.6764 22.6825 34.5556C22.6596 34.5796 22.6513 34.619 22.6253 34.6752C23.1716 34.7772 23.7095 34.8522 24.2183 35.0322C25.1912 35.3766 26.0413 35.8989 26.1859 37.0174C26.3316 38.137 26.2296 39.2743 26.2275 40.4033C26.2275 40.6592 26.0028 40.7862 25.853 40.9527C25.6969 40.9527 25.5408 40.9527 25.3847 40.9527C25.0736 40.7519 24.9727 40.4689 24.982 40.1006C25.0028 39.2692 24.9695 38.4357 24.9955 37.6043C25.0122 37.0373 24.7646 36.6679 24.2828 36.4161C24.0165 36.2766 23.7366 36.1809 23.4452 36.1122C22.233 35.824 21.0083 35.7189 19.7711 35.8895C19.0906 35.9832 18.4091 36.0883 17.7838 36.4004C17.2885 36.647 17.0148 37.0154 17.0346 37.6043C17.0627 38.4357 17.0273 39.2692 17.0481 40.1006C17.0574 40.4689 16.9565 40.7518 16.6454 40.9537C16.4904 40.9516 16.3343 40.9517 16.1782 40.9517ZM19.5797 31.9262C19.5765 32.4787 19.743 33.0458 20.0219 33.4298C20.59 34.2154 21.4588 34.2185 22.0134 33.4256C22.4463 32.8065 22.542 32.1083 22.3974 31.3821C22.3142 30.9648 22.0571 30.6579 21.6482 30.5059C20.5078 30.0845 19.5859 30.7202 19.5797 31.9262Z" fill="#532E88" stroke="#532E88" stroke-width="0.5"/>
<path fill-rule="evenodd" clip-rule="evenodd" d="M13.2119 22.517C15.4864 22.517 17.762 22.5108 20.0366 22.5243C20.3311 22.5264 20.407 22.4526 20.3987 22.1602C20.3769 21.3548 20.3894 20.5484 20.3915 19.742C20.3925 19.2477 20.6182 18.9616 21.0043 18.9533C21.4028 18.946 21.639 19.2415 21.64 19.7586C21.6421 20.539 21.6587 21.3193 21.6317 22.0987C21.6202 22.4348 21.6994 22.5274 22.051 22.5264C26.5097 22.5118 30.9683 22.517 35.428 22.517C36.2552 22.517 36.3935 22.6585 36.3935 23.494C36.3935 24.5731 36.3946 25.6521 36.3935 26.7311C36.3925 27.2597 36.1699 27.5396 35.763 27.5324C35.3614 27.5261 35.1459 27.243 35.1459 26.7103C35.1449 25.8259 35.1356 24.9424 35.1522 24.058C35.1564 23.8104 35.0815 23.7615 34.8474 23.7615C30.5449 23.7688 26.2412 23.7688 21.9387 23.7615C21.7045 23.7615 21.6307 23.8104 21.6348 24.057C21.6515 24.9404 21.6422 25.8248 21.6411 26.7093C21.6401 27.2472 21.4309 27.5251 21.0272 27.5324C20.6099 27.5396 20.3925 27.2545 20.3925 26.6926C20.3914 25.8092 20.3852 24.9247 20.3976 24.0413C20.4008 23.8197 20.3363 23.7625 20.1167 23.7635C15.8007 23.7698 11.4846 23.7709 7.16955 23.7615C6.90422 23.7615 6.88239 23.8604 6.88447 24.0768C6.89384 24.9862 6.8928 25.8966 6.88656 26.807C6.88344 27.2846 6.57749 27.5958 6.17481 27.5282C5.83768 27.471 5.64418 27.2576 5.6421 26.9101C5.6369 25.6625 5.63378 24.4139 5.6421 23.1663C5.64522 22.7408 5.88556 22.5254 6.34755 22.5212C7.20494 22.5139 8.06339 22.5191 8.92182 22.5191C10.3525 22.517 11.7822 22.517 13.2119 22.517Z" fill="#532E88" stroke="#532E88" stroke-width="0.5"/>
<path fill-rule="evenodd" clip-rule="evenodd" d="M17.1646 14.657C17.1646 13.9952 17.1594 13.3324 17.1667 12.6706C17.1709 12.2159 17.4217 11.9319 17.7931 11.9371C18.1479 11.9423 18.4091 12.2211 18.4112 12.6467C18.4195 13.9713 18.4205 15.2948 18.4112 16.6194C18.4081 17.0793 18.151 17.3363 17.7588 17.3218C17.3852 17.3082 17.1719 17.0585 17.1667 16.6038C17.1594 15.9545 17.1646 15.3053 17.1646 14.657Z" fill="#532E88" stroke="#532E88" stroke-width="0.5"/>
<path fill-rule="evenodd" clip-rule="evenodd" d="M24.8688 14.6493C24.8688 15.2986 24.874 15.9479 24.8668 16.5972C24.8615 17.0665 24.6305 17.3256 24.2413 17.3225C23.8532 17.3193 23.6233 17.0612 23.6202 16.5868C23.6139 15.2882 23.6139 13.9907 23.6202 12.6921C23.6222 12.2333 23.8657 11.9471 24.233 11.9378C24.6159 11.9274 24.8626 12.2197 24.8668 12.7036C24.872 13.3518 24.8688 14.0011 24.8688 14.6493Z" fill="#532E88" stroke="#532E88" stroke-width="0.5"/>
</svg>
