<svg width="101" height="97" viewBox="0 0 101 97" fill="none" xmlns="http://www.w3.org/2000/svg">
<path fill-rule="evenodd" clip-rule="evenodd" d="M0 45.1402C0.664862 44.1208 1.61137 43.8705 2.8003 43.8783C9.31335 43.9227 15.829 43.8888 22.3446 43.9149C23.0017 43.9175 23.3119 43.7427 23.5309 43.1039C24.3209 40.8017 25.3847 38.6194 26.6206 36.5179C26.3181 36.2442 26.0156 36.3641 25.7497 36.3641C22.3941 36.3537 19.0386 36.3615 15.6856 36.3562C14.2516 36.3536 13.3572 35.6289 13.3233 34.4582C13.2894 33.2693 14.2411 32.448 15.6908 32.448C19.9902 32.4427 24.2896 32.4349 28.5891 32.461C29.1679 32.4636 29.5199 32.2837 29.8875 31.8352C35.4854 24.9963 42.5434 20.4386 51.1449 18.3241C51.7211 18.1833 52.0157 17.9722 51.9739 17.2995C51.9061 16.2279 51.9114 15.1485 51.9714 14.0769C52.0079 13.3886 51.7863 13.0887 51.124 12.8384C48.3733 11.8007 46.7542 9.15161 46.9262 6.13496C47.0801 3.45465 49.0747 1.02472 51.7733 0.286856C52.3625 0.125203 52.9908 0.0260591 53.601 0.0234518C58.2576 0.00259337 62.9168 -0.0155967 67.5734 0.0209056C70.7387 0.0469786 73.3878 2.15372 74.0787 5.08172C74.7905 8.10619 73.4531 11.2766 70.6424 12.5203C69.3883 13.0757 69.0491 13.7275 69.2056 14.9529C69.2994 15.6908 69.289 16.4574 69.2056 17.1952C69.1195 17.954 69.4795 18.1469 70.1209 18.3268C86.1506 22.8218 95.8418 33.2978 99.4686 49.4814C99.7398 50.6964 99.698 51.9661 100.11 53.155C100.11 55.5016 100.11 57.8482 100.11 60.1947C99.6563 61.209 99.7242 62.3198 99.5312 63.3836C98.5848 68.5956 96.7361 73.4452 93.8863 77.9168C93.3753 78.7172 92.6896 79.1159 91.7562 78.9464C90.901 78.7926 90.3977 78.2138 90.2048 77.3821C90.0405 76.6833 90.3953 76.1202 90.742 75.5648C93.026 71.9198 94.5982 67.9959 95.4456 63.7747C98.809 46.9941 90.111 30.5132 74.3394 23.8047C53.9347 15.1249 30.2083 27.6061 25.8098 49.3301C22.4124 66.1029 30.8652 82.6098 46.5951 89.2532C57.7335 93.9568 68.6843 93.1199 79.1709 86.9876C79.4785 86.8077 79.773 86.5991 80.0885 86.4323C81.0871 85.9108 82.1771 86.1897 82.735 87.0971C83.293 88.007 83.0661 89.1021 82.1171 89.7487C80.584 90.7942 78.9465 91.6624 77.2648 92.4446C56.8809 101.94 32.5183 92.3741 24.0785 71.5444C23.8047 70.8717 23.4944 70.6162 22.7487 70.6214C18.6761 70.6605 14.6035 70.6424 10.5309 70.6372C10.1424 70.6372 9.74353 70.6371 9.36287 70.5667C8.46074 70.3998 7.82713 69.5994 7.82713 68.6868C7.82713 67.8134 8.41378 67.026 9.26637 66.8278C9.64182 66.7418 10.0407 66.7313 10.4292 66.7313C14.1446 66.7235 17.8575 66.7052 21.5729 66.7443C22.3394 66.7521 22.4254 66.4914 22.2559 65.8526C21.7449 63.8972 21.4112 61.9078 21.3095 59.8872C21.2808 59.3188 21.0592 59.1988 20.5377 59.204C17.9956 59.2275 15.456 59.2171 12.9139 59.2145C11.4747 59.2118 10.5934 58.487 10.5673 57.3033C10.5413 56.0831 11.446 55.3087 12.9296 55.306C15.4378 55.3008 17.9461 55.2904 20.4543 55.3165C20.981 55.3217 21.1765 55.2044 21.2025 54.6412C21.2964 52.5893 21.518 50.5477 21.99 48.5479C22.1516 47.8674 21.9483 47.7971 21.359 47.7997C16.9605 47.818 12.562 47.8102 8.16348 47.8102C6.37226 47.8102 4.57841 47.7659 2.78719 47.8258C1.59305 47.8675 0.646611 47.5442 0 46.5065C0 46.0529 0 45.5965 0 45.1402ZM60.6043 9.39408C62.8179 9.39408 65.0314 9.40197 67.245 9.39154C69.1144 9.38372 70.3764 8.26264 70.3608 6.65132C70.3451 5.06087 69.1066 3.93179 67.2997 3.92397C62.8074 3.90832 58.3149 3.90832 53.8225 3.92397C52.0234 3.93179 50.8136 5.07909 50.8241 6.69041C50.8345 8.30954 52.0235 9.38111 53.8642 9.39154C56.1117 9.40457 58.3594 9.39408 60.6043 9.39408ZM60.6172 13.305C59.251 13.305 57.8848 13.326 56.5212 13.2947C56.0102 13.2817 55.8381 13.4433 55.8564 13.9543C55.8903 14.8956 55.8824 15.8394 55.8589 16.7833C55.8485 17.2135 55.9111 17.4429 56.4326 17.3829C59.2224 17.0674 62.0147 17.07 64.8019 17.3829C65.2921 17.4376 65.3233 17.2082 65.3155 16.8301C65.2972 15.8863 65.2791 14.9425 65.3208 14.0013C65.3443 13.4485 65.1748 13.2764 64.6168 13.2921C63.2871 13.3312 61.9522 13.305 60.6172 13.305Z" fill="#532E88"/>
<path fill-rule="evenodd" clip-rule="evenodd" d="M60.6486 26.3052C77.4501 26.3573 91.0001 39.9701 90.9323 56.7325C90.8671 73.4479 77.1997 87.0371 60.5312 86.9667C43.8106 86.8963 30.2526 73.2652 30.2943 56.5654C30.336 39.8318 43.9541 26.2557 60.6486 26.3052ZM60.6224 30.2214C46.058 30.2083 34.2287 42.0166 34.2052 56.5889C34.1818 71.135 46.0033 83.0113 60.5547 83.053C75.0852 83.0973 86.9822 71.2524 87.0213 56.7062C87.0578 42.0871 75.2467 30.2344 60.6224 30.2214Z" fill="#532E88"/>
<path fill-rule="evenodd" clip-rule="evenodd" d="M85.2249 83.1444C85.2354 82.0806 86.0749 81.2411 87.1387 81.2307C88.2259 81.2203 89.1437 82.1248 89.1255 83.1938C89.1072 84.2315 88.2337 85.0947 87.1855 85.1078C86.08 85.1234 85.2145 84.2551 85.2249 83.1444Z" fill="#532E88"/>
<path fill-rule="evenodd" clip-rule="evenodd" d="M54.5337 56.571C54.5311 55.8697 54.6327 55.1839 54.9273 54.5633C55.1698 54.0523 55.0185 53.7577 54.6457 53.4005C53.4255 52.2246 52.2341 51.0201 51.0451 49.8129C50.0778 48.8273 49.9996 47.7244 50.8078 46.877C51.6239 46.0244 52.8284 46.0896 53.8217 47.0673C55.0524 48.2797 56.2754 49.4974 57.4773 50.7359C57.7902 51.0592 58.0536 51.1375 58.4864 50.9628C59.8709 50.41 61.2971 50.4022 62.6789 50.9419C63.2134 51.1505 63.4792 51.0044 63.839 50.6419C66.7748 47.6801 69.7368 44.7417 72.6778 41.785C73.155 41.3053 73.6685 40.9142 74.3647 40.9272C75.1339 40.9402 75.7518 41.2869 76.0933 42.0013C76.4297 42.7001 76.3984 43.404 75.9161 44.022C75.598 44.4313 75.212 44.7912 74.8444 45.1588C72.1276 47.8809 69.4188 50.608 66.6785 53.3065C66.2248 53.7524 66.1387 54.0862 66.3447 54.7171C67.1504 57.181 66.5818 59.3817 64.6655 61.1104C62.7491 62.8364 60.4939 63.209 58.1317 62.1401C55.7695 61.0711 54.6327 59.134 54.5337 56.571ZM60.6399 54.4852C59.4223 54.4721 58.4576 55.4186 58.4576 56.6258C58.4576 57.8173 59.4536 58.8107 60.6321 58.7977C61.7793 58.7846 62.7363 57.8355 62.765 56.6805C62.7937 55.4733 61.8497 54.4982 60.6399 54.4852Z" fill="#532E88"/>
</svg>
