<svg width="30" height="30" viewBox="0 0 30 30" fill="none" xmlns="http://www.w3.org/2000/svg">
<g clip-path="url(#clip0_207_2255)">
<path d="M6.64863 18.1293L5.60438 22.0277L1.78764 22.1084C0.646992 19.9928 0 17.5722 0 14.9999C0 12.5126 0.604922 10.1669 1.67719 8.10156H1.67801L5.07598 8.72453L6.56449 12.1021C6.25295 13.0104 6.08314 13.9854 6.08314 14.9999C6.08326 16.101 6.28271 17.156 6.64863 18.1293Z" fill="#FBBB00"/>
<path d="M29.7377 12.1978C29.91 13.1051 29.9998 14.0422 29.9998 14.9999C29.9998 16.0738 29.8869 17.1214 29.6718 18.1318C28.9416 21.5703 27.0336 24.5728 24.3905 26.6975L24.3897 26.6967L20.1098 26.4783L19.504 22.6969C21.2579 21.6684 22.6285 20.0587 23.3505 18.1318H15.3296V12.1978H23.4675H29.7377Z" fill="#518EF8"/>
<path d="M24.3898 26.6967L24.3906 26.6975C21.82 28.7637 18.5546 30 15 30C9.2876 30 4.32113 26.8071 1.7876 22.1085L6.64859 18.1294C7.91533 21.5101 11.1766 23.9168 15 23.9168C16.6433 23.9168 18.1829 23.4725 19.5041 22.697L24.3898 26.6967Z" fill="#28B446"/>
<path d="M24.5745 3.45328L19.7152 7.43156C18.3479 6.57691 16.7316 6.0832 15.0001 6.0832C11.0902 6.0832 7.76789 8.60021 6.56461 12.1022L1.67807 8.10164H1.67725C4.17369 3.28846 9.20279 0 15.0001 0C18.6396 0 21.9767 1.29645 24.5745 3.45328Z" fill="#F14336"/>
</g>
<defs>
<clipPath id="clip0_207_2255">
<rect width="30" height="30" fill="white"/>
</clipPath>
</defs>
</svg>
