<svg width="143" height="36" viewBox="0 0 143 36" fill="none" xmlns="http://www.w3.org/2000/svg">
<path d="M57.0015 27.7167H51.9753L44.8643 8.58154H49.6965L55.2238 24.145H53.9309L59.2318 8.58154H64.1449L57.0015 27.7167Z" fill="#522E88"/>
<path d="M68.056 5.62419C67.2317 5.62419 66.5529 5.34945 66.0034 4.79996C65.454 4.25047 65.1792 3.58785 65.1792 2.8121C65.1792 2.02019 65.454 1.3414 66.0034 0.808074C66.5529 0.274745 67.2479 0 68.056 0C68.8964 0 69.6075 0.274745 70.1731 0.808074C70.7388 1.3414 71.0297 2.02019 71.0297 2.8121C71.0297 3.58785 70.7388 4.25047 70.1731 4.79996C69.6075 5.34945 68.8964 5.62419 68.056 5.62419ZM70.4802 27.7169H65.6802V8.58175H70.4802V27.7169Z" fill="#522E88"/>
<path d="M78.4316 27.7168H73.6317V8.58163H78.4316V11.2159H78.5771C78.8195 10.7149 79.1427 10.2301 79.5468 9.77757C79.9508 9.32505 80.5003 8.95334 81.1629 8.66243C81.8417 8.37153 82.6821 8.22607 83.7003 8.22607C84.1528 8.22607 84.7184 8.29072 85.3972 8.40385V13.0584C84.67 12.9614 84.0558 12.9129 83.5548 12.9129C82.7144 12.9129 81.971 13.026 81.3407 13.2523C80.6942 13.4786 80.1609 13.8341 79.7084 14.3189C79.2559 14.8038 78.9326 15.4179 78.7387 16.1614C78.5286 16.9048 78.4316 17.8098 78.4316 18.8765V27.7168Z" fill="#522E88"/>
<path d="M99.5224 12.4442H87.1265V8.5816H99.5224V12.4442ZM96.9204 28.0885C95.8537 28.0885 94.9487 27.9592 94.2053 27.7168C93.4618 27.4582 92.8477 27.1188 92.3628 26.6824C91.878 26.2461 91.4901 25.7612 91.2154 25.2279C90.9406 24.6946 90.7144 24.1128 90.6012 23.5148C90.4719 22.9168 90.4235 22.3189 90.4235 21.7532V3.81396H95.2719V21.6239C95.2719 22.4643 95.4982 23.1108 95.9507 23.531C96.4032 23.9673 97.1305 24.1774 98.1163 24.1774C98.6012 24.1774 99.2315 24.1128 99.9911 23.9997V27.7491C98.7628 27.9754 97.7285 28.0885 96.9204 28.0885Z" fill="#522E88"/>
<path d="M109.494 8.22607C110.415 8.22607 111.207 8.35537 111.886 8.58163C112.565 8.82405 113.13 9.09879 113.599 9.43818C114.068 9.76141 114.456 10.1008 114.73 10.424C115.021 10.7634 115.215 11.022 115.312 11.2159H115.603V8.58163H120.371V27.7168H115.603V25.0825H115.312C115.215 25.2441 115.021 25.5027 114.73 25.8582C114.439 26.1976 114.068 26.5532 113.599 26.8926C113.13 27.232 112.565 27.5067 111.886 27.7491C111.207 27.9754 110.415 28.0885 109.494 28.0885C108.072 28.0885 106.827 27.7976 105.777 27.232C104.71 26.6663 103.837 25.9067 103.126 24.9532C102.415 23.9997 101.882 22.933 101.543 21.7532C101.187 20.5734 101.025 19.3775 101.025 18.1331C101.025 16.9048 101.203 15.7088 101.543 14.5291C101.898 13.3493 102.415 12.2826 103.126 11.3291C103.837 10.3755 104.726 9.61596 105.777 9.05031C106.827 8.50082 108.072 8.22607 109.494 8.22607ZM110.755 12.1533C109.672 12.1533 108.767 12.4442 108.023 13.0422C107.28 13.6402 106.747 14.3836 106.375 15.3048C106.019 16.226 105.842 17.1795 105.842 18.1654C105.842 19.1512 106.019 20.1048 106.375 21.026C106.73 21.9472 107.28 22.6906 108.023 23.2886C108.751 23.8865 109.672 24.1775 110.755 24.1775C111.837 24.1775 112.742 23.8865 113.47 23.2886C114.197 22.6906 114.73 21.9472 115.102 21.026C115.458 20.1048 115.635 19.1674 115.635 18.1654C115.635 17.1795 115.458 16.226 115.102 15.3048C114.746 14.3836 114.197 13.6402 113.47 13.0422C112.742 12.4604 111.837 12.1533 110.755 12.1533Z" fill="#522E88"/>
<path d="M128.322 34.8117H123.522V8.58163H128.322V11.2159H128.581C128.726 11.022 128.936 10.7634 129.195 10.424C129.453 10.0846 129.825 9.74525 130.294 9.40586C130.762 9.06647 131.344 8.79172 132.023 8.56546C132.702 8.3392 133.494 8.22607 134.383 8.22607C135.805 8.22607 137.049 8.50082 138.116 9.06647C139.183 9.63212 140.071 10.3917 140.766 11.3452C141.461 12.2988 141.995 13.3654 142.334 14.5452C142.69 15.725 142.851 16.9371 142.851 18.1654C142.851 19.3937 142.673 20.5896 142.334 21.7856C141.979 22.9653 141.461 24.032 140.766 24.9855C140.071 25.9391 139.183 26.6986 138.116 27.2643C137.049 27.8299 135.805 28.1208 134.383 28.1208C133.494 28.1208 132.702 27.9916 132.023 27.7653C131.344 27.5229 130.762 27.2481 130.294 26.9087C129.825 26.5855 129.453 26.2461 129.195 25.8906C128.936 25.535 128.726 25.2764 128.581 25.1148H128.322V34.8117ZM128.257 18.1492C128.257 19.1189 128.435 20.0563 128.791 20.9775C129.146 21.8987 129.696 22.6583 130.423 23.2563C131.15 23.8542 132.039 24.1451 133.138 24.1451C134.253 24.1451 135.158 23.8542 135.886 23.2563C136.613 22.6583 137.146 21.9148 137.502 20.9775C137.857 20.0563 138.035 19.1027 138.035 18.1492C138.035 17.1634 137.857 16.2098 137.502 15.2886C137.146 14.3674 136.597 13.624 135.886 13.026C135.158 12.4281 134.253 12.1371 133.138 12.1371C132.055 12.1371 131.15 12.4281 130.423 13.026C129.696 13.624 129.162 14.3674 128.791 15.2886C128.435 16.2098 128.257 17.1634 128.257 18.1492Z" fill="#522E88"/>
<path d="M33.8583 2.79604L23.1917 16.0969C22.5614 16.8888 22.2059 17.8747 22.2059 18.8929V24.6302C22.2059 25.5514 21.9473 26.4564 21.4463 27.216L18.6988 31.4503C18.2786 32.0806 17.3574 32.0806 16.9372 31.4503L14.1898 27.216C13.6888 26.4403 13.4302 25.5514 13.4302 24.6302V18.8929C13.4302 17.8747 13.0908 16.8888 12.4443 16.0969L1.77776 2.79604C1.17979 2.05261 0 2.47281 0 3.42633V19.6201C0 21.0585 0.646459 22.4161 1.7616 23.3211L16.8403 35.4907C17.4059 35.9432 18.214 35.9432 18.7796 35.4907L33.8583 23.3211C34.9734 22.4161 35.6199 21.0585 35.6199 19.6201V3.42633C35.6361 2.48897 34.4401 2.06877 33.8583 2.79604Z" fill="#522E88"/>
</svg>
