<svg width="184" height="32" viewBox="0 0 184 32" fill="none" xmlns="http://www.w3.org/2000/svg">
<rect width="32" height="32" fill="white"/>
<path d="M18.3067 4.68002L20.6533 9.37335C20.9733 10.0267 21.8267 10.6534 22.5467 10.7734L26.8 11.48C29.52 11.9334 30.16 13.9067 28.2 15.8534L24.8933 19.16C24.3333 19.72 24.0267 20.8 24.2 21.5734L25.1467 25.6667C25.8933 28.9067 24.1733 30.16 21.3067 28.4667L17.32 26.1067C16.6 25.68 15.4133 25.68 14.68 26.1067L10.6933 28.4667C7.84 30.16 6.10667 28.8934 6.85333 25.6667L7.8 21.5734C7.97333 20.8 7.66667 19.72 7.10667 19.16L3.8 15.8534C1.85333 13.9067 2.48 11.9334 5.2 11.48L9.45333 10.7734C10.16 10.6534 11.0133 10.0267 11.3333 9.37335L13.68 4.68002C14.96 2.13335 17.04 2.13335 18.3067 4.68002Z" fill="#8BCED3" stroke="#8BCED3" stroke-width="1.5" stroke-linecap="round" stroke-linejoin="round"/>
<rect width="32" height="32" transform="translate(76)" fill="white"/>
<path d="M94.3067 4.68002L96.6533 9.37335C96.9733 10.0267 97.8267 10.6534 98.5467 10.7734L102.8 11.48C105.52 11.9334 106.16 13.9067 104.2 15.8534L100.893 19.16C100.333 19.72 100.027 20.8 100.2 21.5734L101.147 25.6667C101.893 28.9067 100.173 30.16 97.3067 28.4667L93.32 26.1067C92.6 25.68 91.4133 25.68 90.68 26.1067L86.6933 28.4667C83.84 30.16 82.1067 28.8934 82.8533 25.6667L83.8 21.5734C83.9733 20.8 83.6667 19.72 83.1067 19.16L79.8 15.8534C77.8533 13.9067 78.48 11.9334 81.2 11.48L85.4533 10.7734C86.16 10.6534 87.0133 10.0267 87.3333 9.37335L89.68 4.68002C90.96 2.13335 93.04 2.13335 94.3067 4.68002Z" fill="#8BCED3" stroke="#8BCED3" stroke-width="1.5" stroke-linecap="round" stroke-linejoin="round"/>
<rect width="32" height="32" transform="translate(38)" fill="white"/>
<path d="M56.3067 4.68002L58.6533 9.37335C58.9733 10.0267 59.8267 10.6534 60.5467 10.7734L64.8 11.48C67.52 11.9334 68.16 13.9067 66.2 15.8534L62.8933 19.16C62.3333 19.72 62.0267 20.8 62.2 21.5734L63.1467 25.6667C63.8933 28.9067 62.1733 30.16 59.3067 28.4667L55.32 26.1067C54.6 25.68 53.4133 25.68 52.68 26.1067L48.6933 28.4667C45.84 30.16 44.1067 28.8934 44.8533 25.6667L45.8 21.5734C45.9733 20.8 45.6667 19.72 45.1067 19.16L41.8 15.8534C39.8533 13.9067 40.48 11.9334 43.2 11.48L47.4533 10.7734C48.16 10.6534 49.0133 10.0267 49.3333 9.37335L51.68 4.68002C52.96 2.13335 55.04 2.13335 56.3067 4.68002Z" fill="#8BCED3" stroke="#8BCED3" stroke-width="1.5" stroke-linecap="round" stroke-linejoin="round"/>
<rect width="32" height="32" transform="translate(114)" fill="white"/>
<path d="M132.307 4.68002L134.653 9.37335C134.973 10.0267 135.827 10.6534 136.547 10.7734L140.8 11.48C143.52 11.9334 144.16 13.9067 142.2 15.8534L138.893 19.16C138.333 19.72 138.027 20.8 138.2 21.5734L139.147 25.6667C139.893 28.9067 138.173 30.16 135.307 28.4667L131.32 26.1067C130.6 25.68 129.413 25.68 128.68 26.1067L124.693 28.4667C121.84 30.16 120.107 28.8934 120.853 25.6667L121.8 21.5734C121.973 20.8 121.667 19.72 121.107 19.16L117.8 15.8534C115.853 13.9067 116.48 11.9334 119.2 11.48L123.453 10.7734C124.16 10.6534 125.013 10.0267 125.333 9.37335L127.68 4.68002C128.96 2.13335 131.04 2.13335 132.307 4.68002Z" fill="#8BCED3" stroke="#8BCED3" stroke-width="1.5" stroke-linecap="round" stroke-linejoin="round"/>
<rect width="32" height="32" transform="translate(152)" fill="white"/>
<path d="M170.307 4.68002L172.653 9.37335C172.973 10.0267 173.827 10.6534 174.547 10.7734L178.8 11.48C181.52 11.9334 182.16 13.9067 180.2 15.8534L176.893 19.16C176.333 19.72 176.027 20.8 176.2 21.5734L177.147 25.6667C177.893 28.9067 176.173 30.16 173.307 28.4667L169.32 26.1067C168.6 25.68 167.413 25.68 166.68 26.1067L162.693 28.4667C159.84 30.16 158.107 28.8934 158.853 25.6667L159.8 21.5734C159.973 20.8 159.667 19.72 159.107 19.16L155.8 15.8534C153.853 13.9067 154.48 11.9334 157.2 11.48L161.453 10.7734C162.16 10.6534 163.013 10.0267 163.333 9.37335L165.68 4.68002C166.96 2.13335 169.04 2.13335 170.307 4.68002Z" fill="#8BCED3" stroke="#8BCED3" stroke-width="1.5" stroke-linecap="round" stroke-linejoin="round"/>
</svg>
