<svg width="26" height="26" viewBox="0 0 26 26" fill="none" xmlns="http://www.w3.org/2000/svg">
<path d="M13 0.5C6.1125 0.5 0.5 6.1125 0.5 13C0.5 19.8875 6.1125 25.5 13 25.5C19.8875 25.5 25.5 19.8875 25.5 13C25.5 6.1125 19.8875 0.5 13 0.5ZM18.975 10.125L11.8875 17.2125C11.7125 17.3875 11.475 17.4875 11.225 17.4875C10.975 17.4875 10.7375 17.3875 10.5625 17.2125L7.025 13.675C6.6625 13.3125 6.6625 12.7125 7.025 12.35C7.3875 11.9875 7.9875 11.9875 8.35 12.35L11.225 15.225L17.65 8.8C18.0125 8.4375 18.6125 8.4375 18.975 8.8C19.3375 9.1625 19.3375 9.75 18.975 10.125Z" fill="#8BCED3"/>
</svg>
