<svg width="42" height="42" viewBox="0 0 42 42" fill="none" xmlns="http://www.w3.org/2000/svg">
<path fill-rule="evenodd" clip-rule="evenodd" d="M20.3749 40.9957C20.3228 40.8592 20.1843 40.88 20.0832 40.8446C18.9157 40.4322 18.146 39.3656 18.1418 38.1449C18.1376 36.9284 18.9053 35.8379 20.077 35.4494C20.3582 35.3567 20.4467 35.239 20.4436 34.939C20.427 33.0913 20.4269 31.2426 20.4426 29.3949C20.4457 29.0741 20.3624 28.9856 20.0364 28.9866C15.2859 28.9971 10.5353 28.9907 5.78485 28.998C5.16304 28.9991 4.6329 28.8408 4.23086 28.345C3.91632 27.9576 3.86215 27.5035 3.86215 27.0244C3.86632 20.2304 3.86424 13.4363 3.86424 6.64228C3.86424 6.53813 3.85906 6.43397 3.86531 6.32982C3.8726 6.19442 3.81112 6.15169 3.67988 6.14856C2.3342 6.11628 1.46244 5.45494 1.06457 4.16759C1.05936 4.14988 1.02498 4.14154 1.00415 4.12904C1.00415 3.7645 1.00415 3.39996 1.00415 3.03541C1.2135 2.65941 1.32807 2.23653 1.62282 1.89907C2.02694 1.43558 2.55502 1.19916 3.11329 1.00439C15.0119 1.00439 26.9095 1.00439 38.8082 1.00439C39.5914 1.20645 40.2601 1.57725 40.6591 2.31467C40.7955 2.56777 40.885 2.84689 40.9954 3.11353C40.9954 3.45203 40.9954 3.79054 40.9954 4.12904C40.8663 4.18737 40.886 4.32484 40.8496 4.42691C40.4777 5.43721 39.5945 6.11317 38.5144 6.13712C38.1645 6.14441 38.1291 6.26626 38.1291 6.56518C38.1375 13.3977 38.1354 20.2293 38.1343 27.0618C38.1343 28.044 37.7135 28.6804 36.9125 28.9262C36.6584 29.0043 36.398 28.995 36.1387 28.995C31.4278 28.996 26.7168 28.9991 22.0059 28.9877C21.6549 28.9866 21.5507 29.0668 21.5549 29.4313C21.5747 31.2926 21.5633 33.1528 21.5654 35.0141C21.5654 35.1724 21.5258 35.314 21.7695 35.3984C23.1287 35.8691 23.9109 36.9503 23.8526 38.2179C23.788 39.6042 22.9434 40.5811 21.5039 40.9363C21.4883 40.9404 21.48 40.9759 21.4685 40.9967C21.104 40.9956 20.7394 40.9957 20.3749 40.9957ZM20.98 6.15899C15.7868 6.15899 10.5927 6.16213 5.3995 6.15172C5.08808 6.15068 4.98805 6.20586 4.98909 6.5454C5.00055 13.3655 4.99746 20.1866 4.9985 27.0077C4.9985 27.692 5.16928 27.8648 5.84837 27.8648C15.9493 27.8648 26.0503 27.8648 36.1512 27.8648C36.8303 27.8648 37.0021 27.6909 37.0021 27.0087C37.0021 20.1887 36.999 13.3676 37.0105 6.54647C37.0105 6.20901 36.9136 6.15172 36.6011 6.15172C31.3934 6.16213 26.1867 6.15899 20.98 6.15899ZM21.0009 4.99767C21.0009 4.99455 21.0009 4.99246 21.0009 4.98933C26.4273 4.98933 31.8537 4.98933 37.2812 4.98933C37.6843 4.98933 38.0885 5.00498 38.4915 4.99249C39.1883 4.96957 39.7622 4.4321 39.833 3.75926C39.908 3.03226 39.4946 2.3782 38.8155 2.20843C38.5676 2.14698 38.2988 2.1532 38.0405 2.1532C26.6793 2.15112 15.3181 2.15111 3.95797 2.15111C3.80173 2.15111 3.6455 2.15008 3.48927 2.15946C2.78414 2.20632 2.22692 2.73442 2.16547 3.41038C2.09881 4.14155 2.51542 4.75914 3.20284 4.95287C3.43303 5.01744 3.66841 4.99559 3.90172 4.99559C9.60107 4.99871 15.3005 4.99767 21.0009 4.99767ZM20.9873 39.8437C21.9403 39.8489 22.708 39.0959 22.7142 38.1501C22.7194 37.2065 21.957 36.4368 21.0102 36.4295C20.0655 36.4222 19.2906 37.1846 19.2843 38.1272C19.2781 39.0751 20.0363 39.8385 20.9873 39.8437Z" fill="#532E88" stroke="#532E88" stroke-width="0.6"/>
<path fill-rule="evenodd" clip-rule="evenodd" d="M40.9946 3.11462C40.8842 2.84798 40.7946 2.56885 40.6582 2.31576C40.2592 1.57834 39.5906 1.20858 38.8074 1.00548C39.4656 1.00548 40.1229 1.01383 40.7811 1.00029C40.9634 0.996128 41.004 1.03465 40.9998 1.21796C40.9863 1.85018 40.9946 2.4824 40.9946 3.11462Z" fill="#532E88" stroke="#532E88" stroke-width="0.6"/>
<path fill-rule="evenodd" clip-rule="evenodd" d="M3.11339 1.00566C2.55408 1.20043 2.02705 1.43689 1.62293 1.90038C1.32921 2.23784 1.2136 2.65964 1.00425 3.03668C1.00425 2.418 1.00946 1.79827 1.00008 1.17959C0.998 1.03377 1.03445 1.00045 1.17818 1.00149C1.82394 1.01086 2.46867 1.00566 3.11339 1.00566Z" fill="#532E88" stroke="#532E88" stroke-width="0.6"/>
<path fill-rule="evenodd" clip-rule="evenodd" d="M10.4532 8.42745C11.2458 8.42745 12.0395 8.42535 12.8321 8.42847C13.3799 8.43055 13.5747 8.62848 13.5758 9.18675C13.5778 10.7855 13.5778 12.3853 13.5758 13.9841C13.5747 14.5143 13.3789 14.7163 12.8477 14.7184C11.2354 14.7226 9.62307 14.7226 8.01075 14.7184C7.47227 14.7174 7.28792 14.5278 7.28584 13.98C7.28167 12.3801 7.28167 10.7814 7.28584 9.18258C7.28688 8.62431 7.48269 8.43162 8.03471 8.42954C8.84086 8.42537 9.64705 8.42745 10.4532 8.42745ZM10.4553 9.5846C9.86994 9.5846 9.28562 9.58983 8.70027 9.5815C8.51696 9.57837 8.42112 9.60023 8.4232 9.82729C8.43466 10.9969 8.43154 12.1666 8.42529 13.3363C8.42425 13.5175 8.46903 13.5831 8.66172 13.581C9.83138 13.5727 11.001 13.5716 12.1707 13.582C12.3832 13.5841 12.4269 13.5123 12.4259 13.3154C12.4176 12.1593 12.4144 11.0021 12.428 9.84499C12.4311 9.60126 12.3321 9.57626 12.1311 9.58043C11.5729 9.59084 11.0136 9.5846 10.4553 9.5846Z" fill="#532E88" stroke="#532E88" stroke-width="0.6"/>
<path fill-rule="evenodd" clip-rule="evenodd" d="M7.2847 21.275C7.2847 20.4688 7.28056 19.6626 7.28577 18.8565C7.28889 18.3024 7.48367 18.1139 8.04506 18.1139C9.64384 18.1118 11.2437 18.1118 12.8424 18.1139C13.3726 18.1149 13.5746 18.3149 13.5746 18.843C13.5777 20.4553 13.5777 22.0676 13.5746 23.6799C13.5736 24.1913 13.3778 24.4006 12.8747 24.4027C11.2499 24.4089 9.62405 24.4079 7.99924 24.4027C7.47638 24.4006 7.28994 24.2142 7.28577 23.6934C7.27848 22.8862 7.2847 22.0811 7.2847 21.275ZM10.4156 23.2623C10.9874 23.2623 11.5592 23.256 12.1311 23.2664C12.33 23.2706 12.43 23.2446 12.4279 23.0019C12.4154 21.8447 12.4175 20.6886 12.4258 19.5314C12.4269 19.3345 12.3841 19.2627 12.1706 19.2648C11.0135 19.2752 9.85736 19.2762 8.7002 19.2648C8.47314 19.2627 8.42209 19.3356 8.42313 19.5502C8.43251 20.6938 8.43251 21.8374 8.42313 22.981C8.42105 23.1945 8.46999 23.2737 8.69913 23.2674C9.27094 23.2508 9.84379 23.2623 10.4156 23.2623Z" fill="#532E88" stroke="#532E88" stroke-width="0.6"/>
<path fill-rule="evenodd" clip-rule="evenodd" d="M25.5702 14.1395C22.6549 14.1395 19.7396 14.1342 16.8243 14.1467C16.5014 14.1478 16.4077 14.0697 16.4191 13.7416C16.4441 13.0094 16.4254 13.0083 17.1566 13.0083C22.8694 13.0083 28.5834 13.0125 34.2973 13C34.6473 12.999 34.7358 13.0885 34.7223 13.4302C34.6952 14.1384 34.7149 14.1395 34.0046 14.1395C31.1924 14.1395 28.3813 14.1395 25.5702 14.1395Z" fill="#532E88" stroke="#532E88" stroke-width="0.6"/>
<path fill-rule="evenodd" clip-rule="evenodd" d="M25.5526 23.8236C22.6373 23.8236 19.722 23.8184 16.8067 23.8309C16.5015 23.832 16.4119 23.7569 16.4202 23.4476C16.44 22.6935 16.4244 22.6924 17.1743 22.6924C22.8747 22.6924 28.5751 22.6955 34.2755 22.6841C34.6338 22.683 34.7369 22.7737 34.7224 23.132C34.6932 23.8226 34.714 23.8236 34.0255 23.8236C31.2008 23.8236 28.3762 23.8236 25.5526 23.8236Z" fill="#532E88" stroke="#532E88" stroke-width="0.6"/>
<path fill-rule="evenodd" clip-rule="evenodd" d="M21.5468 9.58163C23.1081 9.58163 24.6703 9.58889 26.2316 9.57431C26.5097 9.57118 26.5743 9.64931 26.5701 9.91907C26.5566 10.7106 26.5702 10.7107 25.7869 10.7107C22.7935 10.7107 19.8011 10.7065 16.8077 10.7179C16.5015 10.719 16.4119 10.6419 16.4202 10.3326C16.44 9.58163 16.4244 9.58163 17.1743 9.58163C18.6314 9.58163 20.0896 9.58163 21.5468 9.58163Z" fill="#532E88" stroke="#532E88" stroke-width="0.6"/>
<path fill-rule="evenodd" clip-rule="evenodd" d="M21.5082 20.3957C19.9334 20.3957 18.3585 20.3874 16.7847 20.4031C16.4869 20.4062 16.415 20.3218 16.4213 20.0333C16.4369 19.2667 16.4233 19.2667 17.1983 19.2667C20.1917 19.2667 23.1841 19.273 26.1775 19.2574C26.5139 19.2553 26.5816 19.3521 26.5722 19.6667C26.5493 20.3957 26.566 20.3957 25.8432 20.3957C24.3964 20.3957 22.9528 20.3957 21.5082 20.3957Z" fill="#532E88" stroke="#532E88" stroke-width="0.6"/>
</svg>
