<svg width="40" height="40" viewBox="0 0 40 40" fill="none" xmlns="http://www.w3.org/2000/svg">
<path fill-rule="evenodd" clip-rule="evenodd" d="M1 30.7615C1.19969 30.3741 1.15963 29.934 1.27784 29.5253C2.14606 26.5259 4.11158 24.6806 7.13099 23.966C7.99987 23.7603 8.89547 23.7436 9.78172 23.9179C10.0201 23.9647 10.1885 23.9086 10.3674 23.7296C14.8294 19.2562 19.2967 14.7882 23.768 10.3243C23.9303 10.1626 23.9871 10.0224 23.951 9.78064C23.3126 5.49431 26.135 1.70885 30.428 1.07572C30.4788 1.06837 30.5242 1.06237 30.5368 1.00293C30.611 1.00293 30.6851 1.00293 30.7592 1.00293C31.18 1.12916 31.6001 1.12114 32.0208 1.00293C32.0949 1.00293 32.1691 1.00293 32.2432 1.00293C32.469 1.13383 32.7301 1.10846 32.9725 1.16657C33.2877 1.2427 33.617 1.29279 33.7245 1.66746C33.8294 2.03278 33.6157 2.26854 33.38 2.50363C32.1965 3.67973 31.021 4.86383 29.8362 6.03726C29.6873 6.18486 29.6439 6.30441 29.7181 6.51412C30.0226 7.37232 30.3124 8.23654 30.5876 9.10476C30.6517 9.30712 30.7559 9.40329 30.9489 9.4654C31.7938 9.73588 32.6379 10.009 33.4734 10.3056C33.7165 10.3917 33.8648 10.3663 34.0491 10.1793C35.2466 8.96516 36.4581 7.76504 37.6642 6.55955C37.8679 6.35585 38.0903 6.22961 38.3929 6.3318C38.6914 6.43264 38.7922 6.66639 38.853 6.94689C38.8958 7.14325 38.8731 7.35763 38.9979 7.53395C38.9979 8.32536 38.9979 9.11745 38.9979 9.90886C38.9158 9.92423 38.9252 9.99302 38.9138 10.0505C38.099 14.2112 34.1032 16.8205 30.1769 16.0805C30.0086 16.0492 29.9017 16.11 29.7882 16.2242C28.8037 17.2153 27.8173 18.2043 26.8235 19.1861C26.6792 19.329 26.6572 19.4119 26.8162 19.5608C27.1862 19.9067 27.5375 20.2728 27.8961 20.6314C28.3977 21.1336 28.3997 21.4061 27.9128 21.909C27.8273 21.9972 27.7398 22.0887 27.6777 22.1928C27.4426 22.5876 27.6336 23.063 28.0724 23.2066C28.4184 23.3202 28.6655 23.1526 28.8973 22.9302C29.4356 22.4152 29.6787 22.4152 30.1969 22.9335C32.6099 25.3458 35.0235 27.7574 37.4325 30.1731C37.6496 30.3908 37.8472 30.6299 38.0429 30.8683C38.5365 31.4681 38.7649 32.1927 38.9979 32.9147C38.9979 33.632 38.9979 34.3492 38.9979 35.0665C38.8737 35.1026 38.8924 35.2235 38.867 35.3083C38.4082 36.8377 37.4465 37.9229 36.0033 38.5988C35.6052 38.7852 35.1691 38.836 34.7671 39.0003C34.1733 39.0003 33.5796 39.0003 32.9859 39.0003C32.9692 38.9208 32.9004 38.9248 32.843 38.9114C31.7076 38.655 30.8087 38.0232 29.9999 37.2057C27.6884 34.8689 25.3549 32.5534 23.0308 30.2292C22.9693 30.1685 22.9065 30.1083 22.8478 30.0456C22.4898 29.6635 22.4898 29.3583 22.8444 28.9797C22.9533 28.8628 23.0708 28.7499 23.1583 28.6177C23.354 28.3218 23.3119 28.0279 23.0875 27.7675C22.8771 27.523 22.4925 27.4769 22.2106 27.6546C22.1078 27.7194 22.0162 27.8062 21.9281 27.891C21.4339 28.3678 21.1741 28.3659 20.6785 27.873C20.3279 27.5244 19.9719 27.1811 19.632 26.8224C19.479 26.6608 19.3862 26.6134 19.2006 26.8038C18.2328 27.7929 17.2504 28.7679 16.2673 29.7424C16.1418 29.8666 16.0937 29.9801 16.1244 30.1631C16.2586 30.9592 16.2833 31.76 16.1438 32.5587C15.6495 35.3851 14.0614 37.3426 11.4367 38.4759C10.8035 38.7491 10.1236 38.8379 9.46113 38.9982C8.84269 38.9982 8.22426 38.9982 7.60583 38.9982C7.54705 38.8613 7.41281 38.9154 7.3153 38.8947C4.13161 38.2062 2.11199 36.2894 1.23776 33.1544C1.13358 32.7811 1.17566 32.3797 1.00068 32.0224C1.00002 31.6023 1 31.1816 1 30.7615ZM31.7203 2.28524C31.218 2.23782 30.7312 2.28256 30.2524 2.38408C26.6786 3.13943 24.5781 6.30106 25.2707 9.90551C25.3562 10.351 25.2421 10.6482 24.9315 10.9574C20.2718 15.603 15.6182 20.2547 10.9732 24.915C10.6553 25.2336 10.3454 25.3158 9.91194 25.2283C8.20355 24.8803 6.58867 25.1528 5.12672 26.1132C2.91209 27.5691 1.85286 30.099 2.34107 32.6642C2.82193 35.1921 4.74471 37.1315 7.32867 37.6945C11.7305 38.6536 15.7971 34.5937 14.8301 30.1932C14.7259 29.719 14.8194 29.3837 15.1694 29.0358C18.8533 25.3732 22.5225 21.6966 26.1964 18.0234C27.1848 17.0349 28.178 16.0518 29.1584 15.0561C29.4269 14.7836 29.7054 14.6734 30.0881 14.7736C30.5669 14.8984 31.0638 14.9459 31.558 14.9392C34.6916 14.8944 37.3056 12.5663 37.719 9.4487C37.7671 9.08405 37.8125 8.70804 37.7023 8.31467C37.5688 8.39882 37.4953 8.51503 37.4004 8.60986C36.4494 9.56557 35.4917 10.5146 34.544 11.4736C34.2815 11.7388 34.0104 11.8256 33.6444 11.6987C32.479 11.296 31.3089 10.9073 30.1361 10.528C29.8102 10.4225 29.6185 10.2201 29.515 9.90551C29.1337 8.74677 28.755 7.58736 28.3609 6.43263C28.2341 6.05996 28.3015 5.77545 28.584 5.49762C29.5631 4.53523 30.5282 3.55883 31.4959 2.58509C31.5767 2.50361 31.6962 2.44619 31.7203 2.28524ZM28.2647 24.527C26.9404 24.5224 25.8832 23.1626 26.4288 21.9657C26.7561 21.2478 26.5036 20.9466 26.0461 20.5739C26.0174 20.5506 25.9887 20.5252 25.968 20.4951C25.8217 20.2834 25.7069 20.2948 25.5192 20.4845C24.0579 21.9618 22.5806 23.423 21.1153 24.8963C20.8502 25.1635 20.3619 25.4099 20.3953 25.7185C20.4274 26.0184 20.8829 26.2675 21.1387 26.5506C21.2623 26.6869 21.3491 26.6895 21.5087 26.5913C22.3576 26.0671 23.3099 26.1739 23.9838 26.8498C24.6329 27.501 24.7391 28.4774 24.2322 29.2989C24.1367 29.4531 24.1301 29.5393 24.2643 29.6722C26.5951 31.9937 28.922 34.3192 31.2461 36.648C31.3931 36.7956 31.4812 36.8257 31.6495 36.6554C33.3212 34.969 35.0002 33.29 36.6872 31.6184C36.8575 31.4494 36.8347 31.3626 36.6825 31.2103C34.3543 28.8861 32.0302 26.558 29.71 24.2251C29.5778 24.0922 29.4956 24.0915 29.3467 24.1977C29.0261 24.4248 28.6574 24.5237 28.2647 24.527ZM32.6753 37.5102C34.0277 38.0084 35.6961 37.6451 36.6391 36.6273C37.7224 35.4586 38.079 33.8337 37.5347 32.6582C35.9238 34.2665 34.3036 35.8846 32.6753 37.5102Z" fill="#532E88" stroke="#532E88" stroke-width="0.5"/>
<path fill-rule="evenodd" clip-rule="evenodd" d="M4.33935 1.00202C5.85673 1.8649 7.37413 2.72777 8.89284 3.58865C9.12659 3.72088 9.24012 3.92991 9.30223 4.17769C9.37102 4.45285 9.47254 4.72468 9.50126 5.00384C9.60611 6.02033 10.1611 6.74026 10.8757 7.4355C13.1805 9.67684 15.4312 11.973 17.7119 14.239C17.915 14.4407 17.9424 14.5609 17.7126 14.7479C17.4835 14.9343 17.2865 15.3123 17.0695 15.3169C16.8598 15.3216 16.6367 14.9623 16.4283 14.7539C13.9699 12.2989 11.5155 9.83915 9.05179 7.38877C8.80401 7.14233 8.6484 6.87383 8.5716 6.53656C8.44337 5.97155 8.28574 5.41324 8.15617 4.84822C8.1141 4.66456 8.03331 4.55035 7.86702 4.45618C6.76037 3.8324 5.65838 3.19993 4.55908 2.56413C4.39145 2.46729 4.27791 2.43657 4.11962 2.60287C3.63543 3.11445 3.13588 3.612 2.62763 4.10021C2.47736 4.24446 2.49472 4.34667 2.58755 4.50696C3.22937 5.61761 3.86518 6.73157 4.49497 7.8489C4.58179 8.00318 4.69533 8.08067 4.86229 8.12074C5.47405 8.26701 6.08182 8.42662 6.69425 8.57155C6.94336 8.63032 7.14504 8.74652 7.3267 8.92818C9.94671 11.5542 12.5694 14.1776 15.1988 16.7943C15.3778 16.9726 15.4118 17.0754 15.2048 17.2491C14.969 17.4461 14.7747 17.8328 14.5383 17.8521C14.2925 17.8722 14.0868 17.4802 13.8691 17.2631C11.4628 14.8608 9.05846 12.4558 6.6575 10.0475C6.49454 9.8839 6.32157 9.7817 6.09249 9.72961C5.46737 9.58803 4.85095 9.40705 4.22584 9.26547C3.9086 9.19401 3.70555 9.01969 3.55061 8.7452C2.73715 7.30663 1.91637 5.87204 1.09957 4.43547C1.07486 4.39273 1.0595 4.34532 1.00073 4.34064C1.00073 4.2418 1.00073 4.14294 1.00073 4.04343C1.16169 3.83306 1.32062 3.62336 1.51229 3.43636C2.06528 2.89606 2.60626 2.3424 3.15524 1.79742C3.43774 1.51692 3.69556 1.2077 4.04351 1C4.14169 1.002 4.24051 1.00202 4.33935 1.00202Z" fill="#532E88" stroke="#532E88" stroke-width="0.5"/>
<path fill-rule="evenodd" clip-rule="evenodd" d="M32.0206 1.00195C31.5998 1.12016 31.1798 1.12818 30.759 1.00195C31.1798 1.00195 31.5998 1.00195 32.0206 1.00195Z" fill="#532E88" stroke="#532E88" stroke-width="0.5"/>
<path fill-rule="evenodd" clip-rule="evenodd" d="M8.64036 35.2135C8.04663 35.2135 7.45359 35.2055 6.85986 35.2168C6.5266 35.2228 6.29818 35.0859 6.13122 34.8048C5.53815 33.8083 4.94309 32.8132 4.34201 31.8221C4.16904 31.5369 4.17639 31.2731 4.3487 30.9893C4.95044 29.9982 5.54551 29.0031 6.1379 28.0066C6.29886 27.7355 6.52391 27.6093 6.83847 27.6106C8.03795 27.6146 9.23677 27.6152 10.4362 27.6099C10.7682 27.6085 10.9899 27.7515 11.1569 28.0347C11.7339 29.0117 12.3156 29.9862 12.9094 30.9532C13.1084 31.2771 13.097 31.563 12.9006 31.8835C12.3129 32.8399 11.7372 33.8036 11.1669 34.77C10.9859 35.0772 10.7482 35.2282 10.3842 35.2175C9.80246 35.2015 9.2214 35.2135 8.64036 35.2135ZM8.62366 33.9486C9.05644 33.9486 9.48991 33.9419 9.92201 33.9519C10.0977 33.9559 10.2078 33.9165 10.3053 33.7475C10.7174 33.0309 11.1482 32.325 11.5783 31.6191C11.6618 31.4815 11.6912 31.378 11.5937 31.2217C11.1575 30.5197 10.7341 29.8092 10.3167 29.0952C10.2245 28.9376 10.1203 28.8755 9.93535 28.8775C9.0698 28.8875 8.20358 28.8875 7.33803 28.8769C7.14969 28.8742 7.0482 28.9436 6.95737 29.0979C6.54463 29.7998 6.12656 30.4991 5.70046 31.193C5.60429 31.3486 5.59961 31.4654 5.69779 31.6251C6.12589 32.3176 6.54528 33.0162 6.95535 33.7195C7.05352 33.8878 7.15705 33.9633 7.36141 33.9539C7.7815 33.9345 8.20291 33.9486 8.62366 33.9486Z" fill="#532E88" stroke="#532E88" stroke-width="0.5"/>
<path fill-rule="evenodd" clip-rule="evenodd" d="M13.5399 27.5261C13.4037 27.3498 13.3422 27.2577 13.2681 27.1762C13.0691 26.9591 12.7211 26.7587 12.7031 26.5297C12.6844 26.2906 13.0584 26.0983 13.2654 25.8912C17.6058 21.5454 21.9516 17.2057 26.2854 12.8532C26.5211 12.6161 26.6453 12.6101 26.8424 12.8626C27.0153 13.0843 27.372 13.2753 27.376 13.4844C27.3793 13.6861 27.0414 13.9004 26.843 14.0988C22.4926 18.4512 18.1401 22.8024 13.791 27.1568C13.7042 27.243 13.6501 27.3618 13.5399 27.5261Z" fill="#532E88" stroke="#532E88" stroke-width="0.5"/>
<path fill-rule="evenodd" clip-rule="evenodd" d="M33.7793 32.8627C33.7313 32.9154 33.6938 32.9615 33.6518 33.0022C33.4047 33.242 33.1783 33.6354 32.9018 33.6748C32.6467 33.7109 32.4202 33.2774 32.1878 33.0457C30.3933 31.2578 28.6067 29.4613 26.8068 27.6787C26.6005 27.4744 26.5825 27.3548 26.8089 27.1692C27.0373 26.9822 27.233 26.6062 27.4514 26.6002C27.6591 26.5942 27.8815 26.9541 28.0899 27.1619C29.9091 28.9778 31.7263 30.7957 33.5436 32.6136C33.6217 32.6911 33.6952 32.7732 33.7793 32.8627Z" fill="#532E88" stroke="#532E88" stroke-width="0.5"/>
</svg>
