<svg width="42" height="42" viewBox="0 0 42 42" fill="none" xmlns="http://www.w3.org/2000/svg">
<path fill-rule="evenodd" clip-rule="evenodd" d="M36.311 41C36.1412 40.8437 35.9672 40.6937 35.8036 40.5312C33.2075 37.9382 30.6135 35.3432 28.0195 32.7481C27.5111 32.2397 27.5132 32.0022 28.0279 31.4834C28.3821 31.1261 28.382 31.1261 28.0205 30.7646C27.2663 30.0103 26.5048 29.2623 25.762 28.4966C25.5849 28.3142 25.4765 28.3237 25.2827 28.4675C22.3949 30.5948 19.1519 31.575 15.5724 31.4552C8.86232 31.2313 2.85332 26.2381 1.39275 19.678C1.25732 19.0686 1.15731 18.4539 1.08022 17.8351C1.07188 17.7643 1.10314 17.6736 1 17.6403C1 16.7027 1 15.7651 1 14.8275C1.10314 14.7941 1.0698 14.7035 1.08022 14.6327C1.16669 14.0941 1.20943 13.544 1.3459 13.019C3.0242 6.5308 7.134 2.58243 13.7066 1.21146C14.0795 1.13332 14.4765 1.18856 14.8275 1C15.713 1 16.5985 1 17.4841 1C18.0497 1.09793 18.6227 1.16875 19.1811 1.29793C25.4275 2.74496 29.4634 6.56409 31.0355 12.7647C32.1804 17.284 31.2011 21.4969 28.4675 25.2837C28.3268 25.4786 28.3143 25.5849 28.4977 25.763C29.3186 26.561 30.126 27.3736 30.9271 28.1903C31.0782 28.3445 31.1595 28.357 31.322 28.1987C32.1085 27.4382 32.1741 27.4444 32.9429 28.2122C35.4734 30.7416 38.0029 33.2711 40.5323 35.8026C40.6948 35.9651 40.8448 36.1412 41 36.311C41 36.4673 41 36.6235 41 36.7798C39.5936 38.1862 38.1872 39.5926 36.7808 40.999C36.6235 41 36.4673 41 36.311 41ZM16.2298 30.2166C23.9285 30.2187 30.2083 23.9451 30.2156 16.2453C30.2229 8.5466 23.9597 2.26886 16.2537 2.25115C8.54354 2.23344 2.247 8.52368 2.25013 16.2412C2.25221 23.9399 8.53 30.2156 16.2298 30.2166ZM32.1137 29.1758C32.0428 29.2425 31.9845 29.2936 31.9303 29.3478C31.074 30.2031 30.2239 31.0656 29.3582 31.9105C29.1779 32.0855 29.2029 32.171 29.3665 32.3345C31.6907 34.6473 34.0097 36.9673 36.3255 39.2894C36.4703 39.4342 36.5548 39.478 36.7215 39.3071C37.5778 38.4331 38.4435 37.5694 39.3155 36.712C39.4676 36.562 39.4436 36.4818 39.3051 36.3432C36.9642 34.0097 34.6275 31.6709 32.2898 29.3342C32.2377 29.2821 32.1793 29.2352 32.1137 29.1758ZM27.4736 26.5193C27.4111 26.5777 27.3643 26.6193 27.3195 26.6631C27.108 26.8746 26.9069 27.0975 26.6829 27.2943C26.5256 27.4319 26.5319 27.5153 26.6787 27.6601C27.4851 28.4529 28.2841 29.254 29.079 30.0582C29.2092 30.1905 29.2957 30.2447 29.4436 30.0749C29.6395 29.8499 29.8562 29.6416 30.076 29.4394C30.2104 29.3165 30.2229 29.2404 30.0812 29.1029C29.2655 28.3018 28.4602 27.4882 27.6507 26.6798C27.5986 26.6277 27.5403 26.5797 27.4736 26.5193Z" fill="#532E88" stroke="#532E88" stroke-width="0.5"/>
<path fill-rule="evenodd" clip-rule="evenodd" d="M16.2297 3.87744C23.0565 3.87536 28.5903 9.40717 28.5903 16.2318C28.5893 23.0586 23.0596 28.5915 16.2339 28.5936C9.41028 28.5956 3.87114 23.0565 3.87427 16.236C3.87739 9.40196 9.39986 3.87953 16.2297 3.87744ZM23.8242 24.3014C26.8818 21.5438 28.2998 16.7746 26.6506 12.3752C24.9025 7.71324 20.5062 4.88796 15.439 5.14736C10.8323 5.3828 6.66517 8.83838 5.47234 13.4357C4.33368 17.8258 6.08283 22.0991 8.64039 24.266C8.64039 24.1671 8.64039 24.0941 8.64039 24.0211C8.64352 22.5502 8.59246 21.0771 8.66018 19.6093C8.76957 17.2694 11.1729 15.8203 13.5721 16.7965C15.2984 17.4986 16.9725 17.6872 18.6498 16.8579C19.4738 16.4506 20.2937 16.4652 21.1136 16.5944C22.7377 16.8496 23.8097 18.1914 23.8212 19.8697C23.8326 21.324 23.8242 22.7794 23.8242 24.3014ZM9.89052 22.3606C9.89052 23.219 9.90302 24.0774 9.88426 24.9359C9.87801 25.239 9.95613 25.4307 10.2301 25.5921C14.2712 27.9778 18.2956 27.9653 22.3116 25.5359C22.4939 25.4255 22.5804 25.3057 22.5794 25.0744C22.5679 23.3315 22.5794 21.5886 22.571 19.8447C22.5637 18.1883 20.9677 17.2923 19.3707 17.956C17.3778 18.7842 15.4286 18.9352 13.4451 18.0737C12.9502 17.8591 12.4731 17.7653 11.947 17.781C10.7375 17.8164 9.903 18.6467 9.89154 19.8624C9.88425 20.6959 9.89156 21.5282 9.89052 22.3606Z" fill="#532E88" stroke="#532E88" stroke-width="0.5"/>
<path fill-rule="evenodd" clip-rule="evenodd" d="M20.8751 11.6501C20.8793 14.2014 18.7936 16.2995 16.2475 16.3078C13.6858 16.3151 11.5783 14.2045 11.5877 11.6417C11.5971 9.08312 13.6774 7.01312 16.236 7.01416C18.7936 7.01416 20.8709 9.09042 20.8751 11.6501ZM19.6229 11.6688C19.6312 9.80713 18.1279 8.27783 16.2746 8.26429C14.3713 8.25075 12.8347 9.77068 12.8409 11.6615C12.8461 13.52 14.3557 15.04 16.209 15.0546C18.0738 15.0691 19.6135 13.5429 19.6229 11.6688Z" fill="#532E88" stroke="#532E88" stroke-width="0.5"/>
</svg>
