<svg width="42" height="42" viewBox="0 0 42 42" fill="none" xmlns="http://www.w3.org/2000/svg">
<path fill-rule="evenodd" clip-rule="evenodd" d="M40.9948 15.8385C40.8258 16.0826 40.8649 16.3766 40.8053 16.6461C40.4977 18.0407 39.7427 19.1687 38.7515 20.1609C32.1965 26.7247 25.6416 33.2894 19.0857 39.8531C18.4597 40.4801 17.7263 40.8902 16.8161 40.9156C16.7614 40.9176 16.7155 40.9294 16.7018 40.9909C16.5973 40.9909 16.4938 40.9909 16.3893 40.9909C16.3639 40.9665 16.3404 40.9225 16.3131 40.9195C15.4107 40.8453 14.6958 40.4088 14.0708 39.7828C10.1068 35.8149 6.13983 31.8499 2.17288 27.8839C1.80177 27.5138 1.49026 27.1026 1.27639 26.6202C1.1631 26.3653 1.16993 26.0704 1 25.837C1 25.5245 1 25.2119 1 24.8994C1.09961 24.6132 1.18459 24.3213 1.3008 24.042C1.50296 23.5537 1.83693 23.1562 2.20707 22.786C7.7903 17.2116 13.3716 11.6362 18.9538 6.06269C19.0622 5.95429 19.1804 5.85664 19.3171 5.73261C17.2194 5.1613 12.7241 4.45816 11.2016 4.8488C11.5766 5.24726 12.0346 5.48457 12.478 5.73165C13.2612 6.16722 14.0855 6.51782 14.9136 6.85866C15.0455 6.91335 15.1783 6.96998 15.2974 7.04616C15.5865 7.23073 15.6891 7.56765 15.5601 7.86063C15.4293 8.15654 15.0934 8.35379 14.7896 8.23172C13.1763 7.58228 11.5404 6.96311 10.2259 5.7658C9.85482 5.42789 9.56576 5.00991 9.74936 4.45325C9.96421 3.80088 10.5218 3.60752 11.1107 3.50497C12.2504 3.30575 13.396 3.3868 14.5338 3.52352C19.239 4.09191 23.7802 5.31657 28.1954 7.01878C29.6017 7.5608 30.9807 8.17023 32.1594 9.14585C32.3918 9.33824 32.595 9.55991 32.7561 9.81188C33.1068 10.3568 32.9827 10.9516 32.4417 11.3051C31.9817 11.6059 31.4602 11.7123 30.9182 11.7006C30.5685 11.6928 30.3644 11.4613 30.3195 11.1391C30.2736 10.8129 30.4192 10.5492 30.7522 10.4428C30.9739 10.3724 31.2063 10.3363 31.4797 10.2748C30.8674 9.72791 30.1652 9.39683 29.4777 9.04428C29.2775 8.94076 29.2648 9.13414 29.2169 9.23083C28.5646 10.5571 29.2716 12.2866 30.673 12.8081C32.1516 13.3579 33.7298 12.5835 34.1879 11.0834C34.6273 9.6439 33.7396 8.11064 32.2444 7.74246C32.0188 7.6868 31.7806 7.67996 31.5501 7.64285C31.1907 7.58523 30.9944 7.36549 30.9885 7.0061C30.9827 6.64378 31.1819 6.4172 31.5354 6.35762C31.9553 6.28633 32.3665 6.38303 32.764 6.49729C34.9144 7.11744 36.1498 9.49938 35.4262 11.6137C34.6937 13.7544 32.304 14.8766 30.2101 14.063C28.0675 13.23 27.0587 10.8197 27.9952 8.73079C28.1134 8.46809 28.0607 8.40169 27.8155 8.30305C25.6572 7.4329 23.4354 6.76097 21.1931 6.14962C20.9324 6.07833 20.7742 6.12129 20.5848 6.3127C18.9343 7.97683 17.2731 9.62828 15.6148 11.2846C11.4418 15.4518 7.2688 19.6189 3.09774 23.7871C2.30669 24.5771 2.14556 25.5069 2.64167 26.3663C2.76668 26.5831 2.93661 26.7618 3.11142 26.9366C7.08815 30.9133 11.0639 34.8911 15.0416 38.8658C16.026 39.8493 17.2116 39.8433 18.2009 38.853C24.7148 32.3323 31.2189 25.8018 37.7465 19.2956C39.0503 17.9958 39.6763 16.4938 39.6539 14.651C39.6129 11.3315 39.6421 8.01201 39.6421 4.69254C39.6421 3.10165 38.8658 2.3311 37.2671 2.3311C33.9476 2.3311 30.6271 2.3565 27.3086 2.32037C25.5928 2.30181 24.1181 2.78915 22.8973 4.01674C22.4706 4.44546 21.9452 4.40934 21.7226 3.97573C21.5458 3.63099 21.6727 3.35068 21.9286 3.10165C23.038 2.02348 24.3105 1.26369 25.8769 1.07716C25.9316 1.07032 25.9805 1.06055 25.9971 1C30.0588 1 34.1205 1 38.1832 1C38.1988 1.08985 38.2729 1.06835 38.3325 1.08202C39.3931 1.33398 40.1627 1.95123 40.653 2.92588C40.82 3.25792 40.8483 3.63195 40.9958 3.96791C40.9958 4.04603 40.9958 4.12415 40.9958 4.20228C40.862 4.29896 40.9216 4.44157 40.9216 4.56169C40.9176 7.99347 40.9176 11.4262 40.9216 14.858C40.9216 14.9781 40.8571 15.1207 40.9958 15.2164C40.9948 15.4215 40.9948 15.6305 40.9948 15.8385Z" fill="#532E88" stroke="#532E88" stroke-width="0.7"/>
<path fill-rule="evenodd" clip-rule="evenodd" d="M40.995 15.2138C40.8563 15.1191 40.9207 14.9755 40.9207 14.8554C40.9168 11.4236 40.9168 7.99182 40.9207 4.55907C40.9207 4.43797 40.8612 4.29639 40.995 4.19971C40.995 7.87173 40.995 11.5428 40.995 15.2138Z" fill="#532E88" stroke="#532E88" stroke-width="0.7"/>
<path fill-rule="evenodd" clip-rule="evenodd" d="M15.5356 28.9849C15.018 28.9722 14.5326 28.8374 14.0912 28.5738C13.9125 28.4673 13.7875 28.4732 13.6625 28.6373C13.6156 28.6988 13.5541 28.7496 13.4936 28.7994C13.1791 29.0562 12.7992 29.0503 12.5482 28.7857C12.3079 28.5327 12.2757 28.1324 12.5658 27.8795C12.892 27.5953 12.8265 27.3794 12.6693 27.0317C12.2015 25.9985 12.2571 24.9633 12.8333 23.973C13.096 23.5209 13.4701 23.3841 13.8265 23.596C14.1703 23.8002 14.2289 24.1683 13.9906 24.6215C13.4183 25.7114 13.7426 26.9048 14.7739 27.4283C15.5112 27.8023 16.2397 27.7475 16.897 27.2436C17.5669 26.7289 17.8072 26.0326 17.6158 25.2045C17.4878 24.6547 17.2027 24.1742 16.9341 23.684C16.2847 22.4964 16.1225 21.2805 16.7974 20.0441C17.6548 18.4728 19.6686 17.877 21.2429 18.7345C21.4656 18.8556 21.5974 18.8615 21.7595 18.6622C21.9089 18.4796 22.1033 18.3361 22.3582 18.3409C22.6463 18.3468 22.8514 18.4933 22.9676 18.7531C23.1053 19.0607 22.9939 19.3293 22.7654 19.5255C22.5154 19.7394 22.5134 19.9084 22.6677 20.2013C23.3074 21.4114 23.0603 22.9505 22.1042 23.9584C21.8288 24.2494 21.4469 24.2923 21.1647 24.0657C20.8639 23.8245 20.8171 23.4368 21.1003 23.0999C21.5046 22.6204 21.7546 22.094 21.6716 21.4602C21.5632 20.6252 21.0993 20.0432 20.3014 19.7746C19.528 19.5148 18.8248 19.7062 18.2633 20.2844C17.65 20.9162 17.563 21.6799 17.8511 22.4905C18.0865 23.1517 18.5191 23.7171 18.7603 24.3812C19.3961 26.1313 18.7574 27.8316 17.1187 28.6656C16.6235 28.9185 16.0883 29.0005 15.5356 28.9849Z" fill="#532E88" stroke="#532E88" stroke-width="0.7"/>
</svg>
