<svg width="86" height="81" viewBox="0 0 86 81" fill="none" xmlns="http://www.w3.org/2000/svg">
<path fill-rule="evenodd" clip-rule="evenodd" d="M7.893e-08 73.8847C0.300671 73.4546 0.238488 72.9356 0.344311 72.4585C1.72505 66.2183 7.47476 61.1809 13.8796 60.5997C13.9484 60.593 14.0139 60.5459 14.3247 60.4132C10.9938 59.7581 8.50443 58.1757 6.90533 55.3908C5.30623 52.6041 5.10473 49.668 6.25198 46.6764C7.98378 42.1579 12.8818 39.5207 17.6539 40.4899C22.5 41.4742 25.9014 45.8953 25.6814 50.9244C25.4731 55.6982 21.6752 59.7698 16.8896 60.346C16.935 60.5274 17.0526 60.5828 17.2357 60.5979C20.7228 60.8868 23.7648 62.2373 26.3583 64.5604C26.8991 65.0441 27.1192 64.8846 27.4938 64.4327C30.8297 60.4014 35.1231 58.0667 40.2765 57.2823C40.5519 57.2403 40.8341 57.2385 41.1129 57.2166C41.543 57.2872 41.9697 57.3275 42.4685 57.0419C41.9495 56.9227 41.548 56.8757 41.1399 56.9278C35.6589 56.3684 30.7407 51.6501 29.7682 46.0214C28.5386 38.8993 33.0469 32.135 40.0833 30.5443C47.7143 28.8192 55.2126 34.0499 56.2859 41.8455C57.2652 48.9608 52.431 55.6092 45.3543 56.8791C45.1896 56.9093 45.0201 56.9127 44.8538 56.9278C44.4355 56.8908 44.0256 56.9042 43.6342 57.0974C44.0457 57.2687 44.4574 57.3074 44.8807 57.215C50.1886 57.7156 54.591 59.9983 58.1218 63.9743C59.0423 65.0107 59.0021 65.009 60.0553 64.1557C62.6135 62.0846 65.5395 60.8801 68.8772 60.4652C65.5244 59.6959 62.8957 57.9507 61.3655 54.8416C59.8285 51.7206 59.9041 48.5661 61.562 45.5124C63.8263 41.3416 68.716 39.3645 73.2495 40.7133C77.768 42.0588 80.7528 46.3892 80.4269 51.1244C80.1011 55.841 76.4965 59.6254 71.6303 60.3594C71.7042 60.5291 71.8301 60.5846 72.0216 60.5997C79.0411 61.1137 86.2103 67.4563 85.9953 76.117C85.9734 76.9838 86.0087 77.852 85.9886 78.7188C85.96 79.9265 85.3133 80.5598 84.1005 80.5985C83.8771 80.6052 83.652 80.6001 83.4286 80.6001C56.5614 80.6001 29.6959 80.5967 2.82863 80.6152C1.72505 80.6169 0.723923 80.5447 0.00164044 79.5923C-3.92896e-05 77.6925 7.893e-08 75.7895 7.893e-08 73.8847ZM42.9523 77.2441C48.3274 77.2441 53.7009 77.234 59.0744 77.2592C59.664 77.2626 59.8252 77.1264 59.7832 76.5284C59.6606 74.7882 59.3481 73.0952 58.7501 71.4558C56.0272 63.9978 48.3391 59.4456 40.4931 60.6466C32.5934 61.856 26.5968 68.5044 26.2155 76.4411C26.1835 77.0946 26.3297 77.2658 26.9982 77.2625C32.3146 77.2306 37.6326 77.2441 42.9523 77.2441ZM32.921 43.6579C32.9244 49.2078 37.4714 53.7414 43.0212 53.7279C48.5357 53.7145 53.0509 49.2043 53.0694 43.6898C53.0895 38.1416 48.5591 33.5863 43.011 33.5779C37.4629 33.5711 32.9176 38.1098 32.921 43.6579ZM13.0397 77.2441C16.0884 77.2441 19.1388 77.234 22.1875 77.2541C22.6561 77.2575 22.8611 77.1971 22.8796 76.6427C22.9736 73.8208 23.5867 71.1131 24.8431 68.5717C25.0363 68.1803 25.0565 67.9065 24.6903 67.5588C21.393 64.4294 17.5129 63.2317 13.0582 64.1052C7.85444 65.1248 3.04705 69.9003 3.341 76.4344C3.36955 77.0542 3.46022 77.2744 4.14387 77.2643C7.11027 77.2189 10.075 77.2441 13.0397 77.2441ZM72.8363 77.2441C75.885 77.2441 78.9337 77.2457 81.9841 77.2407C82.2881 77.2407 82.656 77.3818 82.6442 76.7973C82.6173 75.5677 82.6611 74.3347 82.3402 73.1321C81.1107 68.5262 78.1577 65.5413 73.6057 64.2933C68.9444 63.0167 64.8442 64.258 61.3218 67.5335C60.9204 67.9081 60.9657 68.202 61.1706 68.6186C62.3985 71.1113 63.0032 73.7636 63.1074 76.5268C63.1292 77.0962 63.2686 77.2643 63.8582 77.2576C66.8497 77.2256 69.8431 77.2441 72.8363 77.2441ZM22.332 50.355C22.3169 46.6882 19.2278 43.6243 15.5811 43.6596C11.9378 43.6932 8.92943 46.7084 8.90591 50.3467C8.8824 53.9984 11.9512 57.0806 15.6147 57.0839C19.2749 57.089 22.3471 54.0101 22.332 50.355ZM77.0844 50.4272C77.1348 46.7856 74.0811 43.6898 70.4058 43.6579C66.7877 43.626 63.7474 46.6058 63.6584 50.2727C63.571 53.9009 66.6029 57.0134 70.2933 57.0839C73.9299 57.1545 77.034 54.1092 77.0844 50.4272Z" fill="#532E88"/>
<path fill-rule="evenodd" clip-rule="evenodd" d="M34.0104 23.8757C34.3766 21.6988 34.7444 19.4093 35.1627 17.1299C35.2416 16.7049 35.1392 16.4648 34.8503 16.1876C33.3167 14.7145 31.8117 13.2128 30.2747 11.7431C29.6801 11.1753 29.3341 10.5387 29.6079 9.72903C29.8833 8.91268 30.5653 8.64899 31.3698 8.54149C33.4191 8.26938 35.4634 7.95356 37.5127 7.67473C37.9998 7.60922 38.2786 7.40091 38.497 6.9373C39.399 5.01906 40.3648 3.13276 41.2786 1.22123C41.6213 0.505668 42.1033 0.00678596 42.9213 6.70536e-05C43.7444 -0.00665185 44.2332 0.492214 44.5759 1.20442C45.493 3.11427 46.4555 5.00401 47.3525 6.92394C47.586 7.42449 47.9134 7.61595 48.4207 7.68482C50.47 7.96365 52.5143 8.27102 54.5635 8.54986C55.3345 8.65568 55.9762 8.93115 56.25 9.71558C56.5372 10.5386 56.1894 11.1685 55.6015 11.7346C54.1301 13.1523 52.7007 14.612 51.199 15.9945C50.7119 16.4429 50.6381 16.8763 50.7456 17.4642C51.1151 19.4967 51.4477 21.5375 51.8189 23.5717C51.9583 24.3326 51.7953 24.9759 51.1772 25.4362C50.5809 25.8796 49.9191 25.8393 49.2775 25.5034C47.3491 24.4972 45.4175 23.4961 43.5026 22.4614C43.0911 22.238 42.7836 22.2346 42.3671 22.4597C40.4538 23.4961 38.5306 24.514 36.5888 25.4966C35.2736 26.1652 33.9583 25.3724 34.0104 23.8757ZM37.9141 21.005C39.2042 20.3314 40.4152 19.7604 41.5625 19.0818C42.5115 18.5191 43.3497 18.5174 44.3005 19.0818C45.436 19.757 46.642 20.3164 47.9455 20.995C47.7725 19.9217 47.7355 18.9793 47.4567 18.1142C46.8369 16.1876 47.2835 14.7179 48.9246 13.5068C49.6822 12.9491 50.2685 12.1596 50.9723 11.4339C49.5344 11.2256 48.1839 10.9972 46.8233 10.846C45.8273 10.7352 45.2076 10.2582 44.8027 9.33936C44.2417 8.06613 43.5831 6.83659 42.9247 5.49953C42.2377 6.90882 41.586 8.22398 40.9544 9.55097C40.6151 10.2615 40.1112 10.6848 39.3016 10.7889C37.8486 10.9754 36.4024 11.219 35.067 11.4206C36.0412 12.467 37.0087 13.5421 38.0166 14.5768C38.5675 15.1428 38.8145 15.7391 38.6633 16.5404C38.3912 17.9883 38.1745 19.4445 37.9141 21.005Z" fill="#532E88"/>
<path fill-rule="evenodd" clip-rule="evenodd" d="M7.50999 32.3264C7.70988 31.1809 7.93162 29.8018 8.19869 28.4328C8.31963 27.8096 8.22055 27.346 7.71159 26.8959C6.74911 26.0443 5.86384 25.107 4.93496 24.2184C4.37729 23.6859 4.15056 23.056 4.38404 22.322C4.62256 21.5661 5.23394 21.2604 5.9747 21.1563C7.24625 20.9782 8.51784 20.7833 9.79107 20.6271C10.3555 20.5565 10.73 20.3684 10.982 19.7889C11.5027 18.5896 12.1376 17.439 12.7071 16.2598C13.038 15.5761 13.5302 15.1226 14.3146 15.1142C15.1041 15.1059 15.6046 15.5644 15.9372 16.2397C16.5267 17.4407 17.1432 18.6299 17.6892 19.8494C17.9142 20.3516 18.2401 20.5448 18.7507 20.6104C20.0256 20.7716 21.2938 20.9832 22.5671 21.1411C23.3818 21.2419 24.0301 21.5661 24.2888 22.3808C24.5391 23.1686 24.1779 23.7817 23.6152 24.3192C22.6645 25.2263 21.739 26.1601 20.7798 27.0588C20.4439 27.3729 20.3045 27.6517 20.4086 28.1439C20.6925 29.4809 20.8941 30.8365 21.1259 32.1837C21.2552 32.9278 21.104 33.5862 20.4657 34.0464C19.8593 34.4848 19.221 34.453 18.5726 34.1086C17.3918 33.4804 16.1841 32.8975 15.0285 32.2256C14.4943 31.9149 14.0929 31.9602 13.5839 32.2475C12.3947 32.9177 11.1903 33.5677 9.95904 34.1573C8.68245 34.7671 7.44616 33.9373 7.50999 32.3264ZM9.55757 24.0353C11.7127 25.4345 12.3173 27.2419 11.2625 29.5868C12.4736 29.2223 13.2345 28.3556 14.3112 28.3405C15.3913 28.3253 16.1522 29.2441 17.1701 29.5011C17.2222 28.4025 16.5772 27.4115 16.9551 26.3852C17.3213 25.3892 18.3778 24.9339 19.0615 23.9126C16.4881 24.1864 14.9831 23.0392 14.3212 20.565C13.6628 23.0376 12.1443 24.1864 9.55757 24.0353Z" fill="#532E88"/>
<path fill-rule="evenodd" clip-rule="evenodd" d="M64.6086 32.3633C64.8051 31.2328 65.0185 29.8806 65.2788 28.5385C65.4082 27.8683 65.3644 27.3476 64.7765 26.8487C63.8191 26.0357 62.9658 25.1036 62.0537 24.2351C61.4692 23.6792 61.2358 23.0257 61.5045 22.2647C61.7682 21.5223 62.3948 21.2452 63.1355 21.1477C64.4088 20.9781 65.6786 20.7799 66.9518 20.617C67.4877 20.5481 67.8353 20.3533 68.0738 19.809C68.5979 18.6114 69.2296 17.4591 69.799 16.2799C70.1282 15.5979 70.6087 15.131 71.3931 15.1159C72.2195 15.0991 72.7217 15.5845 73.0626 16.2951C73.6304 17.4759 74.2385 18.6382 74.7827 19.8291C75.0028 20.3129 75.3002 20.5481 75.8293 20.6103C77.1042 20.7631 78.3723 20.9815 79.6472 21.1394C80.4585 21.2402 81.1136 21.5458 81.384 22.3588C81.6444 23.1449 81.2983 23.7631 80.7339 24.3023C79.7446 25.2497 78.7754 26.2206 77.7793 27.1612C77.5055 27.4199 77.4149 27.6567 77.4905 28.0397C77.7592 29.4087 77.981 30.7877 78.2245 32.1618C78.3555 32.9059 78.2178 33.566 77.5879 34.0363C76.9563 34.5083 76.2912 34.4445 75.6193 34.0867C74.3897 33.43 73.1467 32.7967 71.9255 32.1265C71.5694 31.9316 71.2906 31.93 70.9328 32.1265C69.6612 32.8219 68.3847 33.514 67.0812 34.1455C65.803 34.7637 64.5599 33.9557 64.6086 32.3633ZM68.3527 29.5951C69.5873 29.2121 70.3483 28.3421 71.43 28.3404C72.505 28.3387 73.261 29.2222 74.4788 29.5749C73.4054 27.2065 74.0807 25.4193 76.1938 23.9898C73.5415 24.2519 72.1238 22.9871 71.4133 20.5717C70.7582 23.0408 69.2362 24.1814 66.631 24.0537C68.8768 25.4093 69.3857 27.2233 68.3527 29.5951Z" fill="#532E88"/>
<path fill-rule="evenodd" clip-rule="evenodd" d="M41.1382 56.9309C41.5481 56.8789 41.9478 56.926 42.4668 57.0453C41.968 57.3308 41.5413 57.2888 41.1113 57.22C41.1214 57.1225 41.1298 57.0267 41.1382 56.9309Z" fill="#532E88"/>
<path fill-rule="evenodd" clip-rule="evenodd" d="M44.8796 57.2189C44.4564 57.3112 44.0448 57.2727 43.6333 57.1014C44.0247 56.9082 44.4345 56.8947 44.8527 56.9316C44.8628 57.0274 44.8712 57.1231 44.8796 57.2189Z" fill="#532E88"/>
</svg>
