<svg width="98" height="87" viewBox="0 0 98 87" fill="none" xmlns="http://www.w3.org/2000/svg">
<path fill-rule="evenodd" clip-rule="evenodd" d="M51.2317 86.9305C49.1351 86.355 47.034 85.784 44.9396 85.1993C39.1339 83.5777 33.3191 81.9926 27.534 80.3025C25.273 79.6425 23.1947 79.7589 21.194 81.0174C20.8583 81.2275 20.5019 81.4079 20.1388 81.57C18.9306 82.1113 17.8983 82.664 18.0399 84.3495C18.1198 85.3042 17.3022 85.9117 16.2927 85.8912C11.5148 85.793 6.73915 85.6858 1.96352 85.5305C0.59546 85.4848 -0.0371439 84.7288 0.00168234 83.3265C0.232356 74.7504 0.481279 66.1743 0.721088 57.5983C0.771334 55.826 0.798705 54.0514 0.855802 52.2791C0.903764 50.7626 1.57759 50.1231 3.10323 50.1573C7.59109 50.2601 12.0789 50.3699 16.5645 50.4932C18.5013 50.5457 19.0586 51.1783 18.9855 53.1219C18.9581 53.8436 18.9809 54.5675 18.9809 55.3806C20.9588 54.4465 22.9937 53.6517 25.1588 53.2314C30.4049 52.2128 35.5049 52.6925 40.2417 55.1797C43.5351 56.9086 46.9174 57.7878 50.6219 57.7696C54.1323 57.7513 57.6428 57.9273 61.1508 58.0301C65.3189 58.1534 68.5802 59.9508 70.8549 63.4452C71.2364 64.0299 71.499 64.0754 72.0928 63.7922C76.6834 61.5974 81.2742 59.4026 85.8945 57.274C90.0832 55.3441 95.0005 56.7967 97.4557 60.6039C98.3441 61.9811 98.1635 62.8947 96.7772 63.7922C86.1593 70.6645 75.5576 77.5573 64.9032 84.3747C62.6581 85.8113 60.0384 86.3503 57.4074 86.7157C57.2155 86.7431 56.9576 86.6267 56.8777 86.9327C54.998 86.9305 53.1136 86.9305 51.2317 86.9305ZM93.5365 61.5358C91.4398 59.9119 89.3546 59.6537 87.1141 60.7112C82.6445 62.8215 78.1885 64.9661 73.7007 67.0376C72.8396 67.435 72.4355 67.7686 72.6388 68.8511C72.9928 70.7308 72.2757 71.8385 70.0306 71.754C63.5557 71.5142 57.0764 71.3885 50.5969 71.2127C49.9826 71.1944 49.3566 71.1966 48.7582 71.0733C47.8173 70.8791 47.3285 70.1941 47.3674 69.2691C47.4062 68.351 47.9247 67.7137 48.8885 67.5698C49.2425 67.5173 49.6102 67.5424 49.9711 67.5515C55.9778 67.7091 61.9867 67.8599 67.9934 68.0449C68.7631 68.0677 68.8954 67.9124 68.6464 67.1679C67.6301 64.1212 64.7935 61.8624 61.6234 61.7253C59.0198 61.6111 56.4117 61.5723 53.808 61.49C51.4556 61.4147 49.1009 61.3896 46.7554 61.2228C43.7726 61.0082 41.1803 59.6218 38.515 58.3885C32.0562 55.3989 25.7 55.746 19.5175 59.302C18.9717 59.6149 18.7822 59.9691 18.7685 60.5789C18.7022 63.6553 18.5606 66.7293 18.5104 69.808C18.4647 72.6172 18.5013 75.4288 18.5013 78.2539C18.9672 78.2014 19.4239 77.8222 19.9172 77.5527C22.4912 76.1504 25.1725 75.8673 27.9908 76.6713C31.5994 77.7013 35.2056 78.7495 38.8348 79.7019C43.1285 80.8279 47.3035 82.4723 51.7115 83.0776C56.2313 83.6988 60.5547 82.9633 64.4647 80.3665C68.4387 77.7286 72.4697 75.1797 76.4757 72.5875C82.1169 68.9309 87.7559 65.2791 93.5365 61.5358ZM14.9178 68.1225C14.9156 68.1225 14.911 68.1225 14.9087 68.1225C15.0297 63.7123 15.1371 59.3021 15.2855 54.8942C15.3061 54.2821 15.1667 54.1039 14.5432 54.0948C11.4714 54.0491 8.39725 53.9578 5.32769 53.8642C4.80468 53.8482 4.48036 53.839 4.46209 54.5516C4.23141 63.4428 3.97108 72.334 3.69473 81.2252C3.67646 81.8213 3.87285 81.94 4.41413 81.9514C7.52252 82.0108 10.6309 82.0909 13.7393 82.2006C14.3308 82.2211 14.5363 82.1023 14.55 81.4605C14.646 77.0138 14.7877 72.5692 14.9178 68.1225Z" fill="#532E88"/>
<path fill-rule="evenodd" clip-rule="evenodd" d="M50.0797 52.8768C35.4354 52.8311 23.5911 40.9252 23.6711 26.3288C23.751 11.7576 35.641 -0.0387307 50.21 9.55701e-05C64.8475 0.0389218 76.7101 11.97 76.6165 26.5572C76.5228 41.1605 64.6647 52.9225 50.0797 52.8768ZM50.0936 49.2478C62.6299 49.3003 72.9049 39.0935 72.9506 26.5481C72.9963 13.9181 62.8284 3.68631 50.1962 3.65433C37.6324 3.62236 27.3846 13.7925 27.3367 26.3402C27.2887 38.9542 37.4613 49.1929 50.0936 49.2478Z" fill="#532E88"/>
<path fill-rule="evenodd" clip-rule="evenodd" d="M46.0137 20.405C46.0388 22.4103 47.4823 24.0707 49.4648 24.4019C50.3555 24.5503 51.2644 24.5046 52.1506 24.7467C55.3595 25.6237 57.6343 28.346 57.9243 31.7148C58.1938 34.8506 56.3575 38.0914 53.3701 39.2996C52.1437 39.7975 51.5247 40.2955 51.6708 41.7024C51.7713 42.6799 50.8945 43.4084 49.9604 43.4381C49.0308 43.4655 48.2588 42.778 48.1263 41.7914C48.0921 41.5424 48.0669 41.2822 48.0989 41.0333C48.2108 40.1768 47.9254 39.7337 47.0552 39.3614C44.1706 38.1349 42.661 35.8282 42.3595 32.7381C42.2316 31.4203 42.9761 30.493 44.0975 30.4473C45.1778 30.4016 45.8995 31.169 46.0137 32.4823C46.2147 34.821 47.9321 36.3924 50.2617 36.3718C52.3606 36.3535 54.1352 34.6658 54.2676 32.5646C54.407 30.3355 52.9247 28.4489 50.6431 28.1886C48.9758 27.999 47.3452 27.8368 45.9087 26.8593C43.3895 25.1441 42.154 22.7438 42.3869 19.7382C42.629 16.6412 44.2825 14.3938 47.1557 13.1674C47.8705 12.8613 48.2177 12.5575 48.1035 11.7764C48.0578 11.4589 48.0898 11.1233 48.1355 10.8035C48.2702 9.87169 49.0147 9.21851 49.9099 9.21851C50.8441 9.21623 51.7601 9.94248 51.6641 10.904C51.5248 12.3177 52.1619 12.7973 53.3724 13.3135C56.2113 14.5217 57.6455 16.8741 57.9219 19.9208C58.0338 21.1656 57.3052 22.0768 56.2295 22.1613C55.1766 22.2458 54.3797 21.435 54.2701 20.1697C54.0645 17.7853 52.203 16.0679 49.9648 16.1958C47.6923 16.3237 45.984 18.144 46.0137 20.405Z" fill="#532E88"/>
</svg>
