<svg width="86" height="86" viewBox="0 0 86 86" fill="none" xmlns="http://www.w3.org/2000/svg">
<path fill-rule="evenodd" clip-rule="evenodd" d="M0 67.8552C0 51.0588 0 34.2625 0 17.4661C0.181425 17.4325 0.168026 17.2735 0.208342 17.148C1.49624 13.197 4.08765 11.3245 8.27387 11.3245C12.3862 11.3245 16.4962 11.3088 20.6085 11.3402C21.3185 11.3446 21.7509 11.1497 22.1921 10.5584C26.1992 5.18286 31.5008 1.82542 38.0747 0.472571C38.8206 0.318023 39.6134 0.376289 40.3122 0C41.9921 0 43.6721 0 45.3519 0C45.4079 0.049276 45.4594 0.13655 45.5221 0.14327C53.2987 0.967522 59.4426 4.61618 64.0544 10.8899C64.359 11.3043 64.706 11.329 65.1338 11.329C69.8867 11.3223 74.6418 11.3245 79.3947 11.3267C82.8799 11.3267 84.9138 12.8632 85.8747 16.2073C85.8859 16.2454 85.9574 16.2655 86 16.2947C86 33.483 86 50.6714 86 67.8598C85.6192 68.2585 85.6261 68.8139 85.4267 69.2887C84.1679 72.2744 81.4577 73.9944 77.8874 73.9989C70.393 74.0101 62.8986 74.0102 55.4042 73.9878C54.7546 73.9855 54.5776 74.1626 54.5417 74.8032C54.4118 77.1348 54.6471 79.4306 55.0033 81.7287C55.1287 82.535 55.4535 82.6715 56.1881 82.6581C58.9274 82.6111 61.6689 82.6379 64.4105 82.6402C65.4542 82.6424 66.1015 83.0278 66.3456 83.7804C66.6077 84.5935 66.3075 85.2563 65.4048 85.8656C65.369 85.8902 65.3624 85.9528 65.3423 85.9999C50.4497 85.9999 35.5571 85.9999 20.6623 85.9999C19.8918 85.4556 19.3497 84.8038 19.6611 83.778C19.9074 82.9739 20.566 82.6402 21.8494 82.6402C24.5931 82.6402 27.3347 82.6269 30.0785 82.6515C30.5556 82.656 30.7392 82.544 30.8221 82.0467C31.223 79.6927 31.3955 77.3342 31.288 74.9443C31.2544 74.2051 31.0685 73.9789 30.2935 73.9834C22.9044 74.017 15.5152 74.0101 8.12382 73.9989C4.12351 73.9922 1.44021 72.0234 0.23295 68.2583C0.185914 68.1082 0.221742 67.9022 0 67.8552ZM66.4867 14.6864C66.4733 14.8163 66.4465 14.8768 66.4644 14.9239C66.5293 15.1075 66.6054 15.2867 66.6838 15.4659C68.6167 19.8738 69.273 24.4722 68.6615 29.2363C66.8115 43.6585 53.2494 53.7467 38.8788 51.4172C22.1832 48.7115 12.5049 30.9565 19.3118 15.5018C19.5783 14.897 19.6208 14.6618 18.8123 14.6685C15.1726 14.7066 11.5328 14.6775 7.89535 14.6887C5.10902 14.6977 3.36191 16.4716 3.36191 19.2781C3.35967 32.1839 3.36867 45.0874 3.34179 57.9932C3.33955 58.7301 3.56352 58.8309 4.22426 58.8309C30.0628 58.813 55.9014 58.813 81.74 58.8309C82.441 58.8309 82.6626 58.7144 82.6604 57.9462C82.6313 44.5924 82.6403 31.2387 82.6403 17.8871C82.6403 15.6809 81.6347 14.6887 79.3993 14.6864C75.5356 14.6864 71.6719 14.6864 67.8105 14.6864C67.3647 14.6864 66.9212 14.6864 66.4867 14.6864ZM42.9933 62.1751C30.148 62.1751 17.3004 62.1751 4.45503 62.1751C4.26016 62.1751 4.06079 62.1952 3.86817 62.1705C3.4538 62.119 3.34633 62.2982 3.35305 62.6924C3.37545 64.0072 3.3351 65.3242 3.37766 66.639C3.41126 67.6828 3.84804 68.581 4.5715 69.3358C5.60406 70.4109 6.90982 70.6438 8.32987 70.6438C31.447 70.6348 54.5643 70.6371 77.6814 70.6348C78.0443 70.6348 78.4092 70.6236 78.7698 70.5878C81.0029 70.3616 82.5978 68.6258 82.6359 66.3748C82.6538 65.284 82.5843 64.1887 82.6582 63.1023C82.712 62.3162 82.4476 62.1572 81.6995 62.1572C68.7982 62.1818 55.8947 62.1751 42.9933 62.1751ZM51.7621 82.6045C51.2648 79.8674 50.9849 77.1505 51.2179 74.4023C51.2649 73.8513 50.8819 74.0013 50.6109 74.0013C45.4952 73.9946 40.3772 74.0058 35.2615 73.9834C34.6926 73.9812 34.5671 74.1446 34.6097 74.6844C34.8068 77.1213 34.641 79.5492 34.2244 81.9503C34.1079 82.6222 34.3207 82.647 34.8627 82.6447C40.2584 82.6268 45.6564 82.6358 51.0521 82.6336C51.2738 82.6358 51.4933 82.6157 51.7621 82.6045ZM24.8598 27.5497C23.601 27.5497 22.3422 27.5632 21.0857 27.5408C20.6489 27.5318 20.4944 27.6326 20.5907 28.1007C20.7116 28.6719 20.7295 29.2654 20.8348 29.8411C21.5 33.5368 23.0029 36.8584 25.3211 39.8104C25.5316 40.0792 25.6885 40.3278 26.1208 40.0994C27.4826 39.3871 28.9071 38.8205 30.3854 38.3994C30.8065 38.2785 30.8669 38.097 30.746 37.6871C29.8254 34.5648 29.3125 31.3731 29.2095 28.1187C29.1938 27.6147 28.9899 27.5295 28.5487 27.5385C27.3213 27.5654 26.0894 27.5497 24.8598 27.5497ZM65.4184 27.9909C65.62 27.5766 65.3176 27.5453 64.9144 27.5453C62.3969 27.5542 59.8816 27.5609 57.364 27.5385C56.9071 27.534 56.8062 27.7065 56.7905 28.1209C56.6785 31.3731 56.1746 34.5693 55.2474 37.6894C55.0973 38.1978 55.3145 38.3031 55.6975 38.4173C57.0638 38.8227 58.3943 39.3312 59.6531 39.9942C60.1525 40.2562 60.4102 40.189 60.7417 39.7544C63.3847 36.3006 64.9637 32.4302 65.4184 27.9909ZM20.5503 24.1138C20.6377 24.1384 20.716 24.1832 20.7944 24.1832C23.424 24.19 26.0536 24.1788 28.6831 24.2035C29.1938 24.208 29.1938 23.9346 29.205 23.5763C29.3148 20.6331 29.7381 17.7349 30.522 14.8948C30.6519 14.4222 30.5086 14.252 30.0875 14.1243C28.6159 13.6831 27.1891 13.1073 25.843 12.3682C25.3233 12.0837 25.1061 12.1868 24.7903 12.6281C22.3243 16.0684 20.8953 19.8828 20.5503 24.1138ZM61.1426 24.19C62.4014 24.19 63.66 24.1743 64.9188 24.199C65.3623 24.2079 65.5012 24.0959 65.4048 23.6367C65.2839 23.0633 65.2638 22.4721 65.1607 21.8942C64.5403 18.4583 63.1852 15.3382 61.1201 12.525C60.9499 12.2943 60.8401 11.9986 60.4101 12.2383C58.9453 13.0581 57.3841 13.6674 55.7894 14.1758C55.3728 14.308 55.3861 14.5297 55.4757 14.8567C56.2552 17.7259 56.6943 20.6511 56.7883 23.6211C56.804 24.1318 57.019 24.2035 57.4513 24.1945C58.681 24.1766 59.9107 24.19 61.1426 24.19ZM41.3201 32.0405C41.3201 30.728 41.3045 29.4154 41.3291 28.1029C41.3381 27.6729 41.2216 27.5363 40.7736 27.5408C38.2314 27.5632 35.6892 27.5609 33.1493 27.543C32.6991 27.5407 32.5266 27.6214 32.5513 28.1298C32.6924 31.0685 33.1672 33.9511 33.9512 36.7845C34.0766 37.2369 34.2446 37.4049 34.753 37.3041C36.7532 36.9099 38.7735 36.6433 40.8162 36.6097C41.3179 36.6008 41.3291 36.3522 41.3246 35.9781C41.3112 34.6656 41.3201 33.3531 41.3201 32.0405ZM44.68 32.0585C44.68 33.371 44.6911 34.6835 44.6732 35.9961C44.6687 36.3903 44.7246 36.6008 45.2016 36.6097C47.2421 36.6501 49.2647 36.9055 51.2649 37.3064C51.8025 37.4139 51.9323 37.1921 52.051 36.7666C52.8305 33.9601 53.3009 31.1065 53.4465 28.1948C53.4712 27.6886 53.3748 27.5296 52.835 27.5363C50.3219 27.5676 47.8066 27.5698 45.2935 27.534C44.738 27.5273 44.6598 27.7221 44.671 28.2015C44.7001 29.4871 44.68 30.7728 44.68 32.0585ZM36.9503 24.19C38.2068 24.19 39.4656 24.1698 40.7221 24.2012C41.1835 24.2124 41.338 24.0981 41.3313 23.6098C41.3044 21.2916 41.3067 18.9713 41.3291 16.6531C41.3336 16.1961 41.2149 16.0124 40.7401 15.9989C38.6145 15.9429 36.5113 15.6652 34.426 15.2554C33.987 15.1702 33.8526 15.3114 33.7496 15.7123C33.0799 18.3172 32.6767 20.9557 32.5513 23.6435C32.5311 24.096 32.661 24.2056 33.0933 24.1967C34.3789 24.1743 35.6647 24.19 36.9503 24.19ZM49.0498 24.19C50.3355 24.19 51.6211 24.1855 52.9045 24.1945C53.2383 24.1967 53.4711 24.2124 53.4509 23.7286C53.33 20.9848 52.9134 18.2903 52.2258 15.6339C52.1429 15.3158 52.0288 15.1747 51.6525 15.2464C49.5112 15.6563 47.3541 15.9452 45.1726 16.0079C44.7716 16.0191 44.6664 16.1827 44.6686 16.5702C44.6843 18.9444 44.6866 21.3208 44.6664 23.695C44.6619 24.1116 44.8008 24.2057 45.1905 24.199C46.4784 24.1766 47.7641 24.19 49.0498 24.19ZM41.3201 4.61623C41.0894 4.50872 40.9506 4.64763 40.814 4.71707C40.4915 4.87609 40.1666 5.04625 39.8732 5.25679C37.6468 6.8605 36.303 9.1205 35.1965 11.5597C34.9949 12.0009 35.2637 12.0233 35.5549 12.0726C37.3176 12.3682 39.0871 12.581 40.8745 12.6661C41.2799 12.6863 41.3269 12.5362 41.3246 12.2025C41.3157 9.66704 41.3201 7.13155 41.3201 4.61623ZM44.6776 4.51321C44.6776 7.14051 44.6844 9.65362 44.671 12.1645C44.6688 12.5475 44.7269 12.6886 45.1704 12.6639C46.9286 12.5721 48.6712 12.3548 50.407 12.0837C50.864 12.0121 50.9514 11.8822 50.7498 11.441C49.9457 9.6805 48.9959 8.01629 47.6654 6.59849C46.8434 5.72272 45.9274 4.96789 44.6776 4.51321ZM41.3201 47.2377C41.3201 44.8769 41.3111 42.599 41.3268 40.3234C41.3313 39.8463 41.0357 39.9561 40.7736 39.9628C39.1251 40.0076 37.499 40.2494 35.8706 40.4824C35.3689 40.5541 35.4474 40.7534 35.6109 41.0872C36.2269 42.3415 36.9369 43.5398 37.8418 44.6059C38.7802 45.7102 39.8217 46.6957 41.3201 47.2377ZM44.6776 47.2018C44.85 47.166 44.9329 47.1637 45.0024 47.1301C47.6902 45.8198 49.1932 43.468 50.4676 40.9124C50.6356 40.5764 50.4362 40.5339 50.1898 40.4958C48.5368 40.2405 46.8794 40.0255 45.2041 39.9449C44.718 39.9225 44.6688 40.1106 44.671 40.5093C44.6867 42.7155 44.6776 44.9195 44.6776 47.2018ZM50.7835 4.87827C52.1386 6.70372 53.2292 8.64117 54.0848 10.7108C54.1699 10.9146 54.2259 11.1676 54.5417 11.0624C55.8431 10.6279 57.1444 10.1866 58.4144 9.4699C56.132 7.38239 53.6684 5.79212 50.7835 4.87827ZM35.192 4.88276C32.3273 5.82572 29.8343 7.3824 27.5833 9.48783C28.8287 10.1531 30.0853 10.5876 31.3373 11.0356C31.7248 11.1744 31.8143 10.9572 31.933 10.6727C32.7774 8.62551 33.8526 6.71045 35.192 4.88276ZM57.8164 42.8207C56.6875 42.2832 55.6147 41.9226 54.5485 41.5418C54.0669 41.3694 53.8788 41.5128 53.6817 41.954C53.0478 43.3808 52.2661 44.7292 51.3478 45.9947C51.135 46.2903 50.8081 46.5276 50.7006 47.0091C53.3637 46.0774 55.6348 44.6843 57.8164 42.8207ZM28.2127 42.8252C30.3226 44.7112 32.6655 46.0171 35.21 47.0295C35.2391 46.9152 35.2816 46.8435 35.2615 46.8188C34.052 45.242 32.9992 43.5712 32.222 41.739C32.0965 41.4456 31.9062 41.403 31.624 41.4971C30.4951 41.8756 29.364 42.2384 28.2127 42.8252Z" fill="#532E88"/>
</svg>
