<svg width="71" height="71" viewBox="0 0 71 71" fill="none" xmlns="http://www.w3.org/2000/svg">
<path fill-rule="evenodd" clip-rule="evenodd" d="M38.2467 70.9483C36.3988 70.9483 34.5511 70.9483 32.7032 70.9483C32.633 70.7801 32.4777 70.8226 32.3484 70.8115C28.2739 70.4456 24.3435 69.4884 20.6663 67.6941C9.30019 62.1487 2.5038 53.1497 0.378773 40.6545C0.249424 39.8987 0.314134 39.1098 0 38.3855C0 36.399 0 34.4125 0 32.4261C0.218046 32.3522 0.134817 32.16 0.153296 32.0159C0.302971 30.8739 0.454549 29.7319 0.670748 28.5992C3.45361 14.0363 15.52 2.51868 30.2233 0.386262C31.0493 0.266152 31.9031 0.295656 32.7032 0C34.5511 0 36.3988 0 38.2467 0C38.3114 0.177394 38.4703 0.125697 38.5978 0.136784C43.7423 0.596899 48.591 2.03819 53.0407 4.67322C62.8546 10.4829 68.7159 19.0199 70.5692 30.2937C70.7004 31.0956 70.6451 31.929 70.95 32.7033C70.95 34.5511 70.95 36.399 70.95 38.2469C70.6913 38.8678 70.7394 39.5366 70.6488 40.1833C69.6658 47.1645 66.9253 53.3623 62.2853 58.6748C56.5311 65.2587 49.319 69.239 40.6581 70.5713C39.8543 70.6932 39.0228 70.6452 38.2467 70.9483ZM57.4735 35.0298C57.4513 34.128 57.3757 33.0008 57.2057 31.881C55.4004 20.0252 44.1931 11.782 32.293 13.5559C17.6469 15.7364 9.28351 31.3599 15.6179 44.7236C15.8083 45.1246 15.8434 45.4941 15.7547 45.9191C15.0341 49.3468 14.3264 52.7782 13.6168 56.2079C13.3784 57.3609 13.8108 57.7915 14.9472 57.5236C18.3343 56.729 21.7214 55.9381 25.1048 55.1213C25.5151 55.0216 25.8458 55.0586 26.2228 55.2323C30.3398 57.1301 34.6416 57.7102 39.1152 56.9692C49.7015 55.2156 57.5253 45.9616 57.4735 35.0298Z" fill="#29A71A"/>
<path fill-rule="evenodd" clip-rule="evenodd" d="M57.4735 35.0322C57.5252 45.9641 49.7015 55.2181 39.1152 56.9736C34.6415 57.7164 30.3397 57.1343 26.2227 55.2365C25.8439 55.0628 25.515 55.026 25.1048 55.1257C21.7233 55.9425 18.3343 56.7334 14.9472 57.528C13.8107 57.794 13.3784 57.3635 13.6168 56.2123C14.3263 52.7808 15.034 49.3511 15.7547 45.9233C15.8434 45.4983 15.8082 45.1288 15.6179 44.7278C9.28349 31.3641 17.6469 15.7406 32.2929 13.5601C44.1931 11.788 55.4003 20.0313 57.2057 31.8852C57.3757 33.0032 57.4513 34.1323 57.4735 35.0322ZM19.4763 51.5371C21.4904 51.0603 23.3937 50.6336 25.284 50.1531C25.9677 49.9795 26.5406 50.0238 27.1837 50.3675C30.288 52.0251 33.5901 52.7585 37.1213 52.413C46.8096 51.465 53.7631 42.8023 52.5491 33.1676C51.3387 23.568 42.5799 16.8881 33.0099 18.2647C21.6807 19.8945 15.0155 31.9813 19.8366 42.3588C20.6201 44.044 20.8991 45.5537 20.3503 47.2704C20.2524 47.5771 20.1988 47.8969 20.1359 48.2129C19.9216 49.2902 19.7091 50.3674 19.4763 51.5371Z" fill="#FCFDFC"/>
<path fill-rule="evenodd" clip-rule="evenodd" d="M19.4762 51.5341C19.7091 50.3626 19.9216 49.2854 20.1378 48.21C20.2006 47.894 20.2541 47.5724 20.3521 47.2675C20.9009 45.5508 20.6219 44.043 19.8384 42.3559C15.0174 31.9802 21.6826 19.8916 33.0117 18.2618C42.5817 16.8851 51.3405 23.5651 52.5508 33.1647C53.7649 42.8012 46.8132 51.4621 37.1231 52.4101C33.5919 52.7556 30.288 52.0221 27.1854 50.3646C26.5442 50.0209 25.9696 49.9765 25.2859 50.1502C23.3937 50.6325 21.4904 51.0592 19.4762 51.5341ZM41.1774 45.998C41.8297 46.0183 42.4709 45.9389 43.101 45.7892C44.9285 45.3531 46.015 44.006 46.9759 42.5407C47.6522 41.5096 47.2105 40.4047 46.015 40.0332C45.1132 39.7524 44.206 39.4881 43.2932 39.2479C41.1534 38.6862 41.1774 38.2962 39.3665 40.2032C38.7364 40.8666 38.1154 40.9424 37.2931 40.5414C36.565 40.1866 35.898 39.7302 35.2624 39.2313C33.4977 37.8454 31.7958 36.3911 30.4727 34.5562C29.8574 33.7025 29.8907 33.1204 30.5152 32.287C30.7776 31.9359 31.0585 31.5978 31.3117 31.2411C31.6406 30.7755 31.7237 30.2618 31.4928 29.7333C30.8848 28.34 30.2898 26.9393 29.6375 25.5682C29.2421 24.7367 28.2424 24.3782 27.531 24.8938C25.8661 26.1004 24.5098 27.5676 24.4081 29.7832C24.3176 31.7567 24.8867 33.5786 25.8975 35.2435C28.3108 39.2238 31.6425 42.2525 35.7022 44.4903C37.3948 45.4253 39.2242 45.9536 41.1774 45.998Z" fill="#2AA71B"/>
<path fill-rule="evenodd" clip-rule="evenodd" d="M41.1775 45.996C39.2243 45.9517 37.3949 45.4232 35.6968 44.4864C31.6389 42.2505 28.3054 39.2201 25.8921 35.2398C24.8813 33.5749 24.3122 31.751 24.4027 29.7794C24.5062 27.5638 25.8607 26.0966 27.5256 24.8899C28.2371 24.3744 29.2367 24.733 29.6322 25.5645C30.2845 26.9374 30.8813 28.3362 31.4874 29.7295C31.7184 30.2579 31.6352 30.7735 31.3063 31.2373C31.0532 31.5958 30.7741 31.934 30.5099 32.2832C29.8853 33.1148 29.8521 33.6987 30.4674 34.5524C31.7905 36.3873 33.4923 37.8415 35.257 39.2274C35.8927 39.7263 36.5598 40.1827 37.2878 40.5375C38.1101 40.9385 38.731 40.8629 39.3611 40.1995C41.1701 38.2925 41.1461 38.6822 43.2878 39.244C44.2006 39.4842 45.108 39.7485 46.0097 40.0293C47.2053 40.4007 47.6449 41.5058 46.9705 42.5369C46.0096 44.0023 44.9231 45.3494 43.0956 45.7855C42.471 45.937 41.8298 46.0164 41.1775 45.996Z" fill="#FCFDFC"/>
</svg>
