<svg width="24" height="24" viewBox="0 0 24 24" fill="none" xmlns="http://www.w3.org/2000/svg">
<circle cx="12" cy="12" r="11.25" fill="#F7F3FC" stroke="#532E88" stroke-width="1.5"/>
<g clip-path="url(#clip0_168_1465)">
<path d="M10.6381 15.818C10.5508 15.8177 10.4646 15.7995 10.3847 15.7644C10.3047 15.7294 10.2329 15.6783 10.1735 15.6143L7.08082 12.3243C6.96521 12.2011 6.90328 12.037 6.90865 11.8682C6.91402 11.6993 6.98625 11.5395 7.10946 11.4239C7.23266 11.3083 7.39675 11.2463 7.56561 11.2517C7.73448 11.2571 7.8943 11.3293 8.00991 11.4525L10.6317 14.2461L15.9835 8.39159C16.0379 8.32396 16.1054 8.26815 16.1821 8.22758C16.2588 8.18701 16.3429 8.16254 16.4294 8.15568C16.5158 8.14882 16.6028 8.15971 16.6849 8.18767C16.767 8.21564 16.8425 8.2601 16.9068 8.31831C16.9711 8.37653 17.0229 8.44728 17.0588 8.52621C17.0948 8.60515 17.1142 8.6906 17.116 8.77732C17.1177 8.86404 17.1017 8.9502 17.0689 9.03051C17.0361 9.11082 16.9873 9.18358 16.9254 9.24432L11.109 15.608C11.0502 15.6731 10.9786 15.7254 10.8987 15.7615C10.8187 15.7977 10.7322 15.8169 10.6445 15.818H10.6381Z" fill="#532E88"/>
</g>
<defs>
<clipPath id="clip0_168_1465">
<rect width="15.2727" height="15.2727" fill="white" transform="translate(4.36353 4.3634)"/>
</clipPath>
</defs>
</svg>
