<svg width="22" height="22" viewBox="0 0 22 22" fill="none" xmlns="http://www.w3.org/2000/svg">
<path d="M11.1375 15.125V17.05" stroke="#76BFC5" stroke-width="1.5" stroke-linecap="round" stroke-linejoin="round"/>
<path d="M6.55417 20.1665H15.7208V19.2498C15.7208 18.2415 14.8958 17.4165 13.8875 17.4165H8.3875C7.37917 17.4165 6.55417 18.2415 6.55417 19.2498V20.1665V20.1665Z" stroke="#76BFC5" stroke-width="1.5" stroke-miterlimit="10"/>
<path d="M5.6375 20.1665H16.6375" stroke="#76BFC5" stroke-width="1.5" stroke-linecap="round" stroke-linejoin="round"/>
<path d="M11 14.6668C7.45249 14.6668 4.58333 11.7977 4.58333 8.25016V5.50016C4.58333 3.47433 6.22416 1.8335 8.24999 1.8335H13.75C15.7758 1.8335 17.4167 3.47433 17.4167 5.50016V8.25016C17.4167 11.7977 14.5475 14.6668 11 14.6668Z" stroke="#76BFC5" stroke-width="1.5" stroke-linecap="round" stroke-linejoin="round"/>
<path d="M5.01416 10.679C4.32666 10.459 3.72166 10.0556 3.245 9.57897C2.42 8.6623 1.87 7.5623 1.87 6.27897C1.87 4.99564 2.87833 3.9873 4.16166 3.9873H4.7575C4.57416 4.40897 4.48249 4.87647 4.48249 5.3623V8.11231C4.48249 9.02897 4.67499 9.89064 5.01416 10.679Z" stroke="#76BFC5" stroke-width="1.5" stroke-linecap="round" stroke-linejoin="round"/>
<path d="M16.9858 10.679C17.6733 10.459 18.2783 10.0556 18.755 9.57897C19.58 8.6623 20.13 7.5623 20.13 6.27897C20.13 4.99564 19.1217 3.9873 17.8383 3.9873H17.2425C17.4258 4.40897 17.5175 4.87647 17.5175 5.3623V8.11231C17.5175 9.02897 17.325 9.89064 16.9858 10.679Z" stroke="#76BFC5" stroke-width="1.5" stroke-linecap="round" stroke-linejoin="round"/>
</svg>
