<svg width="134" height="22" viewBox="0 0 134 22" fill="none" xmlns="http://www.w3.org/2000/svg">
<path d="M12.5858 3.21742L14.1992 6.44409C14.4192 6.89326 15.0058 7.32409 15.5008 7.40659L18.425 7.89242C20.295 8.20409 20.735 9.56076 19.3875 10.8991L17.1142 13.1724C16.7292 13.5574 16.5183 14.2999 16.6375 14.8316L17.2883 17.6458C17.8017 19.8733 16.6192 20.7349 14.6483 19.5708L11.9075 17.9483C11.4125 17.6549 10.5967 17.6549 10.0925 17.9483L7.35167 19.5708C5.39 20.7349 4.19833 19.8641 4.71167 17.6458L5.3625 14.8316C5.48167 14.2999 5.27083 13.5574 4.88583 13.1724L2.6125 10.8991C1.27417 9.56076 1.705 8.20409 3.575 7.89242L6.49917 7.40659C6.985 7.32409 7.57167 6.89326 7.79167 6.44409L9.405 3.21742C10.285 1.46659 11.715 1.46659 12.5858 3.21742Z" fill="#532E88" stroke="#532E88" stroke-width="1.5" stroke-linecap="round" stroke-linejoin="round"/>
<path d="M40.5858 3.21742L42.1992 6.44409C42.4192 6.89326 43.0058 7.32409 43.5008 7.40659L46.425 7.89242C48.295 8.20409 48.735 9.56076 47.3875 10.8991L45.1142 13.1724C44.7292 13.5574 44.5183 14.2999 44.6375 14.8316L45.2883 17.6458C45.8017 19.8733 44.6192 20.7349 42.6483 19.5708L39.9075 17.9483C39.4125 17.6549 38.5967 17.6549 38.0925 17.9483L35.3517 19.5708C33.39 20.7349 32.1983 19.8641 32.7117 17.6458L33.3625 14.8316C33.4817 14.2999 33.2708 13.5574 32.8858 13.1724L30.6125 10.8991C29.2742 9.56076 29.705 8.20409 31.575 7.89242L34.4992 7.40659C34.985 7.32409 35.5717 6.89326 35.7917 6.44409L37.405 3.21742C38.285 1.46659 39.715 1.46659 40.5858 3.21742Z" fill="#532E88" stroke="#532E88" stroke-width="1.5" stroke-linecap="round" stroke-linejoin="round"/>
<path d="M68.5858 3.21742L70.1992 6.44409C70.4192 6.89326 71.0058 7.32409 71.5008 7.40659L74.425 7.89242C76.295 8.20409 76.735 9.56076 75.3875 10.8991L73.1142 13.1724C72.7292 13.5574 72.5183 14.2999 72.6375 14.8316L73.2883 17.6458C73.8017 19.8733 72.6192 20.7349 70.6483 19.5708L67.9075 17.9483C67.4125 17.6549 66.5967 17.6549 66.0925 17.9483L63.3517 19.5708C61.39 20.7349 60.1983 19.8641 60.7117 17.6458L61.3625 14.8316C61.4817 14.2999 61.2708 13.5574 60.8858 13.1724L58.6125 10.8991C57.2742 9.56076 57.705 8.20409 59.575 7.89242L62.4992 7.40659C62.985 7.32409 63.5717 6.89326 63.7917 6.44409L65.405 3.21742C66.285 1.46659 67.715 1.46659 68.5858 3.21742Z" fill="#532E88" stroke="#532E88" stroke-width="1.5" stroke-linecap="round" stroke-linejoin="round"/>
<path d="M96.5858 3.21742L98.1992 6.44409C98.4192 6.89326 99.0058 7.32409 99.5008 7.40659L102.425 7.89242C104.295 8.20409 104.735 9.56076 103.387 10.8991L101.114 13.1724C100.729 13.5574 100.518 14.2999 100.637 14.8316L101.288 17.6458C101.802 19.8733 100.619 20.7349 98.6483 19.5708L95.9075 17.9483C95.4125 17.6549 94.5967 17.6549 94.0925 17.9483L91.3517 19.5708C89.39 20.7349 88.1983 19.8641 88.7117 17.6458L89.3625 14.8316C89.4817 14.2999 89.2708 13.5574 88.8858 13.1724L86.6125 10.8991C85.2742 9.56076 85.705 8.20409 87.575 7.89242L90.4992 7.40659C90.985 7.32409 91.5717 6.89326 91.7917 6.44409L93.405 3.21742C94.285 1.46659 95.715 1.46659 96.5858 3.21742Z" fill="#532E88" stroke="#532E88" stroke-width="1.5" stroke-linecap="round" stroke-linejoin="round"/>
<path d="M124.586 3.21742L126.199 6.44409C126.419 6.89326 127.006 7.32409 127.501 7.40659L130.425 7.89242C132.295 8.20409 132.735 9.56076 131.387 10.8991L129.114 13.1724C128.729 13.5574 128.518 14.2999 128.637 14.8316L129.288 17.6458C129.802 19.8733 128.619 20.7349 126.648 19.5708L123.907 17.9483C123.412 17.6549 122.597 17.6549 122.092 17.9483L119.352 19.5708C117.39 20.7349 116.198 19.8641 116.712 17.6458L117.362 14.8316C117.482 14.2999 117.271 13.5574 116.886 13.1724L114.612 10.8991C113.274 9.56076 113.705 8.20409 115.575 7.89242L118.499 7.40659C118.985 7.32409 119.572 6.89326 119.792 6.44409L121.405 3.21742C122.285 1.46659 123.715 1.46659 124.586 3.21742Z" fill="#532E88" stroke="#532E88" stroke-width="1.5" stroke-linecap="round" stroke-linejoin="round"/>
</svg>
