<svg width="150" height="26" viewBox="0 0 150 26" fill="none" xmlns="http://www.w3.org/2000/svg">
<path d="M25.5473 0H0V25.5473H25.5473V0Z" fill="#00B67A"/>
<path d="M12.7736 17.2177L16.659 16.2331L18.2823 21.2361L12.7736 17.2177ZM21.7152 10.7511H14.876L12.7736 4.31104L10.6713 10.7511H3.83209L9.36734 14.7428L7.26501 21.1829L12.8003 17.1911L16.2066 14.7428L21.7152 10.7511Z" fill="white"/>
<path d="M56.4731 0H30.9258V25.5473H56.4731V0Z" fill="#00B67A"/>
<path d="M43.6994 17.2177L47.5847 16.2331L49.2081 21.2361L43.6994 17.2177ZM52.641 10.7511H45.8018L43.6994 4.31104L41.5971 10.7511H34.7579L40.2931 14.7428L38.1908 21.1829L43.726 17.1911L47.1323 14.7428L52.641 10.7511Z" fill="white"/>
<path d="M87.3989 0H61.8516V25.5473H87.3989V0Z" fill="#00B67A"/>
<path d="M74.625 17.2177L78.5103 16.2331L80.1336 21.2361L74.625 17.2177ZM83.5665 10.7511H76.7273L74.625 4.31104L72.5226 10.7511H65.6834L71.2187 14.7428L69.1163 21.1829L74.6516 17.1911L78.0579 14.7428L83.5665 10.7511Z" fill="white"/>
<path d="M118.325 0H92.7773V25.5473H118.325V0Z" fill="#00B67A"/>
<path d="M105.551 17.2177L109.436 16.2331L111.06 21.2361L105.551 17.2177ZM114.493 10.7511H107.653L105.551 4.31104L103.449 10.7511H96.6094L102.145 14.7428L100.042 21.1829L105.578 17.1911L108.984 14.7428L114.493 10.7511Z" fill="white"/>
<path d="M149.25 0H123.703V25.5473H149.25V0Z" fill="#00B67A"/>
<path d="M136.477 17.2177L140.362 16.2331L141.985 21.2361L136.477 17.2177ZM145.418 10.7511H138.579L136.477 4.31104L134.374 10.7511H127.535L133.07 14.7428L130.968 21.1829L136.503 17.1911L139.91 14.7428L145.418 10.7511Z" fill="white"/>
</svg>
