<svg width="22" height="22" viewBox="0 0 22 22" fill="none" xmlns="http://www.w3.org/2000/svg">
<path d="M12.5858 3.21742L14.1992 6.44409C14.4192 6.89326 15.0058 7.32409 15.5008 7.40659L18.425 7.89242C20.295 8.20409 20.735 9.56076 19.3875 10.8991L17.1142 13.1724C16.7292 13.5574 16.5183 14.2999 16.6375 14.8316L17.2883 17.6458C17.8017 19.8733 16.6192 20.7349 14.6483 19.5708L11.9075 17.9483C11.4125 17.6549 10.5967 17.6549 10.0925 17.9483L7.35166 19.5708C5.38999 20.7349 4.19833 19.8641 4.71166 17.6458L5.36249 14.8316C5.48166 14.2999 5.27083 13.5574 4.88583 13.1724L2.61249 10.8991C1.27416 9.56076 1.70499 8.20409 3.57499 7.89242L6.49916 7.40659C6.98499 7.32409 7.57166 6.89326 7.79166 6.44409L9.40499 3.21742C10.285 1.46659 11.715 1.46659 12.5858 3.21742Z" stroke="#FFC000" stroke-width="1.5" stroke-linecap="round" stroke-linejoin="round"/>
</svg>
