<svg width="103" height="41" viewBox="0 0 103 41" fill="none" xmlns="http://www.w3.org/2000/svg">
<g opacity="0.23">
<circle cx="100.5" cy="10.5" r="2.5" transform="rotate(90 100.5 10.5)" fill="#8BCED3"/>
<circle cx="44.5" cy="10.5" r="2.5" transform="rotate(90 44.5 10.5)" fill="#8BCED3"/>
<circle cx="72.5" cy="10.5" r="2.5" transform="rotate(90 72.5 10.5)" fill="#8BCED3"/>
<circle cx="16.5" cy="10.5" r="2.5" transform="rotate(90 16.5 10.5)" fill="#8BCED3"/>
<circle cx="86.5" cy="10.5" r="2.5" transform="rotate(90 86.5 10.5)" fill="#8BCED3"/>
<circle cx="30.5" cy="10.5" r="2.5" transform="rotate(90 30.5 10.5)" fill="#8BCED3"/>
<circle cx="58.5" cy="10.5" r="2.5" transform="rotate(90 58.5 10.5)" fill="#8BCED3"/>
<circle cx="2.5" cy="10.5" r="2.5" transform="rotate(90 2.5 10.5)" fill="#8BCED3"/>
<circle cx="100.5" cy="24.5" r="2.5" transform="rotate(90 100.5 24.5)" fill="#8BCED3"/>
<circle cx="44.5" cy="24.5" r="2.5" transform="rotate(90 44.5 24.5)" fill="#8BCED3"/>
<circle cx="72.5" cy="24.5" r="2.5" transform="rotate(90 72.5 24.5)" fill="#8BCED3"/>
<circle cx="16.5" cy="24.5" r="2.5" transform="rotate(90 16.5 24.5)" fill="#8BCED3"/>
<circle cx="86.5" cy="24.5" r="2.5" transform="rotate(90 86.5 24.5)" fill="#8BCED3"/>
<circle cx="30.5" cy="24.5" r="2.5" transform="rotate(90 30.5 24.5)" fill="#8BCED3"/>
<circle cx="58.5" cy="24.5" r="2.5" transform="rotate(90 58.5 24.5)" fill="#8BCED3"/>
<circle cx="2.5" cy="24.5" r="2.5" transform="rotate(90 2.5 24.5)" fill="#8BCED3"/>
<circle cx="100.5" cy="38.5" r="2.5" transform="rotate(90 100.5 38.5)" fill="#8BCED3"/>
<circle cx="44.5" cy="38.5" r="2.5" transform="rotate(90 44.5 38.5)" fill="#8BCED3"/>
<circle cx="72.5" cy="38.5" r="2.5" transform="rotate(90 72.5 38.5)" fill="#8BCED3"/>
<circle cx="16.5" cy="38.5" r="2.5" transform="rotate(90 16.5 38.5)" fill="#8BCED3"/>
<circle cx="86.5" cy="38.5" r="2.5" transform="rotate(90 86.5 38.5)" fill="#8BCED3"/>
<circle cx="30.5" cy="38.5" r="2.5" transform="rotate(90 30.5 38.5)" fill="#8BCED3"/>
<circle cx="58.5" cy="38.5" r="2.5" transform="rotate(90 58.5 38.5)" fill="#8BCED3"/>
<circle cx="2.5" cy="38.5" r="2.5" transform="rotate(90 2.5 38.5)" fill="#8BCED3"/>
</g>
</svg>
