<svg width="47" height="102" viewBox="0 0 47 102" fill="none" xmlns="http://www.w3.org/2000/svg">
<g opacity="0.23">
<circle cx="44.5" cy="16.5" r="2.5" transform="rotate(90 44.5 16.5)" fill="#8BCED3"/>
<circle cx="16.5" cy="16.5" r="2.5" transform="rotate(90 16.5 16.5)" fill="#8BCED3"/>
<circle cx="30.5" cy="16.5" r="2.5" transform="rotate(90 30.5 16.5)" fill="#8BCED3"/>
<circle cx="2.5" cy="16.5" r="2.5" transform="rotate(90 2.5 16.5)" fill="#8BCED3"/>
<circle cx="44.5" cy="30.5" r="2.5" transform="rotate(90 44.5 30.5)" fill="#8BCED3"/>
<circle cx="16.5" cy="30.5" r="2.5" transform="rotate(90 16.5 30.5)" fill="#8BCED3"/>
<circle cx="30.5" cy="30.5" r="2.5" transform="rotate(90 30.5 30.5)" fill="#8BCED3"/>
<circle cx="2.5" cy="30.5" r="2.5" transform="rotate(90 2.5 30.5)" fill="#8BCED3"/>
<circle cx="44.5" cy="2.5" r="2.5" transform="rotate(90 44.5 2.5)" fill="#8BCED3"/>
<circle cx="16.5" cy="2.5" r="2.5" transform="rotate(90 16.5 2.5)" fill="#8BCED3"/>
<circle cx="30.5" cy="2.5" r="2.5" transform="rotate(90 30.5 2.5)" fill="#8BCED3"/>
<circle cx="2.5" cy="2.5" r="2.5" transform="rotate(90 2.5 2.5)" fill="#8BCED3"/>
<circle cx="44.5" cy="44.5" r="2.5" transform="rotate(90 44.5 44.5)" fill="#8BCED3"/>
<circle cx="16.5" cy="44.5" r="2.5" transform="rotate(90 16.5 44.5)" fill="#8BCED3"/>
<circle cx="30.5" cy="44.5" r="2.5" transform="rotate(90 30.5 44.5)" fill="#8BCED3"/>
<circle cx="2.5" cy="44.5" r="2.5" transform="rotate(90 2.5 44.5)" fill="#8BCED3"/>
<circle cx="44.5" cy="71.5" r="2.5" transform="rotate(90 44.5 71.5)" fill="#8BCED3"/>
<circle cx="16.5" cy="71.5" r="2.5" transform="rotate(90 16.5 71.5)" fill="#8BCED3"/>
<circle cx="30.5" cy="71.5" r="2.5" transform="rotate(90 30.5 71.5)" fill="#8BCED3"/>
<circle cx="2.5" cy="71.5" r="2.5" transform="rotate(90 2.5 71.5)" fill="#8BCED3"/>
<circle cx="44.5" cy="85.5" r="2.5" transform="rotate(90 44.5 85.5)" fill="#8BCED3"/>
<circle cx="16.5" cy="85.5" r="2.5" transform="rotate(90 16.5 85.5)" fill="#8BCED3"/>
<circle cx="30.5" cy="85.5" r="2.5" transform="rotate(90 30.5 85.5)" fill="#8BCED3"/>
<circle cx="2.5" cy="85.5" r="2.5" transform="rotate(90 2.5 85.5)" fill="#8BCED3"/>
<circle cx="44.5" cy="57.5" r="2.5" transform="rotate(90 44.5 57.5)" fill="#8BCED3"/>
<circle cx="16.5" cy="57.5" r="2.5" transform="rotate(90 16.5 57.5)" fill="#8BCED3"/>
<circle cx="30.5" cy="57.5" r="2.5" transform="rotate(90 30.5 57.5)" fill="#8BCED3"/>
<circle cx="2.5" cy="57.5" r="2.5" transform="rotate(90 2.5 57.5)" fill="#8BCED3"/>
<circle cx="44.5" cy="99.5" r="2.5" transform="rotate(90 44.5 99.5)" fill="#8BCED3"/>
<circle cx="16.5" cy="99.5" r="2.5" transform="rotate(90 16.5 99.5)" fill="#8BCED3"/>
<circle cx="30.5" cy="99.5" r="2.5" transform="rotate(90 30.5 99.5)" fill="#8BCED3"/>
<circle cx="2.5" cy="99.5" r="2.5" transform="rotate(90 2.5 99.5)" fill="#8BCED3"/>
</g>
</svg>
