<svg width="61" height="45" viewBox="0 0 61 45" fill="none" xmlns="http://www.w3.org/2000/svg">
<path d="M0.322686 44.9356C1.00501 44.8663 1.70667 44.8768 2.36732 44.716C11.53 42.4798 20.3763 39.3659 28.7739 35.0478C30.1439 34.3434 31.4874 33.5246 32.6851 32.5621C34.6879 30.9517 34.3845 28.9306 31.9616 27.9618C29.5954 27.0171 27.1247 26.3358 24.7173 25.4904C23.5365 25.0755 22.2944 24.681 21.656 23.0749C22.4268 22.4775 23.1321 21.7765 23.9697 21.313C25.8018 20.2974 27.6526 19.2888 29.5811 18.4783C37.0497 15.3392 44.5519 12.2794 52.4714 9.01207C51.0065 12.0799 47.4412 13.2152 46.8326 16.3474C46.9822 16.5084 47.1313 16.6693 47.281 16.8303C47.8696 16.5214 48.5527 16.3175 49.0312 15.8868C52.6206 12.6551 56.1767 9.38585 59.7251 6.10993C60.4714 5.42033 61.3275 4.54483 60.6764 3.5315C60.2634 2.88815 59.2909 2.43263 58.4877 2.24674C56.3604 1.75544 54.1901 1.44795 52.0338 1.08709C51.4966 0.997497 50.9075 0.841043 50.413 0.974795C49.8761 1.12083 49.4224 1.57004 48.933 1.88731C49.2627 2.38094 49.4846 3.11133 49.9435 3.31966C51.0089 3.80245 52.1888 4.03318 53.3222 4.36539C53.7272 4.48467 54.1326 4.60229 55.1533 4.90048C52.5638 5.9221 50.5562 6.71164 48.5509 7.50587C41.9362 10.1252 35.3024 12.6969 28.7194 15.3939C26.5335 16.2895 24.4468 17.4472 22.3814 18.6043C21.4427 19.1299 20.5746 19.8588 19.8332 20.6458C18.147 22.4361 18.1705 24.6509 20.1434 26.1197C21.7204 27.2944 23.6003 28.1031 25.4231 28.8963C26.8923 29.5361 28.4766 29.9094 30.6337 30.6003C29.1379 31.5177 28.1906 32.153 27.1937 32.701C20.6955 36.2687 13.8258 38.9732 6.84385 41.4187C5.12237 42.0219 3.40822 42.6498 1.72344 43.3476C1.13148 43.5924 0.638436 44.0769 0.100557 44.4524C0.175334 44.6128 0.249287 44.7743 0.322686 44.9356Z" fill="#8BCED3"/>
</svg>
