<svg width="22" height="22" viewBox="0 0 22 22" fill="none" xmlns="http://www.w3.org/2000/svg">
<path fill-rule="evenodd" clip-rule="evenodd" d="M11.5077 21C11.1694 21 10.8306 21 10.4922 21C10.4532 20.9541 10.4141 20.937 10.375 21C10.3101 21 10.2447 21 10.1798 21C10.1651 20.9463 10.1192 20.9629 10.0841 20.959C9.423 20.8936 8.77365 20.7695 8.13504 20.5835C4.45377 19.5113 1.65571 16.2758 1.10644 12.4579C1.07568 12.245 1.08935 12.0233 1 11.8202C1 11.7553 1 11.6898 1 11.6249C1.06298 11.5858 1.04589 11.5468 1 11.5078C1 11.1694 1 10.8306 1 10.4922C1.04589 10.4532 1.06298 10.4141 1 10.375C1 10.3101 1 10.2447 1 10.1798C1.05371 10.1651 1.03712 10.1192 1.04103 10.0841C1.10645 9.423 1.23046 8.77363 1.41648 8.13502C2.48864 4.45374 5.72414 1.65568 9.54212 1.10642C9.75499 1.07566 9.97665 1.08935 10.1798 1C10.2447 1 10.3101 1 10.375 1C10.4141 1.06347 10.4532 1.04589 10.4922 1C10.8306 1 11.1694 1 11.5077 1C11.5468 1.04589 11.5859 1.06347 11.6249 1C11.664 1 11.7031 1 11.7421 1C11.9428 1.07177 12.1551 1.06151 12.3621 1.0908C14.3385 1.37154 16.0888 2.15515 17.5833 3.47826C19.4899 5.16657 20.6123 7.27769 20.9287 9.8121C20.9458 9.94734 20.9185 10.0933 21 10.2183C21 10.2706 21 10.3223 21 10.3745C20.937 10.4136 20.9541 10.4527 21 10.4917C21 10.8301 21 11.1689 21 11.5072C20.9541 11.5463 20.937 11.5854 21 11.6244C21 11.6894 21 11.7548 21 11.8197C20.9463 11.8344 20.9629 11.8803 20.9589 11.9154C20.914 12.3294 20.855 12.7405 20.7676 13.1477C19.8751 17.2875 16.3774 20.4507 12.1683 20.9307C12.0272 20.9468 11.8739 20.9165 11.7421 20.999C11.7031 20.999 11.664 20.999 11.6249 20.999C11.5859 20.9365 11.5468 20.9541 11.5077 21ZM7.7015 2.81769C6.6889 3.20779 5.79933 3.79366 5.00351 4.526C4.69885 4.80625 4.41179 5.10408 4.15351 5.43901C4.79798 5.63088 5.44146 5.75392 6.08446 5.88037C6.19822 5.90283 6.21092 5.83204 6.2368 5.75636C6.40475 5.25836 6.60249 4.77305 6.83586 4.30141C7.08925 3.78877 7.40612 3.3147 7.72689 2.84356C7.74446 2.8377 7.76301 2.82843 7.74739 2.80842C7.7425 2.80305 7.71712 2.81378 7.7015 2.81769ZM14.2985 2.81769C14.2829 2.81427 14.2575 2.80305 14.2531 2.80842C14.2375 2.82843 14.256 2.8377 14.2736 2.84356C14.4147 3.05301 14.5622 3.25855 14.6959 3.47239C15.1495 4.19596 15.5039 4.9664 15.7695 5.77784C15.7978 5.86426 15.8145 5.94482 15.9497 5.91504C16.2797 5.84278 16.6147 5.79494 16.9452 5.72463C17.2577 5.65823 17.5667 5.57571 17.8939 5.49613C17.6986 5.24274 17.5077 5.03034 17.3065 4.82724C16.4409 3.95233 15.4497 3.26491 14.2985 2.81769ZM8.50269 10.4131C9.08809 10.4131 9.67299 10.4112 10.2584 10.4151C10.3648 10.4161 10.418 10.4082 10.4171 10.274C10.4102 9.3766 10.4102 8.47923 10.4171 7.58235C10.418 7.45297 10.3702 7.43832 10.2613 7.4349C9.85852 7.42269 9.4562 7.40073 9.05341 7.38071C8.42994 7.35044 7.80891 7.29528 7.18983 7.2157C7.09072 7.203 7.03408 7.20592 7.00479 7.33628C6.78703 8.29565 6.66643 9.26674 6.61956 10.2486C6.61273 10.3921 6.65424 10.4175 6.78704 10.4156C7.35827 10.4092 7.93048 10.4131 8.50269 10.4131ZM13.4861 10.4131C14.0588 10.4131 14.6315 10.4082 15.2042 10.4165C15.3458 10.4185 15.3882 10.3916 15.3814 10.2388C15.3384 9.2814 15.2125 8.33618 15.0142 7.39926C14.9845 7.25865 14.9312 7.22985 14.7945 7.24547C13.7727 7.36265 12.7464 7.42221 11.7182 7.43783C11.5732 7.43978 11.5859 7.51205 11.5864 7.60628C11.5873 8.4851 11.5917 9.36343 11.5824 10.2418C11.581 10.398 11.6323 10.418 11.7685 10.4165C12.3407 10.4092 12.9134 10.4131 13.4861 10.4131ZM3.83127 10.4141C4.31902 10.4141 4.80725 10.4102 5.29499 10.417C5.4151 10.419 5.44782 10.3833 5.45222 10.2652C5.46345 9.94052 5.48394 9.61583 5.51177 9.29164C5.5728 8.57882 5.68071 7.87284 5.8428 7.17564C5.86917 7.0614 5.84329 7.0243 5.72074 7.00233C4.98595 6.871 4.25701 6.71133 3.54468 6.4843C3.46216 6.45794 3.41969 6.47161 3.37379 6.55022C2.70101 7.70879 2.31092 8.95429 2.20351 10.2896C2.19472 10.4004 2.23133 10.416 2.328 10.4156C2.82942 10.4116 3.33035 10.4141 3.83127 10.4141ZM18.1882 11.5863C17.6941 11.5863 17.1996 11.5878 16.7055 11.5854C16.6123 11.5849 16.5507 11.5854 16.5468 11.7123C16.5127 12.7405 16.3857 13.758 16.1552 14.7608C16.1279 14.8805 16.163 14.919 16.2739 14.9371C17.0238 15.0611 17.762 15.2349 18.488 15.459C18.5696 15.4839 18.6101 15.479 18.656 15.3989C19.3053 14.2594 19.6861 13.0383 19.795 11.7308C19.8057 11.6015 19.7672 11.5829 19.6515 11.5844C19.1637 11.5897 18.676 11.5863 18.1882 11.5863ZM18.1687 10.4131C18.6701 10.4131 19.1711 10.4107 19.6725 10.4151C19.774 10.4161 19.8097 10.3926 19.7945 10.2862C19.7608 10.0479 19.7452 9.80722 19.7076 9.56994C19.5401 8.52073 19.1896 7.53548 18.6618 6.61272C18.6169 6.53412 18.5744 6.52092 18.4929 6.54533C17.7635 6.7621 17.0199 6.91885 16.27 7.04384C16.1455 7.06434 16.1421 7.1156 16.1635 7.21081C16.392 8.21559 16.516 9.23403 16.5483 10.2637C16.5517 10.3809 16.5829 10.4185 16.7045 10.4165C17.1922 10.4092 17.6805 10.4131 18.1687 10.4131ZM13.4992 11.5863C12.9134 11.5863 12.328 11.5883 11.7426 11.5844C11.6371 11.5839 11.582 11.5897 11.5834 11.725C11.5908 12.6033 11.5888 13.4817 11.5849 14.3605C11.5844 14.464 11.6034 14.5099 11.7206 14.5109C12.7562 14.5192 13.7863 14.6041 14.815 14.7169C14.9039 14.7267 14.964 14.7389 14.9928 14.6124C15.2081 13.6653 15.3296 12.7068 15.3799 11.7372C15.3873 11.5941 15.3321 11.5839 15.2173 11.5849C14.6442 11.5888 14.0719 11.5863 13.4992 11.5863ZM8.51976 11.5863C7.94072 11.5863 7.36119 11.5888 6.78215 11.5844C6.66546 11.5834 6.61322 11.5966 6.62054 11.7382C6.67132 12.701 6.78702 13.654 7.00526 14.5948C7.02968 14.6998 7.06876 14.7144 7.16103 14.7032C8.18925 14.5807 9.22137 14.5182 10.2564 14.507C10.3834 14.5055 10.418 14.4684 10.4171 14.3405C10.4112 13.4748 10.4112 12.6092 10.4171 11.7436C10.418 11.6166 10.3858 11.582 10.2574 11.5834C9.67836 11.5907 9.09881 11.5863 8.51976 11.5863ZM3.82786 11.5859C3.33963 11.5859 2.85139 11.5912 2.36364 11.5824C2.2245 11.58 2.1947 11.6166 2.20642 11.7533C2.3153 13.0071 2.67318 14.1833 3.27908 15.2862C3.3445 15.4058 3.40162 15.4327 3.53442 15.3931C4.24431 15.1817 4.96739 15.023 5.69974 14.9087C5.84523 14.8863 5.86183 14.8292 5.83303 14.7032C5.60991 13.7311 5.49028 12.7444 5.45512 11.7484C5.45024 11.6059 5.40045 11.5815 5.27254 11.5834C4.79114 11.5903 4.30926 11.5859 3.82786 11.5859ZM11.5859 2.26304C11.5859 3.57492 11.5874 4.86289 11.5834 6.15133C11.583 6.26753 11.6322 6.27291 11.7231 6.26901C12.1195 6.25094 12.5169 6.24702 12.9129 6.22164C13.4826 6.18551 14.052 6.13571 14.6388 6.0903C14.5617 5.88476 14.4992 5.70217 14.4259 5.52445C14.0593 4.63635 13.613 3.79609 12.93 3.10426C12.5565 2.72588 12.1342 2.42074 11.5859 2.26304ZM7.37046 15.8588C7.53744 16.35 7.73274 16.8153 7.96611 17.263C8.32594 17.9529 8.75852 18.5901 9.36149 19.0959C9.67005 19.3546 10.0099 19.5577 10.4131 19.6681C10.4131 18.3694 10.4102 17.0888 10.4171 15.8081C10.418 15.6616 10.3487 15.6768 10.252 15.6787C9.29605 15.6958 8.34302 15.7568 7.37046 15.8588ZM10.4131 2.22692C8.66771 2.96074 7.99443 4.48061 7.36314 6.05419C8.36011 6.17771 9.33269 6.22164 10.3052 6.26705C10.461 6.27437 10.4117 6.16988 10.4117 6.09958C10.4141 4.96883 10.4131 3.83759 10.4131 2.70636C10.4131 2.56526 10.4131 2.42417 10.4131 2.22692ZM11.5864 19.6705C12.0048 19.5475 12.3504 19.3463 12.6566 19.0793C13.6399 18.2224 14.1789 17.0921 14.6207 15.8945C14.4406 15.833 14.2629 15.8486 14.09 15.8286C13.3006 15.7363 12.5072 15.7095 11.7138 15.6797C11.6083 15.6758 11.5839 15.7056 11.5844 15.8071C11.5873 17.0892 11.5864 18.3718 11.5864 19.6705ZM7.80403 19.1788C7.73275 19.0817 7.66096 18.985 7.59017 18.8874C6.99403 18.0652 6.56977 17.1561 6.24803 16.1982C6.19823 16.0502 6.14257 16.0078 5.99366 16.04C5.7017 16.1025 5.40436 16.1421 5.11288 16.2055C4.76868 16.2802 4.4279 16.3705 4.06514 16.4589C5.0792 17.7176 6.29978 18.6369 7.80403 19.1788ZM17.8958 16.5082C17.2611 16.3251 16.6454 16.2016 16.0303 16.0771C15.8594 16.0425 15.79 16.0732 15.7324 16.247C15.377 17.3153 14.8829 18.3132 14.1857 19.2111C15.6646 18.6598 16.8818 17.7493 17.8958 16.5082Z" fill="#532E88" stroke="#532E88" stroke-width="0.2"/>
<path fill-rule="evenodd" clip-rule="evenodd" d="M10.4922 1C10.4531 1.04589 10.4141 1.06347 10.375 1C10.4141 1 10.4531 1 10.4922 1Z" fill="#532E88" stroke="#532E88" stroke-width="0.2"/>
<path fill-rule="evenodd" clip-rule="evenodd" d="M11.6249 1C11.5858 1.06347 11.5467 1.04589 11.5077 1C11.5467 1 11.5858 1 11.6249 1Z" fill="#532E88" stroke="#532E88" stroke-width="0.2"/>
<path fill-rule="evenodd" clip-rule="evenodd" d="M1 10.375C1.06298 10.4141 1.04589 10.4531 1 10.4922C1 10.4531 1 10.4141 1 10.375Z" fill="#532E88" stroke="#532E88" stroke-width="0.2"/>
<path fill-rule="evenodd" clip-rule="evenodd" d="M20.9999 10.4922C20.954 10.4531 20.937 10.4141 20.9999 10.375C20.9999 10.4141 20.9999 10.4531 20.9999 10.4922Z" fill="#532E88" stroke="#532E88" stroke-width="0.2"/>
<path fill-rule="evenodd" clip-rule="evenodd" d="M1 11.5078C1.04589 11.5469 1.06298 11.5859 1 11.625C1 11.5859 1 11.5469 1 11.5078Z" fill="#532E88" stroke="#532E88" stroke-width="0.2"/>
<path fill-rule="evenodd" clip-rule="evenodd" d="M20.9999 11.625C20.937 11.5859 20.954 11.5469 20.9999 11.5078C20.9999 11.5469 20.9999 11.5859 20.9999 11.625Z" fill="#532E88" stroke="#532E88" stroke-width="0.2"/>
<path fill-rule="evenodd" clip-rule="evenodd" d="M10.375 21.0001C10.4141 20.9371 10.4531 20.9542 10.4922 21.0001C10.4531 21.0001 10.4141 21.0001 10.375 21.0001Z" fill="#532E88" stroke="#532E88" stroke-width="0.2"/>
<path fill-rule="evenodd" clip-rule="evenodd" d="M11.5077 21.0001C11.5467 20.9542 11.5858 20.9371 11.6249 21.0001C11.5858 21.0001 11.5467 21.0001 11.5077 21.0001Z" fill="#532E88" stroke="#532E88" stroke-width="0.2"/>
<path fill-rule="evenodd" clip-rule="evenodd" d="M7.70154 2.81783C7.71716 2.81442 7.74305 2.80319 7.74695 2.80856C7.76258 2.82858 7.744 2.83784 7.72643 2.8437C7.71764 2.83491 7.70935 2.82662 7.70154 2.81783Z" fill="#532E88" stroke="#532E88" stroke-width="0.2"/>
<path fill-rule="evenodd" clip-rule="evenodd" d="M14.2736 2.8437C14.256 2.83784 14.2374 2.82858 14.2531 2.80856C14.257 2.80319 14.2828 2.81442 14.2985 2.81783C14.2902 2.82662 14.2819 2.83491 14.2736 2.8437Z" fill="#532E88" stroke="#532E88" stroke-width="0.2"/>
</svg>
