<svg width="22" height="17" viewBox="0 0 22 17" fill="none" xmlns="http://www.w3.org/2000/svg">
<path fill-rule="evenodd" clip-rule="evenodd" d="M1 10.0939C1 9.09161 1 8.08879 1 7.08598C1.0537 6.98199 1.06591 6.87752 1 6.77352C1 6.64317 1 6.5133 1 6.38295C1.07421 6.33901 1.03515 6.26627 1.03955 6.20768C1.09911 5.38552 1.10352 4.55894 1.30955 3.74996C1.64691 2.42542 2.42806 1.55395 3.79263 1.28397C4.55426 1.13311 5.33444 1.15215 6.1073 1.11602C9.07959 0.977368 12.0534 0.96028 15.0271 1.07941C16.028 1.11944 17.0317 1.13163 18.0262 1.26199C19.426 1.44507 20.3726 2.34146 20.6929 3.70946C20.8892 4.54725 20.9028 5.39773 20.9614 6.24625C20.9653 6.30484 20.9268 6.3766 21 6.42152C21 6.53869 21 6.65587 21 6.77305C20.9341 6.87704 20.9463 6.98151 21 7.0855C21 8.08831 21 9.09065 21 10.0935C20.9458 10.2365 20.9268 10.38 21 10.5231C21 10.6144 21 10.7052 21 10.7965C20.9463 10.8121 20.9629 10.8575 20.961 10.8926C20.9468 11.146 20.9341 11.3994 20.9214 11.6528C20.8857 12.3817 20.8111 13.1028 20.5704 13.799C20.1495 15.0176 19.2995 15.708 18.0248 15.8783C17.2885 15.9765 16.5459 15.9902 15.8058 16.0219C13.3027 16.1288 10.7981 16.1752 8.29307 16.0805C6.83768 16.0258 5.37887 16.04 3.93081 15.8423C2.57062 15.6567 1.62737 14.7872 1.30905 13.4485C1.11474 12.6312 1.10058 11.7998 1.04053 10.9708C1.03613 10.9127 1.07569 10.8399 1.0005 10.7965C1.0005 10.7052 1.0005 10.6144 1.0005 10.5231C1.07325 10.3805 1.05419 10.237 1 10.0939ZM10.7264 2.16081C9.59563 2.18815 8.19639 2.21209 6.79813 2.25896C5.94667 2.28727 5.09422 2.32975 4.24569 2.40445C3.4289 2.4767 2.83914 2.87656 2.55694 3.68798C2.35287 4.27433 2.2894 4.87728 2.25474 5.48756C2.13708 7.54931 2.13464 9.61107 2.25572 11.6728C2.28745 12.2108 2.31089 12.7523 2.48323 13.2708C2.59162 13.5969 2.70049 13.9206 2.9612 14.1711C3.31321 14.5094 3.74821 14.6339 4.21153 14.7013C4.89553 14.8009 5.58539 14.8218 6.27427 14.8492C9.41646 14.9722 12.5591 15.005 15.7008 14.8536C16.4605 14.817 17.2246 14.8184 17.9784 14.7013C18.656 14.5953 19.1433 14.2379 19.3996 13.5774C19.6388 12.9607 19.7077 12.3192 19.7457 11.6689C19.8536 9.82833 19.8624 7.98724 19.778 6.14615C19.7428 5.38844 19.7458 4.62243 19.5207 3.88472C19.3962 3.47608 19.239 3.09576 18.8796 2.82186C18.4539 2.49769 17.9632 2.40247 17.4531 2.37074C15.302 2.23794 13.1489 2.1901 10.7264 2.16081Z" fill="#532E88" stroke="#532E88" stroke-width="0.5"/>
<path fill-rule="evenodd" clip-rule="evenodd" d="M1 10.0938C1.05419 10.2368 1.07323 10.3803 1 10.5234C1 10.3803 1 10.2368 1 10.0938Z" fill="#532E88" stroke="#532E88" stroke-width="0.5"/>
<path fill-rule="evenodd" clip-rule="evenodd" d="M20.9995 10.5234C20.9262 10.3803 20.9453 10.2368 20.9995 10.0938C20.9995 10.2368 20.9995 10.3803 20.9995 10.5234Z" fill="#532E88" stroke="#532E88" stroke-width="0.5"/>
<path fill-rule="evenodd" clip-rule="evenodd" d="M1 6.77344C1.06591 6.87743 1.0537 6.9819 1 7.08589C1 6.9819 1 6.87792 1 6.77344Z" fill="#532E88" stroke="#532E88" stroke-width="0.5"/>
<path fill-rule="evenodd" clip-rule="evenodd" d="M20.9996 7.08589C20.9459 6.9819 20.9337 6.87743 20.9996 6.77344C20.9996 6.87792 20.9996 6.9819 20.9996 7.08589Z" fill="#532E88" stroke="#532E88" stroke-width="0.5"/>
<path fill-rule="evenodd" clip-rule="evenodd" d="M8.45912 8.35524C8.45912 7.58776 8.45716 6.82029 8.4596 6.05281C8.46204 5.31559 9.08795 4.94307 9.73777 5.29752C11.1619 6.07281 12.5841 6.85202 14.0048 7.63366C14.5345 7.92513 14.6556 8.49731 14.2875 8.92304C14.2006 9.02312 14.0898 9.09099 13.9755 9.15251C12.5646 9.91121 11.1541 10.6704 9.74168 11.4262C9.07721 11.7821 8.46107 11.412 8.45912 10.6587C8.45814 9.89019 8.45912 9.12273 8.45912 8.35524ZM9.64013 10.1519C10.744 9.55821 11.822 8.9787 12.9327 8.38161C11.823 7.77426 10.7396 7.18108 9.64013 6.5791C9.64013 7.77475 9.64013 8.94891 9.64013 10.1519Z" fill="#532E88" stroke="#532E88" stroke-width="0.5"/>
</svg>
