<svg width="22" height="22" viewBox="0 0 22 22" fill="none" xmlns="http://www.w3.org/2000/svg">
<path d="M20.1667 15.3449V4.28072C20.1667 3.18072 19.2683 2.36489 18.1775 2.45655H18.1225C16.1975 2.62155 13.2733 3.60239 11.6417 4.62906L11.4858 4.72989C11.22 4.89489 10.78 4.89489 10.5142 4.72989L10.285 4.59239C8.65334 3.57489 5.73834 2.60322 3.81334 2.44739C2.7225 2.35572 1.83334 3.18072 1.83334 4.27155V15.3449C1.83334 16.2249 2.54834 17.0499 3.42834 17.1599L3.69417 17.1966C5.68334 17.4624 8.75417 18.4707 10.5142 19.4332L10.5508 19.4516C10.7983 19.5891 11.1925 19.5891 11.4308 19.4516C13.1908 18.4799 16.2708 17.4624 18.2692 17.1966L18.5717 17.1599C19.4517 17.0499 20.1667 16.2249 20.1667 15.3449Z" stroke="#532E88" stroke-width="1.5" stroke-linecap="round" stroke-linejoin="round"/>
<path d="M11 5.03271V18.7827" stroke="#532E88" stroke-width="1.5" stroke-linecap="round" stroke-linejoin="round"/>
<path d="M7.10416 7.78271H5.04166" stroke="#532E88" stroke-width="1.5" stroke-linecap="round" stroke-linejoin="round"/>
<path d="M7.79166 10.5327H5.04166" stroke="#532E88" stroke-width="1.5" stroke-linecap="round" stroke-linejoin="round"/>
</svg>
