<svg width="60" height="42" viewBox="0 0 60 42" fill="none" xmlns="http://www.w3.org/2000/svg">
<path opacity="0.5" d="M54.7396 29.6338C56.6265 27.5027 55.7665 24.0027 59.1919 22.7465C59.1885 23.5347 59.2759 24.0323 59.1701 24.4837C58.0037 29.4705 56.8437 34.4591 55.5825 39.4219C55.375 40.2351 54.8394 41.346 54.1887 41.5809C52.9926 42.0128 52.4299 40.8967 51.9814 39.8863C50.5892 36.7457 49.1587 33.6225 47.733 30.4712C49.7579 30.0456 49.7578 30.0456 52.8899 34.9431C54.1424 24.3405 46.1763 15.749 35.7837 16.6695C35.9317 17.6961 36.1109 18.7122 36.2198 19.7357C36.5406 22.7487 36.0041 25.5531 34.1931 28.0606C32.8595 29.9079 31.1153 30.9399 28.8273 30.5606C26.4725 30.1696 25.3559 28.428 24.7472 26.285C23.4282 21.6429 25.2875 17.5015 29.6443 15.3298C30.1819 15.0618 30.6774 14.709 31.3735 14.2854C28.0738 9.14213 23.7879 5.43114 18.016 3.84256C9.11584 1.39355 3.93919 7.46972 2.14389 13.686C1.92219 14.4544 1.84361 15.2643 1.60884 16.5432C0.54633 14.7975 0.770823 13.3622 0.996772 11.9732C1.88867 6.48887 6.77266 1.64633 12.2745 0.74879C15.7951 0.174539 19.1602 0.714858 22.3287 2.32308C26.9899 4.68912 30.834 7.97831 33.5487 12.5025C33.8155 12.9478 34.1109 13.3748 34.4857 13.9534C39.3036 13.8491 44.007 14.3556 48.0595 17.4785C52.0179 20.5286 53.1464 25.1423 54.7396 29.6338ZM32.7731 17.0562C27.9163 18.1298 25.559 21.735 27.0136 25.7521C27.357 26.699 28.2841 27.7409 29.1954 28.103C30.4932 28.6191 31.507 27.6397 32.2139 26.4918C34.0468 23.517 33.9896 20.4463 32.7731 17.0562Z" fill="url(#paint0_linear_168_1446)"/>
<defs>
<linearGradient id="paint0_linear_168_1446" x1="27.8322" y1="17.6328" x2="13.8451" y2="-2.28031" gradientUnits="userSpaceOnUse">
<stop stop-color="#532E88"/>
<stop offset="1" stop-color="#CCB7EA"/>
</linearGradient>
</defs>
</svg>
