<svg width="32" height="32" viewBox="0 0 32 32" fill="none" xmlns="http://www.w3.org/2000/svg">
<path d="M24.6266 22.44L25.1466 26.6533C25.28 27.7599 24.0933 28.5333 23.1466 27.9599L17.56 24.6399C16.9466 24.6399 16.3466 24.6 15.76 24.52C16.7466 23.36 17.3333 21.8933 17.3333 20.3066C17.3333 16.5199 14.0533 13.4533 9.99996 13.4533C8.45329 13.4533 7.02663 13.8933 5.83997 14.6666C5.79997 14.3333 5.78662 13.9999 5.78662 13.6533C5.78662 7.58661 11.0533 2.66663 17.56 2.66663C24.0666 2.66663 29.3333 7.58661 29.3333 13.6533C29.3333 17.2533 27.48 20.44 24.6266 22.44Z" stroke="#532E88" stroke-width="2" stroke-linecap="round" stroke-linejoin="round"/>
<path d="M17.3332 20.3066C17.3332 21.8933 16.7465 23.36 15.7598 24.52C14.4398 26.12 12.3465 27.1466 9.99984 27.1466L6.51984 29.2133C5.93317 29.5733 5.1865 29.08 5.2665 28.4L5.59983 25.7734C3.81317 24.5334 2.6665 22.5466 2.6665 20.3066C2.6665 17.96 3.91984 15.8933 5.83984 14.6667C7.02651 13.8933 8.45317 13.4534 9.99984 13.4534C14.0532 13.4534 17.3332 16.52 17.3332 20.3066Z" stroke="#532E88" stroke-width="2" stroke-linecap="round" stroke-linejoin="round"/>
</svg>
