<svg width="32" height="32" viewBox="0 0 32 32" fill="none" xmlns="http://www.w3.org/2000/svg">
<path d="M4.01318 14.96V20.9466C4.01318 26.9333 6.41318 29.3333 12.3999 29.3333H19.5865C25.5732 29.3333 27.9732 26.9333 27.9732 20.9466V14.96" stroke="#532E88" stroke-width="2" stroke-linecap="round" stroke-linejoin="round"/>
<path d="M16 16C18.44 16 20.24 14.0133 20 11.5733L19.12 2.66663H12.8933L12 11.5733C11.76 14.0133 13.56 16 16 16Z" stroke="#532E88" stroke-width="2" stroke-linecap="round" stroke-linejoin="round"/>
<path d="M24.4136 16C27.1069 16 29.0802 13.8133 28.8136 11.1333L28.4402 7.46663C27.9602 3.99996 26.6269 2.66663 23.1336 2.66663H19.0669L20.0002 12.0133C20.2269 14.2133 22.2136 16 24.4136 16Z" stroke="#532E88" stroke-width="2" stroke-linecap="round" stroke-linejoin="round"/>
<path d="M7.51984 16C9.71984 16 11.7065 14.2133 11.9198 12.0133L12.2132 9.06663L12.8532 2.66663H8.78651C5.29318 2.66663 3.95984 3.99996 3.47984 7.46663L3.11984 11.1333C2.85318 13.8133 4.82651 16 7.51984 16Z" stroke="#532E88" stroke-width="2" stroke-linecap="round" stroke-linejoin="round"/>
<path d="M15.9998 22.6666C13.7732 22.6666 12.6665 23.7733 12.6665 26V29.3333H19.3332V26C19.3332 23.7733 18.2265 22.6666 15.9998 22.6666Z" stroke="#532E88" stroke-width="2" stroke-linecap="round" stroke-linejoin="round"/>
</svg>
