<svg width="32" height="32" viewBox="0 0 32 32" fill="none" xmlns="http://www.w3.org/2000/svg">
<path d="M29.3332 22.32V6.22671C29.3332 4.62671 28.0265 3.44005 26.4398 3.57338H26.3598C23.5598 3.81338 19.3065 5.24005 16.9332 6.73338L16.7065 6.88005C16.3198 7.12005 15.6798 7.12005 15.2932 6.88005L14.9598 6.68005C12.5865 5.20005 8.3465 3.78672 5.5465 3.56005C3.95984 3.42672 2.6665 4.62671 2.6665 6.21338V22.32C2.6665 23.6 3.7065 24.8 4.9865 24.96L5.37317 25.0134C8.2665 25.4 12.7332 26.8667 15.2932 28.2667L15.3465 28.2934C15.7065 28.4934 16.2798 28.4934 16.6265 28.2934C19.1865 26.88 23.6665 25.4 26.5732 25.0134L27.0132 24.96C28.2932 24.8 29.3332 23.6 29.3332 22.32Z" stroke="#532E88" stroke-width="2" stroke-linecap="round" stroke-linejoin="round"/>
<path d="M16 7.31995V27.3199" stroke="#532E88" stroke-width="2" stroke-linecap="round" stroke-linejoin="round"/>
<path d="M10.3335 11.3199H7.3335" stroke="#532E88" stroke-width="2" stroke-linecap="round" stroke-linejoin="round"/>
<path d="M11.3335 15.3199H7.3335" stroke="#532E88" stroke-width="2" stroke-linecap="round" stroke-linejoin="round"/>
</svg>
