<svg width="370" height="370" viewBox="0 0 370 370" fill="none" xmlns="http://www.w3.org/2000/svg">
<circle cx="185" cy="185" r="184.5" stroke="#CFE6E8"/>
<path d="M72 25L172 184" stroke="#D1E8EA" stroke-dasharray="5 5"/>
<path d="M280 36L201.5 178" stroke="#D1E8EA" stroke-dasharray="5 5"/>
<path d="M281 330.5L201.5 198.5" stroke="#D1E8EA" stroke-dasharray="5 5"/>
<path d="M73.5 330.5L166 208" stroke="#D1E8EA" stroke-dasharray="5 5"/>
<path d="M13 182.5H143.5" stroke="#D1E8EA" stroke-dasharray="5 5"/>
<path d="M340.5 182.5H207.5" stroke="#D1E8EA" stroke-dasharray="5 5"/>
<circle cx="185" cy="185" r="60" fill="url(#paint0_linear_2018_693)"/>
<g filter="url(#filter0_d_2018_693)">
<path d="M185 162.5C179.105 162.5 174.312 167.293 174.312 173.188C174.312 178.97 178.835 183.65 184.73 183.852C184.91 183.83 185.09 183.83 185.225 183.852C185.27 183.852 185.292 183.852 185.337 183.852C185.36 183.852 185.36 183.852 185.383 183.852C191.143 183.65 195.665 178.97 195.688 173.188C195.688 167.293 190.895 162.5 185 162.5Z" fill="#532E88"/>
<path d="M196.43 189.837C190.153 185.652 179.915 185.652 173.593 189.837C170.735 191.75 169.16 194.337 169.16 197.105C169.16 199.872 170.735 202.437 173.57 204.327C176.72 206.442 180.86 207.5 185 207.5C189.14 207.5 193.28 206.442 196.43 204.327C199.265 202.415 200.84 199.85 200.84 197.06C200.818 194.292 199.265 191.727 196.43 189.837Z" fill="#532E88"/>
</g>
<defs>
<filter id="filter0_d_2018_693" x="154" y="158" width="62" height="62" filterUnits="userSpaceOnUse" color-interpolation-filters="sRGB">
<feFlood flood-opacity="0" result="BackgroundImageFix"/>
<feColorMatrix in="SourceAlpha" type="matrix" values="0 0 0 0 0 0 0 0 0 0 0 0 0 0 0 0 0 0 127 0" result="hardAlpha"/>
<feOffset dy="4"/>
<feGaussianBlur stdDeviation="2"/>
<feComposite in2="hardAlpha" operator="out"/>
<feColorMatrix type="matrix" values="0 0 0 0 0 0 0 0 0 0 0 0 0 0 0 0 0 0 0.25 0"/>
<feBlend mode="normal" in2="BackgroundImageFix" result="effect1_dropShadow_2018_693"/>
<feBlend mode="normal" in="SourceGraphic" in2="effect1_dropShadow_2018_693" result="shape"/>
</filter>
<linearGradient id="paint0_linear_2018_693" x1="185" y1="125" x2="185" y2="245" gradientUnits="userSpaceOnUse">
<stop stop-color="#E7F5F7"/>
<stop offset="1" stop-color="#D1ECF0"/>
</linearGradient>
</defs>
</svg>
