<svg width="28" height="29" viewBox="0 0 28 29" fill="none" xmlns="http://www.w3.org/2000/svg">
<path d="M26.7721 3.52505C24.7702 8.51688 19.7525 15.3027 15.5538 18.6695L12.9929 20.7235C12.6679 20.9575 12.343 21.1655 11.979 21.3084C11.979 21.0745 11.966 20.8145 11.927 20.5675C11.784 19.4755 11.29 18.4615 10.4191 17.5906C9.53512 16.7066 8.45618 16.1866 7.35124 16.0436C7.09126 16.0306 6.83127 16.0046 6.57129 16.0306C6.71428 15.6276 6.93527 15.2507 7.20825 14.9387L9.23614 12.3778C12.5899 8.17889 19.4016 3.13506 24.3803 1.14613C25.1472 0.860142 25.8882 1.06813 26.3562 1.54912C26.8501 2.0301 27.0841 2.77108 26.7721 3.52505Z" stroke="#532E88" stroke-width="2" stroke-linecap="round" stroke-linejoin="round"/>
<path d="M11.9778 21.3087C11.9778 22.7387 11.4318 24.1036 10.4049 25.1436C9.61191 25.9366 8.53297 26.4825 7.24604 26.6515L4.04822 27.0025C2.30632 27.1975 0.81141 25.7156 1.0194 23.9476L1.37038 20.7497C1.68236 17.9028 4.06122 16.0829 6.58308 16.0309C6.84306 16.0179 7.11605 16.0309 7.36303 16.0439C8.46797 16.1869 9.54691 16.6939 10.4309 17.5908C11.3018 18.4618 11.7958 19.4758 11.9388 20.5677C11.9518 20.8147 11.9778 21.0617 11.9778 21.3087Z" stroke="#532E88" stroke-width="2" stroke-linecap="round" stroke-linejoin="round"/>
<path d="M16.9304 17.2135C16.9304 13.8206 14.1745 11.0647 10.7817 11.0647" stroke="#532E88" stroke-width="2" stroke-linecap="round" stroke-linejoin="round"/>
<path d="M24.5752 14.9521L25.5371 15.9011C27.474 17.838 27.474 19.749 25.5371 21.6859L21.6893 25.5338C19.7784 27.4447 17.8416 27.4447 15.9307 25.5338" stroke="#532E88" stroke-width="2" stroke-linecap="round"/>
<path d="M2.46491 12.0659C0.554016 10.1289 0.554016 8.218 2.46491 6.28107L6.31269 2.4332C8.22358 0.522266 10.1605 0.522266 12.0714 2.4332L13.0333 3.39517" stroke="#532E88" stroke-width="2" stroke-linecap="round"/>
<path d="M13.0451 3.40796L8.23535 8.21779" stroke="#532E88" stroke-width="2" stroke-linecap="round"/>
<path d="M24.5724 14.9521L20.7246 18.787" stroke="#532E88" stroke-width="2" stroke-linecap="round"/>
</svg>
