<svg width="30" height="30" viewBox="0 0 30 30" fill="none" xmlns="http://www.w3.org/2000/svg">
<path d="M12.5624 3.16212L5.0374 8.07462C2.6249 9.64962 2.6249 13.1746 5.0374 14.7496L12.5624 19.6621C13.9124 20.5496 16.1374 20.5496 17.4874 19.6621L24.9749 14.7496C27.3749 13.1746 27.3749 9.66212 24.9749 8.08712L17.4874 3.17462C16.1374 2.27462 13.9124 2.27462 12.5624 3.16212Z" stroke="#532E88" stroke-width="1.5" stroke-linecap="round" stroke-linejoin="round"/>
<path d="M7.0374 16.3496L7.0249 22.2121C7.0249 23.7996 8.2499 25.4996 9.7499 25.9996L13.7374 27.3246C14.4249 27.5496 15.5624 27.5496 16.2624 27.3246L20.2499 25.9996C21.7499 25.4996 22.9749 23.7996 22.9749 22.2121V16.4121" stroke="#532E88" stroke-width="1.5" stroke-linecap="round" stroke-linejoin="round"/>
<path d="M26.75 18.75V11.25" stroke="#532E88" stroke-width="1.5" stroke-linecap="round" stroke-linejoin="round"/>
</svg>
