<svg width="40" height="40" viewBox="0 0 40 40" fill="none" xmlns="http://www.w3.org/2000/svg">
<path d="M13.3335 20.333H25.0002" stroke="#532E88" stroke-width="2" stroke-miterlimit="10" stroke-linecap="round" stroke-linejoin="round"/>
<path d="M13.3335 27H20.6335" stroke="#532E88" stroke-width="2" stroke-miterlimit="10" stroke-linecap="round" stroke-linejoin="round"/>
<path d="M16.6668 9.99967H23.3335C26.6668 9.99967 26.6668 8.33301 26.6668 6.66634C26.6668 3.33301 25.0002 3.33301 23.3335 3.33301H16.6668C15.0002 3.33301 13.3335 3.33301 13.3335 6.66634C13.3335 9.99967 15.0002 9.99967 16.6668 9.99967Z" stroke="#532E88" stroke-width="2" stroke-miterlimit="10" stroke-linecap="round" stroke-linejoin="round"/>
<path d="M26.6667 6.7002C32.2167 7.0002 35 9.05019 35 16.6669V26.6669C35 33.3335 33.3333 36.6669 25 36.6669H15C6.66667 36.6669 5 33.3335 5 26.6669V16.6669C5 9.06686 7.78333 7.0002 13.3333 6.7002" stroke="#532E88" stroke-width="2" stroke-miterlimit="10" stroke-linecap="round" stroke-linejoin="round"/>
</svg>
