<svg width="36" height="34" viewBox="0 0 36 34" fill="none" xmlns="http://www.w3.org/2000/svg">
<path d="M33.8583 0.796036L23.1917 14.0969C22.5614 14.8888 22.2059 15.8747 22.2059 16.8929V22.6302C22.2059 23.5514 21.9473 24.4564 21.4463 25.216L18.6988 29.4503C18.2786 30.0806 17.3574 30.0806 16.9372 29.4503L14.1898 25.216C13.6888 24.4403 13.4302 23.5514 13.4302 22.6302V16.8929C13.4302 15.8747 13.0908 14.8888 12.4443 14.0969L1.77776 0.796036C1.17979 0.0526083 0 0.472806 0 1.42633V17.6201C0 19.0585 0.646459 20.4161 1.7616 21.3211L16.8403 33.4907C17.4059 33.9432 18.214 33.9432 18.7796 33.4907L33.8583 21.3211C34.9734 20.4161 35.6199 19.0585 35.6199 17.6201V1.42633C35.6361 0.488967 34.4401 0.0687698 33.8583 0.796036Z" fill="#522E88"/>
</svg>
