<svg width="273" height="69" viewBox="0 0 273 69" fill="none" xmlns="http://www.w3.org/2000/svg">
<path d="M108.879 52.9376H99.2782L85.6953 16.3867H94.9255L105.483 46.1152H103.014L113.139 16.3867H122.523L108.879 52.9376Z" fill="white"/>
<path d="M129.994 10.743C128.42 10.743 127.123 10.2182 126.073 9.16861C125.024 8.119 124.499 6.85331 124.499 5.37151C124.499 3.85885 125.024 2.56227 126.073 1.54354C127.123 0.524802 128.45 0 129.994 0C131.599 0 132.957 0.524802 134.038 1.54354C135.118 2.56227 135.674 3.85885 135.674 5.37151C135.674 6.85331 135.118 8.119 134.038 9.16861C132.957 10.2182 131.599 10.743 129.994 10.743ZM134.624 52.9433H125.456V16.3924H134.624V52.9433Z" fill="white"/>
<path d="M149.813 52.941H140.645V16.3901H149.813V21.422H150.091C150.554 20.465 151.171 19.5389 151.943 18.6745C152.715 17.8101 153.764 17.1001 155.03 16.5444C156.327 15.9888 157.932 15.7109 159.877 15.7109C160.741 15.7109 161.821 15.8344 163.118 16.0505V24.9413C161.729 24.7561 160.556 24.6635 159.599 24.6635C157.994 24.6635 156.574 24.8795 155.37 25.3117C154.135 25.7439 153.116 26.4231 152.252 27.3492C151.387 28.2753 150.77 29.4484 150.4 30.8684C149.998 32.2885 149.813 34.0173 149.813 36.0547V52.941Z" fill="white"/>
<path d="M190.098 23.7711H166.421V16.393H190.098V23.7711ZM185.128 53.6539C183.091 53.6539 181.362 53.407 179.942 52.9439C178.522 52.45 177.349 51.8017 176.423 50.9682C175.497 50.1347 174.756 49.2085 174.231 48.1898C173.706 47.1711 173.274 46.0597 173.058 44.9175C172.811 43.7753 172.718 42.6331 172.718 41.5526V7.28613H181.979V41.3057C181.979 42.9109 182.412 44.1458 183.276 44.9484C184.14 45.7819 185.53 46.1832 187.413 46.1832C188.339 46.1832 189.543 46.0598 190.994 45.8437V53.0057C188.647 53.4379 186.672 53.6539 185.128 53.6539Z" fill="white"/>
<path d="M209.147 15.7109C210.906 15.7109 212.419 15.9579 213.715 16.3901C215.012 16.8532 216.093 17.378 216.988 18.0262C217.883 18.6437 218.624 19.2919 219.149 19.9094C219.704 20.5576 220.075 21.0516 220.26 21.422H220.816V16.3901H229.922V52.941H220.816V47.9091H220.26C220.075 48.2178 219.704 48.7117 219.149 49.3909C218.593 50.0392 217.883 50.7183 216.988 51.3666C216.093 52.0149 215.012 52.5397 213.715 53.0028C212.419 53.4349 210.906 53.651 209.147 53.651C206.43 53.651 204.053 53.0954 202.047 52.0149C200.009 50.9344 198.342 49.4835 196.984 47.6621C195.626 45.8407 194.607 43.8033 193.959 41.5497C193.279 39.2962 192.971 37.0117 192.971 34.6347C192.971 32.2885 193.31 30.0041 193.959 27.7505C194.638 25.497 195.626 23.4595 196.984 21.6381C198.342 19.8167 200.04 18.3658 202.047 17.2853C204.053 16.2357 206.43 15.7109 209.147 15.7109ZM211.555 23.2125C209.486 23.2125 207.758 23.7682 206.338 24.9104C204.917 26.0526 203.899 27.4727 203.189 29.2323C202.51 30.9919 202.17 32.8133 202.17 34.6964C202.17 36.5795 202.51 38.4009 203.189 40.1605C203.868 41.9202 204.917 43.3402 206.338 44.4824C207.727 45.6247 209.486 46.1803 211.555 46.1803C213.623 46.1803 215.352 45.6247 216.741 44.4824C218.13 43.3402 219.149 41.9202 219.859 40.1605C220.538 38.4009 220.877 36.6104 220.877 34.6964C220.877 32.8133 220.538 30.9919 219.859 29.2323C219.18 27.4727 218.13 26.0526 216.741 24.9104C215.352 23.7991 213.623 23.2125 211.555 23.2125Z" fill="white"/>
<path d="M245.11 66.4933H235.941V16.3901H245.11V21.422H245.604C245.882 21.0516 246.283 20.5576 246.777 19.9094C247.271 19.2611 247.981 18.6128 248.876 17.9645C249.771 17.3162 250.883 16.7914 252.179 16.3592C253.476 15.927 254.988 15.7109 256.686 15.7109C259.403 15.7109 261.78 16.2357 263.817 17.3162C265.855 18.3967 267.553 19.8476 268.88 21.669C270.207 23.4904 271.226 25.5278 271.874 27.7814C272.553 30.0349 272.862 32.3503 272.862 34.6964C272.862 37.0426 272.523 39.327 271.874 41.6115C271.195 43.865 270.207 45.9025 268.88 47.7239C267.553 49.5453 265.855 50.9962 263.817 52.0766C261.78 53.1571 259.403 53.7128 256.686 53.7128C254.988 53.7128 253.476 53.4658 252.179 53.0336C250.883 52.5706 249.771 52.0458 248.876 51.3975C247.981 50.7801 247.271 50.1318 246.777 49.4526C246.283 48.7735 245.882 48.2795 245.604 47.9708H245.11V66.4933ZM244.986 34.6656C244.986 36.5178 245.326 38.3083 246.005 40.0679C246.684 41.8276 247.734 43.2785 249.123 44.4207C250.512 45.5629 252.21 46.1186 254.309 46.1186C256.439 46.1186 258.168 45.5629 259.557 44.4207C260.946 43.2785 261.965 41.8584 262.644 40.0679C263.323 38.3083 263.663 36.4869 263.663 34.6656C263.663 32.7824 263.323 30.9611 262.644 29.2015C261.965 27.4418 260.915 26.0218 259.557 24.8795C258.168 23.7373 256.439 23.1816 254.309 23.1816C252.241 23.1816 250.512 23.7373 249.123 24.8795C247.734 26.0218 246.715 27.4418 246.005 29.2015C245.326 30.9611 244.986 32.7824 244.986 34.6656Z" fill="white"/>
<path d="M64.6731 5.34015L44.2988 30.7468C43.0948 32.2594 42.4157 34.1425 42.4157 36.0874V47.0465C42.4157 48.8061 41.9218 50.5349 40.9648 51.9858L35.7168 60.0739C34.9142 61.2779 33.1546 61.2779 32.352 60.0739L27.1041 51.9858C26.1471 50.504 25.6532 48.8061 25.6532 47.0465V36.0874C25.6532 34.1425 25.0049 32.2594 23.7701 30.7468L3.39573 5.34015C2.25353 3.9201 0 4.72273 0 6.54411V37.4766C0 40.2241 1.23481 42.8172 3.36486 44.546L32.1668 67.7916C33.2472 68.656 34.7907 68.656 35.8712 67.7916L64.6731 44.546C66.8032 42.8172 68.038 40.2241 68.038 37.4766V6.54411C68.0688 4.75361 65.7845 3.95097 64.6731 5.34015Z" fill="white"/>
</svg>
