<svg width="46" height="46" viewBox="0 0 46 46" fill="none" xmlns="http://www.w3.org/2000/svg">
<path d="M38.276 19.166H7.60938V34.4993C7.60938 40.2493 9.52604 42.166 15.276 42.166H30.6094C36.3594 42.166 38.276 40.2493 38.276 34.4993V19.166Z" stroke="#532E88" stroke-width="2" stroke-miterlimit="10" stroke-linecap="round" stroke-linejoin="round"/>
<path d="M41.2082 13.4173V15.334C41.2082 17.4423 40.1923 19.1673 37.3748 19.1673H8.62484C5.69234 19.1673 4.7915 17.4423 4.7915 15.334V13.4173C4.7915 11.309 5.69234 9.58398 8.62484 9.58398H37.3748C40.1923 9.58398 41.2082 11.309 41.2082 13.4173Z" stroke="#532E88" stroke-width="2" stroke-miterlimit="10" stroke-linecap="round" stroke-linejoin="round"/>
<path d="M22.3102 9.58408H11.7302C11.0785 8.87491 11.0977 7.78241 11.7877 7.09241L14.5093 4.37074C15.2185 3.66158 16.3877 3.66158 17.0968 4.37074L22.3102 9.58408Z" stroke="#532E88" stroke-width="2" stroke-miterlimit="10" stroke-linecap="round" stroke-linejoin="round"/>
<path d="M34.2509 9.58408H23.6709L28.8842 4.37074C29.5934 3.66158 30.7626 3.66158 31.4717 4.37074L34.1934 7.09241C34.8834 7.78241 34.9026 8.87491 34.2509 9.58408Z" stroke="#532E88" stroke-width="2" stroke-miterlimit="10" stroke-linecap="round" stroke-linejoin="round"/>
<path d="M17.1348 19.166V29.0177C17.1348 30.551 18.8214 31.4518 20.1056 30.6277L21.9073 29.4393C22.5589 29.0177 23.3831 29.0177 24.0156 29.4393L25.7214 30.5893C26.9864 31.4327 28.6923 30.5318 28.6923 28.9985V19.166H17.1348Z" stroke="#532E88" stroke-width="2" stroke-miterlimit="10" stroke-linecap="round" stroke-linejoin="round"/>
</svg>
