<svg width="38" height="38" viewBox="0 0 38 38" fill="none" xmlns="http://www.w3.org/2000/svg">
<path d="M14.5031 17.2107C14.3447 17.1948 14.1547 17.1948 13.9806 17.2107C10.2122 17.084 7.21973 13.9965 7.21973 10.1965C7.21973 6.31734 10.3547 3.1665 14.2497 3.1665C18.1289 3.1665 21.2797 6.31734 21.2797 10.1965C21.2639 13.9965 18.2714 17.084 14.5031 17.2107Z" stroke="white" stroke-width="2.5" stroke-linecap="round" stroke-linejoin="round"/>
<path d="M25.9822 6.3335C29.0539 6.3335 31.5239 8.81933 31.5239 11.8752C31.5239 14.8677 29.1489 17.306 26.188 17.4168C26.0614 17.401 25.9189 17.401 25.7764 17.4168" stroke="white" stroke-width="2.5" stroke-linecap="round" stroke-linejoin="round"/>
<path d="M6.58664 23.0535C2.75497 25.6185 2.75497 29.7985 6.58664 32.3477C10.9408 35.261 18.0816 35.261 22.4358 32.3477C26.2675 29.7827 26.2675 25.6027 22.4358 23.0535C18.0975 20.156 10.9566 20.156 6.58664 23.0535Z" stroke="white" stroke-width="2.5" stroke-linecap="round" stroke-linejoin="round"/>
<path d="M29.0381 31.6665C30.1781 31.429 31.2548 30.9698 32.1414 30.289C34.6114 28.4365 34.6114 25.3807 32.1414 23.5282C31.2706 22.8632 30.2098 22.4198 29.0856 22.1665" stroke="white" stroke-width="2.5" stroke-linecap="round" stroke-linejoin="round"/>
</svg>
