<svg width="21" height="21" viewBox="0 0 21 21" fill="none" xmlns="http://www.w3.org/2000/svg">
<g clip-path="url(#clip0_112_3560)">
<path d="M0 6.47168H4.63127V20.7098H0V6.47168ZM17.2463 6.63865C17.1971 6.62312 17.1505 6.60629 17.0987 6.59206C17.0365 6.57799 16.9739 6.5659 16.911 6.55581C16.6375 6.4999 16.3591 6.47172 16.08 6.47168C13.38 6.47168 11.6675 8.43525 11.1031 9.19375V6.47168H6.47187V20.7098H11.1031V12.9436C11.1031 12.9436 14.6031 8.06894 16.08 11.6492V20.7098H20.71V11.1017C20.7081 10.0793 20.367 9.08644 19.7401 8.27877C19.1133 7.47109 18.2362 6.89425 17.2463 6.63865Z" fill="#E3DDEB"/>
<path d="M2.26516 4.53031C3.51617 4.53031 4.53031 3.51617 4.53031 2.26516C4.53031 1.01415 3.51617 0 2.26516 0C1.01415 0 0 1.01415 0 2.26516C0 3.51617 1.01415 4.53031 2.26516 4.53031Z" fill="#E3DDEB"/>
</g>
<defs>
<clipPath id="clip0_112_3560">
<rect width="20.71" height="20.71" fill="white"/>
</clipPath>
</defs>
</svg>
