<svg width="28" height="18" viewBox="0 0 28 18" fill="none" xmlns="http://www.w3.org/2000/svg">
<path d="M1.16845 5.34259L4.52929 7.85652C4.99456 8.20567 4.99456 8.90478 4.52929 9.25394L1.16927 11.7671C0.686947 12.1268 0.00163548 11.7833 0.00163548 11.1808L0 5.92804C0.000811992 5.32554 0.686941 4.98206 1.16845 5.34259Z" fill="#D9CFE9"/>
<path d="M8.65259 5.34259L12.0126 7.85652C12.4787 8.20567 12.4787 8.90478 12.0126 9.25394L8.65259 11.7671C8.17108 12.1268 7.48495 11.7833 7.48495 11.1808L7.48332 5.92804C7.48332 5.32554 8.17026 4.98206 8.65259 5.34259Z" fill="#D9CFE9"/>
<path d="M18.3348 0.373966L26.8932 6.7765C28.0803 7.66482 28.0803 9.44714 26.8932 10.3355L18.3364 16.7356C17.1095 17.6523 15.3629 16.7778 15.3629 15.2431L15.3588 1.86557C15.3588 0.331722 17.1079 -0.543584 18.3348 0.373966Z" fill="#D9CFE9"/>
</svg>
