<svg width="245" height="153" viewBox="0 0 245 153" fill="none" xmlns="http://www.w3.org/2000/svg">
<path d="M17.6755 152.94C17.6755 152.94 -2.26793 105.333 17.9602 73.925C36.7177 44.8 65.7535 58.7732 84.0592 32.0376C130.439 -35.7004 244.334 16.3733 229.48 73.9428C222.291 101.803 251.357 125.151 236.547 153L17.6755 152.94Z" fill="#FDFBFF"/>
<path d="M205.17 70.9701L139.293 141.12L105.379 104.346C99.0291 111.463 89.2241 122.447 79.3595 133.47C72.6179 141.004 67.1605 147.089 62.7369 152.016L31.9297 151.975C40.4741 142.716 74.8754 104.236 98.0518 78.2311L105.138 70.2802L139.423 107.454L189.755 53.8555L205.17 70.9701Z" fill="#E8DEF8"/>
<path d="M181.593 45.4152L212.64 82.8166L218.849 40.1299L181.593 45.4152Z" fill="#E8DEF8"/>
<path d="M244.309 152.436H0.369043C0.165717 152.436 0 152.27 0 152.067V151.941C0 151.738 0.165717 151.572 0.369043 151.572H244.309C244.513 151.572 244.678 151.738 244.678 151.941V152.067C244.678 152.27 244.513 152.436 244.309 152.436Z" fill="#BAB7C4"/>
<path d="M64.5038 149.015V150.944C64.5038 151.098 64.4486 151.24 64.3522 151.359C64.2511 151.484 64.1066 151.582 63.9362 151.638C63.8845 151.655 63.8304 151.667 63.774 151.676C63.7234 151.685 63.6717 151.688 63.6177 151.688H27.0295C26.5582 151.688 26.1692 151.374 26.1457 150.983C26.1457 150.97 26.1445 150.957 26.1445 150.944V149.015C26.1445 149.003 26.1445 148.99 26.1457 148.977C26.1692 148.585 26.5582 148.271 27.0295 148.271H63.6188C63.6717 148.271 63.7246 148.276 63.7752 148.283C63.8304 148.291 63.8856 148.304 63.9373 148.322C64.1066 148.377 64.2523 148.475 64.3534 148.601C64.4486 148.719 64.5038 148.861 64.5038 149.015Z" fill="#B2E0E3"/>
<path d="M46.5371 151.688H26.9355C26.5147 151.688 26.168 151.374 26.1457 150.983C26.1457 150.97 26.1445 150.957 26.1445 150.944V149.015C26.1445 149.003 26.1445 148.99 26.1457 148.977C26.1669 148.585 26.5147 148.271 26.9355 148.271H44.1301C44.4039 149.278 45.0445 150.669 46.5371 151.688Z" fill="#7FC2C7"/>
<path d="M60.0518 148.272H59.6357V151.688H60.0518V148.272Z" fill="#7FC2C7"/>
<path d="M58.6436 148.272H58.2275V151.688H58.6436V148.272Z" fill="#7FC2C7"/>
<path d="M56.9561 148.272H56.54V151.688H56.9561V148.272Z" fill="#7FC2C7"/>
<path d="M54.3692 148.272H53.9531V151.688H54.3692V148.272Z" fill="#7FC2C7"/>
<path d="M51.6328 148.272H51.2168V151.688H51.6328V148.272Z" fill="#7FC2C7"/>
<path d="M47.4395 148.272H47.0234V151.688H47.4395V148.272Z" fill="#7FC2C7"/>
<path d="M43.5118 148.272H43.0957V151.688H43.5118V148.272Z" fill="#7FC2C7"/>
<path d="M40.0039 148.272H39.5879V151.688H40.0039V148.272Z" fill="#7FC2C7"/>
<path d="M61.3916 148.272H60.9756V151.688H61.3916V148.272Z" fill="#7FC2C7"/>
<path d="M62.2793 148.272H61.8633V151.688H62.2793V148.272Z" fill="#7FC2C7"/>
<path d="M63.1329 148.272H62.7168V151.688H63.1329V148.272Z" fill="#7FC2C7"/>
<path d="M63.7754 148.284V151.676C63.7249 151.684 63.6732 151.688 63.6191 151.688H63.3594V148.272H63.6191C63.672 148.272 63.7249 148.276 63.7754 148.284Z" fill="#7FC2C7"/>
<path d="M64.3516 148.601V151.36C64.2505 151.485 64.106 151.584 63.9355 151.639V148.323C64.106 148.377 64.2505 148.476 64.3516 148.601Z" fill="#7FC2C7"/>
<path d="M60.5917 145.598V147.527C60.5917 147.681 60.5365 147.823 60.4401 147.942C60.339 148.067 60.1945 148.165 60.0252 148.221C59.9735 148.238 59.9195 148.251 59.863 148.259C59.8125 148.268 59.7608 148.271 59.7067 148.271H23.1174C22.6461 148.271 22.2571 147.957 22.2336 147.566C22.2336 147.553 22.2324 147.54 22.2324 147.527V145.598C22.2324 145.586 22.2324 145.573 22.2336 145.56C22.2571 145.168 22.6461 144.854 23.1174 144.854H59.7067C59.7302 144.854 59.7537 144.856 59.7772 144.857C59.7867 144.857 59.7972 144.858 59.8066 144.859C59.8172 144.86 59.829 144.862 59.8395 144.863C59.8478 144.864 59.8548 144.865 59.863 144.866C59.9183 144.874 59.9735 144.887 60.0252 144.905C60.0335 144.907 60.0405 144.91 60.0487 144.913C60.0558 144.916 60.064 144.919 60.0711 144.921C60.0864 144.927 60.1005 144.933 60.1157 144.939C60.124 144.943 60.1334 144.947 60.1416 144.951C60.1498 144.954 60.1569 144.958 60.1639 144.961C60.178 144.968 60.1921 144.976 60.2051 144.984C60.2203 144.993 60.2356 145.003 60.2509 145.012C60.2626 145.019 60.2744 145.027 60.285 145.035C60.285 145.035 60.2862 145.037 60.2873 145.037C60.2944 145.041 60.3026 145.047 60.3097 145.053C60.332 145.071 60.3531 145.09 60.3743 145.108C60.3802 145.114 60.3861 145.12 60.3919 145.126C60.3978 145.132 60.4037 145.138 60.4096 145.144C60.4213 145.155 60.4319 145.168 60.4425 145.181C60.5353 145.302 60.5917 145.444 60.5917 145.598Z" fill="#B2E0E3"/>
<path d="M42.624 148.271H23.0224C22.6017 148.271 22.2549 147.957 22.2326 147.566C22.2326 147.553 22.2314 147.54 22.2314 147.527V145.598C22.2314 145.586 22.2314 145.573 22.2326 145.56C22.2538 145.168 22.6005 144.854 23.0224 144.854H40.217C40.2252 144.883 40.2323 144.911 40.2405 144.939C40.5285 145.937 41.1725 147.279 42.624 148.271Z" fill="#7FC2C7"/>
<path d="M56.1397 144.854H55.7236V148.27H56.1397V144.854Z" fill="#7FC2C7"/>
<path d="M54.7305 144.854H54.3145V148.27H54.7305V144.854Z" fill="#7FC2C7"/>
<path d="M53.045 144.854H52.6289V148.27H53.045V144.854Z" fill="#7FC2C7"/>
<path d="M50.4561 144.854H50.04V148.27H50.4561V144.854Z" fill="#7FC2C7"/>
<path d="M47.7198 144.854H47.3037V148.27H47.7198V144.854Z" fill="#7FC2C7"/>
<path d="M43.5245 144.854H43.1084V148.27H43.5245V144.854Z" fill="#7FC2C7"/>
<path d="M39.5977 144.854H39.1816V148.27H39.5977V144.854Z" fill="#7FC2C7"/>
<path d="M36.0918 144.854H35.6758V148.27H36.0918V144.854Z" fill="#7FC2C7"/>
<path d="M57.4795 144.854H57.0635V148.27H57.4795V144.854Z" fill="#7FC2C7"/>
<path d="M58.3643 144.854H57.9482V148.27H58.3643V144.854Z" fill="#7FC2C7"/>
<path d="M59.2198 144.854H58.8037V148.27H59.2198V144.854Z" fill="#7FC2C7"/>
<path d="M59.8623 144.866V148.258C59.8118 148.266 59.7601 148.27 59.706 148.27H59.4463V144.854H59.706C59.7601 144.854 59.8118 144.859 59.8623 144.866Z" fill="#7FC2C7"/>
<path d="M60.4385 145.182V147.941C60.3374 148.066 60.1929 148.165 60.0225 148.22V144.904C60.1929 144.958 60.3374 145.056 60.4385 145.182Z" fill="#7FC2C7"/>
<path d="M62.4814 142.268V144.197C62.4814 144.351 62.425 144.493 62.3298 144.612C62.2287 144.737 62.0841 144.835 61.9137 144.89C61.862 144.908 61.8079 144.92 61.7515 144.929C61.701 144.937 61.6493 144.941 61.5952 144.941H25.0071C24.8602 144.941 24.7215 144.91 24.5992 144.856C24.3407 144.742 24.155 144.524 24.1256 144.269C24.1244 144.258 24.1232 144.246 24.1232 144.236C24.1232 144.223 24.1221 144.21 24.1221 144.197V142.268C24.1221 142.255 24.1221 142.243 24.1232 142.23C24.1468 141.838 24.5358 141.524 25.0071 141.524H61.5964C61.6493 141.524 61.7022 141.528 61.7527 141.536C61.8079 141.544 61.8632 141.557 61.9149 141.575C62.0841 141.63 62.2299 141.728 62.3309 141.854C62.4261 141.972 62.4814 142.116 62.4814 142.268Z" fill="#B2E0E3"/>
<path d="M44.5144 144.941H24.9128C24.7812 144.941 24.6578 144.91 24.5485 144.856C24.317 144.742 24.1524 144.524 24.1266 144.269C24.1254 144.258 24.1242 144.246 24.1242 144.236C24.1242 144.223 24.123 144.21 24.123 144.197V142.268C24.123 142.255 24.123 142.243 24.1242 142.23C24.1454 141.838 24.4933 141.524 24.914 141.524H42.1086C42.3754 142.502 42.9889 143.844 44.3957 144.856C44.4333 144.885 44.4733 144.913 44.5144 144.941Z" fill="#7FC2C7"/>
<path d="M58.0284 141.525H57.6123V144.941H58.0284V141.525Z" fill="#7FC2C7"/>
<path d="M56.6202 141.525H56.2041V144.941H56.6202V141.525Z" fill="#7FC2C7"/>
<path d="M54.9336 141.525H54.5176V144.941H54.9336V141.525Z" fill="#7FC2C7"/>
<path d="M52.3457 141.525H51.9297V144.941H52.3457V141.525Z" fill="#7FC2C7"/>
<path d="M49.6094 141.525H49.1934V144.941H49.6094V141.525Z" fill="#7FC2C7"/>
<path d="M45.4161 141.525H45V144.941H45.4161V141.525Z" fill="#7FC2C7"/>
<path d="M41.4883 141.525H41.0723V144.941H41.4883V141.525Z" fill="#7FC2C7"/>
<path d="M37.9805 141.525H37.5645V144.941H37.9805V141.525Z" fill="#7FC2C7"/>
<path d="M59.3682 141.525H58.9521V144.941H59.3682V141.525Z" fill="#7FC2C7"/>
<path d="M60.2539 141.525H59.8379V144.941H60.2539V141.525Z" fill="#7FC2C7"/>
<path d="M61.1094 141.525H60.6934V144.941H61.1094V141.525Z" fill="#7FC2C7"/>
<path d="M61.752 141.537V144.929C61.7015 144.937 61.6497 144.941 61.5957 144.941H61.3359V141.525H61.5957C61.6486 141.525 61.7015 141.529 61.752 141.537Z" fill="#7FC2C7"/>
<path d="M62.3282 141.853V144.612C62.2271 144.737 62.0825 144.835 61.9121 144.891V141.575C62.0825 141.629 62.2271 141.728 62.3282 141.853Z" fill="#7FC2C7"/>
<path d="M63.3574 138.852V140.781C63.3574 140.935 63.3021 141.077 63.2057 141.196C63.1047 141.32 62.9601 141.419 62.7909 141.474C62.7391 141.492 62.6851 141.504 62.6287 141.513C62.5781 141.521 62.5264 141.525 62.4724 141.525H25.883C25.4117 141.525 25.0227 141.211 24.9992 140.82C24.9992 140.807 24.998 140.794 24.998 140.781V138.852C24.998 138.839 24.998 138.827 24.9992 138.814C25.0216 138.452 25.3553 138.157 25.7784 138.113C25.8125 138.11 25.8478 138.108 25.883 138.108H62.4724C62.5252 138.108 62.5781 138.112 62.6287 138.12C62.6839 138.128 62.7391 138.141 62.7909 138.159C62.9601 138.214 63.1058 138.312 63.2057 138.437C63.3021 138.556 63.3574 138.698 63.3574 138.852Z" fill="#B2E0E3"/>
<path d="M45.3908 141.525H25.788C25.3673 141.525 25.0206 141.211 24.9982 140.82C24.9982 140.807 24.9971 140.794 24.9971 140.781V138.852C24.9971 138.839 24.9971 138.827 24.9982 138.814C25.0182 138.452 25.3167 138.157 25.694 138.113C25.7246 138.11 25.7551 138.108 25.788 138.108H42.9826C42.9826 138.11 42.9838 138.112 42.9838 138.113C43.26 139.119 43.9005 140.507 45.3908 141.525Z" fill="#7FC2C7"/>
<path d="M58.9043 138.108H58.4883V141.524H58.9043V138.108Z" fill="#7FC2C7"/>
<path d="M57.4961 138.108H57.0801V141.524H57.4961V138.108Z" fill="#7FC2C7"/>
<path d="M55.8096 138.108H55.3936V141.524H55.8096V138.108Z" fill="#7FC2C7"/>
<path d="M53.2227 138.108H52.8066V141.524H53.2227V138.108Z" fill="#7FC2C7"/>
<path d="M50.4873 138.108H50.0713V141.524H50.4873V138.108Z" fill="#7FC2C7"/>
<path d="M46.292 138.108H45.876V141.524H46.292V138.108Z" fill="#7FC2C7"/>
<path d="M42.3643 138.108H41.9482V141.524H42.3643V138.108Z" fill="#7FC2C7"/>
<path d="M38.8565 138.108H38.4404V141.524H38.8565V138.108Z" fill="#7FC2C7"/>
<path d="M60.2452 138.108H59.8291V141.524H60.2452V138.108Z" fill="#7FC2C7"/>
<path d="M61.1289 138.108H60.7129V141.524H61.1289V138.108Z" fill="#7FC2C7"/>
<path d="M61.9854 138.108H61.5693V141.524H61.9854V138.108Z" fill="#7FC2C7"/>
<path d="M62.628 138.12V141.512C62.5774 141.52 62.5257 141.524 62.4717 141.524H62.2119V138.108H62.4717C62.5245 138.108 62.5763 138.113 62.628 138.12Z" fill="#7FC2C7"/>
<path d="M63.2061 138.436V141.195C63.105 141.32 62.9605 141.418 62.79 141.474V138.158C62.9605 138.212 63.105 138.31 63.2061 138.436Z" fill="#7FC2C7"/>
<path d="M60.6669 135.442V137.371C60.6669 137.525 60.6117 137.667 60.5153 137.786C60.4142 137.911 60.2697 138.009 60.1004 138.064C60.0487 138.082 59.9947 138.095 59.9382 138.103C59.9206 138.106 59.9042 138.108 59.8865 138.11C59.8771 138.111 59.8677 138.111 59.8571 138.113C59.8477 138.114 59.8383 138.114 59.8278 138.114C59.8125 138.115 59.796 138.115 59.7808 138.115H23.1926C22.7213 138.115 22.3323 137.801 22.3088 137.41C22.3088 137.397 22.3076 137.384 22.3076 137.371V135.442C22.3076 135.429 22.3076 135.417 22.3088 135.404C22.3088 135.393 22.31 135.382 22.3111 135.372C22.3464 135.057 22.6179 134.797 22.9752 134.721C22.9834 134.718 22.9928 134.717 23.0022 134.715C23.0633 134.703 23.128 134.697 23.1938 134.697H59.7831C59.8101 134.697 59.836 134.698 59.8618 134.701C59.8736 134.702 59.8854 134.703 59.8971 134.704C59.9112 134.705 59.9241 134.708 59.9382 134.71C59.9935 134.718 60.0487 134.731 60.1004 134.749C60.2697 134.804 60.4154 134.902 60.5153 135.028C60.6117 135.146 60.6669 135.288 60.6669 135.442Z" fill="#B2E0E3"/>
<path d="M42.7002 138.115H23.0986C22.6778 138.115 22.3311 137.801 22.3088 137.41C22.3088 137.397 22.3076 137.384 22.3076 137.371V135.442C22.3076 135.429 22.3076 135.417 22.3088 135.404C22.3088 135.393 22.31 135.382 22.3111 135.372C22.3429 135.05 22.5956 134.787 22.9246 134.716C22.9364 134.713 22.947 134.711 22.9587 134.709C23.0046 134.701 23.0504 134.697 23.0986 134.697H40.2932C40.2955 134.705 40.2979 134.714 40.3002 134.722C40.5776 135.723 41.2181 137.097 42.6931 138.108C42.6943 138.111 42.6978 138.114 42.7002 138.115Z" fill="#7FC2C7"/>
<path d="M56.2149 134.699H55.7988V138.115H56.2149V134.699Z" fill="#7FC2C7"/>
<path d="M54.8057 134.699H54.3896V138.115H54.8057V134.699Z" fill="#7FC2C7"/>
<path d="M53.1202 134.699H52.7041V138.115H53.1202V134.699Z" fill="#7FC2C7"/>
<path d="M50.5323 134.699H50.1162V138.115H50.5323V134.699Z" fill="#7FC2C7"/>
<path d="M47.7959 134.699H47.3799V138.115H47.7959V134.699Z" fill="#7FC2C7"/>
<path d="M43.6026 134.699H43.1865V138.115H43.6026V134.699Z" fill="#7FC2C7"/>
<path d="M39.6748 134.699H39.2588V138.115H39.6748V134.699Z" fill="#7FC2C7"/>
<path d="M36.167 134.699H35.751V138.115H36.167V134.699Z" fill="#7FC2C7"/>
<path d="M57.5547 134.699H57.1387V138.115H57.5547V134.699Z" fill="#7FC2C7"/>
<path d="M58.4395 134.699H58.0234V138.115H58.4395V134.699Z" fill="#7FC2C7"/>
<path d="M59.2959 134.699H58.8799V138.115H59.2959V134.699Z" fill="#7FC2C7"/>
<path d="M59.9385 134.711V138.103C59.888 138.111 59.8363 138.115 59.7822 138.115H59.5225V134.699H59.7822C59.8351 134.698 59.888 134.703 59.9385 134.711Z" fill="#7FC2C7"/>
<path d="M60.5137 135.026V137.786C60.4126 137.911 60.2681 138.009 60.0977 138.065V134.749C60.2681 134.803 60.4126 134.902 60.5137 135.026Z" fill="#7FC2C7"/>
<path d="M60.5917 132.05V133.978C60.5917 134.132 60.5365 134.275 60.4401 134.393C60.339 134.518 60.1945 134.617 60.0252 134.672C59.9841 134.686 59.9418 134.697 59.8995 134.704H59.8983C59.8866 134.706 59.8748 134.708 59.863 134.71C59.8125 134.718 59.7608 134.721 59.7067 134.721H23.1174C23.0786 134.721 23.0398 134.719 23.0034 134.714C22.9881 134.713 22.974 134.711 22.9599 134.708C22.5615 134.648 22.2548 134.362 22.2336 134.016C22.2336 134.003 22.2324 133.99 22.2324 133.977V132.049C22.2324 132.036 22.2324 132.023 22.2336 132.01C22.2571 131.618 22.6461 131.305 23.1174 131.305H59.7067C59.7302 131.305 59.7537 131.306 59.7772 131.307C59.7867 131.308 59.7972 131.308 59.8066 131.309C59.8172 131.311 59.829 131.312 59.8395 131.313C59.8478 131.314 59.8548 131.315 59.863 131.316C59.9183 131.325 59.9735 131.338 60.0252 131.355C60.0335 131.358 60.0405 131.36 60.0487 131.363C60.0558 131.366 60.064 131.368 60.0711 131.372C60.0864 131.378 60.1005 131.383 60.1157 131.389C60.1322 131.396 60.1475 131.405 60.1639 131.413C60.178 131.42 60.1921 131.427 60.2051 131.435C60.2203 131.445 60.2356 131.454 60.2509 131.463C60.2626 131.47 60.2744 131.479 60.285 131.487C60.285 131.487 60.2862 131.488 60.2873 131.488C60.2944 131.494 60.3026 131.499 60.3097 131.504C60.332 131.522 60.3531 131.541 60.3743 131.56C60.3802 131.566 60.3861 131.571 60.3919 131.577C60.3978 131.583 60.4037 131.589 60.4096 131.595C60.4213 131.608 60.4319 131.62 60.4425 131.633C60.5353 131.754 60.5917 131.897 60.5917 132.05Z" fill="#B2E0E3"/>
<path d="M42.624 134.722H23.0224C23.0071 134.722 22.9907 134.722 22.9754 134.721C22.9578 134.72 22.9413 134.719 22.9249 134.716C22.5476 134.673 22.2514 134.378 22.2326 134.017C22.2326 134.004 22.2314 133.991 22.2314 133.978V132.05C22.2314 132.037 22.2314 132.024 22.2326 132.011C22.2538 131.619 22.6005 131.306 23.0224 131.306H40.217C40.2252 131.334 40.2323 131.362 40.2405 131.39C40.5249 132.38 41.1619 133.708 42.5887 134.698C42.6017 134.707 42.6134 134.714 42.624 134.722Z" fill="#7FC2C7"/>
<path d="M56.1397 131.307H55.7236V134.722H56.1397V131.307Z" fill="#7FC2C7"/>
<path d="M54.7315 131.307H54.3154V134.722H54.7315V131.307Z" fill="#7FC2C7"/>
<path d="M53.045 131.307H52.6289V134.722H53.045V131.307Z" fill="#7FC2C7"/>
<path d="M50.4561 131.307H50.04V134.722H50.4561V131.307Z" fill="#7FC2C7"/>
<path d="M47.7198 131.307H47.3037V134.722H47.7198V131.307Z" fill="#7FC2C7"/>
<path d="M43.5254 131.307H43.1094V134.722H43.5254V131.307Z" fill="#7FC2C7"/>
<path d="M39.5996 131.307H39.1836V134.722H39.5996V131.307Z" fill="#7FC2C7"/>
<path d="M36.0918 131.307H35.6758V134.722H36.0918V131.307Z" fill="#7FC2C7"/>
<path d="M57.4805 131.307H57.0645V134.722H57.4805V131.307Z" fill="#7FC2C7"/>
<path d="M58.3643 131.307H57.9482V134.722H58.3643V131.307Z" fill="#7FC2C7"/>
<path d="M59.2198 131.307H58.8037V134.722H59.2198V131.307Z" fill="#7FC2C7"/>
<path d="M59.8623 131.318V134.71C59.8118 134.719 59.7601 134.722 59.706 134.722H59.4463V131.307H59.706C59.7601 131.307 59.8118 131.31 59.8623 131.318Z" fill="#7FC2C7"/>
<path d="M60.4405 131.634V134.393C60.3394 134.518 60.1948 134.617 60.0244 134.672V131.356C60.1948 131.411 60.3394 131.509 60.4405 131.634Z" fill="#7FC2C7"/>
<path d="M62.4824 128.719V130.647C62.4824 130.801 62.4259 130.943 62.3307 131.062C62.2297 131.187 62.0851 131.285 61.9147 131.341C61.863 131.358 61.8089 131.371 61.7525 131.379C61.702 131.388 61.6502 131.391 61.5962 131.391H25.008C24.8611 131.391 24.7224 131.361 24.6002 131.307C24.3417 131.193 24.156 130.974 24.1266 130.719C24.1254 130.708 24.1242 130.697 24.1242 130.686C24.1242 130.673 24.123 130.66 24.123 130.647V128.719C24.123 128.706 24.123 128.693 24.1242 128.68C24.1477 128.288 24.5368 127.975 25.008 127.975H61.5974C61.6502 127.975 61.7031 127.979 61.7537 127.986C61.8089 127.995 61.8641 128.008 61.9159 128.025C62.0851 128.08 62.2308 128.178 62.3319 128.304C62.4271 128.422 62.4824 128.565 62.4824 128.719Z" fill="#B2E0E3"/>
<path d="M44.5154 131.391H24.9138C24.7822 131.391 24.6588 131.361 24.5495 131.307C24.3179 131.193 24.1534 130.974 24.1275 130.719C24.1264 130.708 24.1252 130.697 24.1252 130.686C24.1252 130.673 24.124 130.66 24.124 130.647V128.719C24.124 128.706 24.124 128.693 24.1252 128.68C24.1464 128.288 24.4942 127.975 24.915 127.975H42.1096C42.3764 128.952 42.9899 130.296 44.3967 131.307C44.4343 131.335 44.4743 131.363 44.5154 131.391Z" fill="#7FC2C7"/>
<path d="M58.0284 127.975H57.6123V131.39H58.0284V127.975Z" fill="#7FC2C7"/>
<path d="M56.6202 127.975H56.2041V131.39H56.6202V127.975Z" fill="#7FC2C7"/>
<path d="M54.9336 127.975H54.5176V131.39H54.9336V127.975Z" fill="#7FC2C7"/>
<path d="M52.3457 127.975H51.9297V131.39H52.3457V127.975Z" fill="#7FC2C7"/>
<path d="M49.6094 127.975H49.1934V131.39H49.6094V127.975Z" fill="#7FC2C7"/>
<path d="M45.4161 127.975H45V131.39H45.4161V127.975Z" fill="#7FC2C7"/>
<path d="M41.4883 127.975H41.0723V131.39H41.4883V127.975Z" fill="#7FC2C7"/>
<path d="M37.9805 127.975H37.5645V131.39H37.9805V127.975Z" fill="#7FC2C7"/>
<path d="M59.3682 127.975H58.9521V131.39H59.3682V127.975Z" fill="#7FC2C7"/>
<path d="M60.2559 127.975H59.8398V131.39H60.2559V127.975Z" fill="#7FC2C7"/>
<path d="M61.1094 127.975H60.6934V131.39H61.1094V127.975Z" fill="#7FC2C7"/>
<path d="M61.752 127.986V131.378C61.7015 131.386 61.6497 131.39 61.5957 131.39H61.3359V127.975H61.5957C61.6486 127.975 61.7015 127.979 61.752 127.986Z" fill="#7FC2C7"/>
<path d="M62.3282 128.303V131.061C62.2271 131.186 62.0825 131.285 61.9121 131.34V128.024C62.0825 128.08 62.2271 128.177 62.3282 128.303Z" fill="#7FC2C7"/>
<path d="M65.4716 125.302V127.23C65.4716 127.384 65.4164 127.526 65.32 127.645C65.2189 127.77 65.0744 127.868 64.9051 127.924C64.8534 127.941 64.7993 127.954 64.7429 127.962C64.6924 127.971 64.6407 127.974 64.5866 127.974H27.9973C27.526 127.974 27.137 127.66 27.1135 127.269C27.1135 127.256 27.1123 127.243 27.1123 127.23V125.302C27.1123 125.289 27.1123 125.276 27.1135 125.263C27.1358 124.901 27.4696 124.606 27.8927 124.563C27.9268 124.56 27.962 124.558 27.9973 124.558H64.5866C64.6395 124.558 64.6924 124.562 64.7429 124.569C64.7982 124.578 64.8534 124.591 64.9051 124.608C65.0744 124.663 65.2201 124.761 65.32 124.887C65.4164 125.005 65.4716 125.149 65.4716 125.302Z" fill="#B2E0E3"/>
<path d="M47.5049 127.974H27.9033C27.4825 127.974 27.1358 127.66 27.1135 127.269C27.1135 127.256 27.1123 127.243 27.1123 127.23V125.302C27.1123 125.289 27.1123 125.276 27.1135 125.263C27.1335 124.901 27.432 124.606 27.8093 124.563C27.8398 124.56 27.8704 124.558 27.9033 124.558H45.0979C45.0979 124.559 45.099 124.561 45.099 124.563C45.3752 125.57 46.0146 126.956 47.5049 127.974Z" fill="#7FC2C7"/>
<path d="M61.0205 124.56H60.6045V127.975H61.0205V124.56Z" fill="#7FC2C7"/>
<path d="M59.6123 124.56H59.1963V127.975H59.6123V124.56Z" fill="#7FC2C7"/>
<path d="M57.9268 124.56H57.5107V127.975H57.9268V124.56Z" fill="#7FC2C7"/>
<path d="M55.3379 124.56H54.9219V127.975H55.3379V124.56Z" fill="#7FC2C7"/>
<path d="M52.6016 124.56H52.1855V127.975H52.6016V124.56Z" fill="#7FC2C7"/>
<path d="M48.4063 124.56H47.9902V127.975H48.4063V124.56Z" fill="#7FC2C7"/>
<path d="M44.4795 124.56H44.0635V127.975H44.4795V124.56Z" fill="#7FC2C7"/>
<path d="M40.9737 124.56H40.5576V127.975H40.9737V124.56Z" fill="#7FC2C7"/>
<path d="M62.3614 124.56H61.9453V127.975H62.3614V124.56Z" fill="#7FC2C7"/>
<path d="M63.2461 124.56H62.8301V127.975H63.2461V124.56Z" fill="#7FC2C7"/>
<path d="M64.1016 124.56H63.6855V127.975H64.1016V124.56Z" fill="#7FC2C7"/>
<path d="M64.7432 124.571V127.963C64.6927 127.971 64.6409 127.975 64.5869 127.975H64.3271V124.56H64.5869C64.6409 124.56 64.6927 124.563 64.7432 124.571Z" fill="#7FC2C7"/>
<path d="M65.3233 124.887V127.646C65.2222 127.771 65.0776 127.87 64.9072 127.925V124.609C65.0776 124.663 65.2234 124.762 65.3233 124.887Z" fill="#7FC2C7"/>
<path d="M60.6669 121.893V123.822C60.6669 123.976 60.6117 124.118 60.5153 124.237C60.4142 124.361 60.2697 124.46 60.1004 124.515C60.0487 124.533 59.9947 124.545 59.9382 124.554C59.9206 124.556 59.9042 124.559 59.8865 124.561C59.8724 124.562 59.8595 124.563 59.8454 124.565C59.8383 124.565 59.8313 124.566 59.8254 124.566C59.8113 124.566 59.7972 124.567 59.7819 124.567H23.1926C22.7213 124.567 22.3323 124.253 22.3088 123.862C22.3088 123.849 22.3076 123.836 22.3076 123.823V121.894C22.3076 121.881 22.3076 121.868 22.3088 121.856C22.3323 121.464 22.7213 121.15 23.1926 121.15H59.7819C59.7972 121.15 59.8137 121.15 59.8289 121.152C59.8665 121.153 59.9018 121.156 59.9382 121.162C59.9935 121.17 60.0487 121.183 60.1004 121.201C60.1263 121.209 60.1533 121.219 60.1768 121.229C60.1921 121.236 60.2074 121.242 60.2227 121.25C60.2238 121.25 60.2262 121.251 60.2274 121.253C60.2426 121.26 60.2567 121.268 60.272 121.276C60.2744 121.277 60.2779 121.278 60.2791 121.281C60.2932 121.288 60.3061 121.296 60.319 121.306C60.3508 121.326 60.3801 121.347 60.4072 121.37C60.4166 121.377 60.4248 121.384 60.4319 121.392C60.433 121.394 60.4354 121.395 60.4366 121.397C60.4424 121.402 60.4471 121.407 60.4518 121.411C60.453 121.412 60.4542 121.414 60.4554 121.414C60.4636 121.422 60.473 121.431 60.4812 121.441C60.493 121.454 60.5047 121.467 60.5165 121.481C60.6117 121.597 60.6669 121.739 60.6669 121.893Z" fill="#B2E0E3"/>
<path d="M42.7002 124.565H23.0986C22.6778 124.565 22.3311 124.251 22.3088 123.86C22.3088 123.847 22.3076 123.834 22.3076 123.821V121.892C22.3076 121.879 22.3076 121.867 22.3088 121.854C22.3299 121.462 22.6778 121.148 23.0986 121.148H40.2932C40.3002 121.174 40.3073 121.2 40.3155 121.227C40.6011 122.224 41.244 123.566 42.6919 124.559C42.6943 124.561 42.6978 124.564 42.7002 124.565Z" fill="#7FC2C7"/>
<path d="M56.2149 121.149H55.7988V124.565H56.2149V121.149Z" fill="#7FC2C7"/>
<path d="M54.8057 121.149H54.3896V124.565H54.8057V121.149Z" fill="#7FC2C7"/>
<path d="M53.1202 121.149H52.7041V124.565H53.1202V121.149Z" fill="#7FC2C7"/>
<path d="M50.5323 121.149H50.1162V124.565H50.5323V121.149Z" fill="#7FC2C7"/>
<path d="M47.7959 121.149H47.3799V124.565H47.7959V121.149Z" fill="#7FC2C7"/>
<path d="M43.6016 121.149H43.1855V124.565H43.6016V121.149Z" fill="#7FC2C7"/>
<path d="M39.6739 121.149H39.2578V124.565H39.6739V121.149Z" fill="#7FC2C7"/>
<path d="M36.167 121.149H35.751V124.565H36.167V121.149Z" fill="#7FC2C7"/>
<path d="M57.5547 121.149H57.1387V124.565H57.5547V121.149Z" fill="#7FC2C7"/>
<path d="M58.4395 121.149H58.0234V124.565H58.4395V121.149Z" fill="#7FC2C7"/>
<path d="M59.2959 121.149H58.8799V124.565H59.2959V121.149Z" fill="#7FC2C7"/>
<path d="M59.9385 121.161V124.553C59.888 124.561 59.8363 124.565 59.7822 124.565H59.5225V121.149H59.7822C59.8351 121.149 59.888 121.154 59.9385 121.161Z" fill="#7FC2C7"/>
<path d="M60.5147 121.478V124.237C60.4136 124.362 60.2691 124.46 60.0986 124.516V121.2C60.2691 121.254 60.4136 121.352 60.5147 121.478Z" fill="#7FC2C7"/>
<path d="M63.3593 118.556V120.486C63.3593 120.64 63.3041 120.782 63.2077 120.901C63.1066 121.026 62.9621 121.124 62.7928 121.18C62.7411 121.197 62.687 121.209 62.6306 121.218C62.5801 121.227 62.5284 121.23 62.4743 121.23H25.885C25.7428 121.23 25.6088 121.202 25.4901 121.151C25.2233 121.04 25.0329 120.816 25.0035 120.555C25.0023 120.546 25.0012 120.535 25.0012 120.525C25.0012 120.512 25 120.499 25 120.486V118.557C25 118.545 25 118.532 25.0012 118.519C25.0235 118.157 25.3573 117.862 25.7804 117.818C25.8145 117.815 25.8497 117.813 25.885 117.813H62.4743C62.5272 117.813 62.5801 117.817 62.6306 117.825C62.6859 117.833 62.7411 117.846 62.7928 117.863C62.9621 117.918 63.1078 118.016 63.2077 118.141C63.3041 118.26 63.3593 118.403 63.3593 118.556Z" fill="#B2E0E3"/>
<path d="M45.3926 121.229H25.7898C25.6629 121.229 25.543 121.201 25.4372 121.15C25.1986 121.039 25.0294 120.815 25.0035 120.554C25.0023 120.545 25.0012 120.534 25.0012 120.524C25.0012 120.511 25 120.498 25 120.485V118.556C25 118.544 25 118.531 25.0012 118.518C25.0212 118.156 25.3197 117.861 25.6969 117.817C25.7275 117.814 25.7581 117.812 25.791 117.812H42.9855C42.9855 117.814 42.9867 117.816 42.9867 117.817C43.2547 118.796 43.8705 120.14 45.2797 121.149C45.3162 121.177 45.3538 121.203 45.3926 121.229Z" fill="#7FC2C7"/>
<path d="M58.9082 117.813H58.4922V121.229H58.9082V117.813Z" fill="#7FC2C7"/>
<path d="M57.4991 117.813H57.083V121.229H57.4991V117.813Z" fill="#7FC2C7"/>
<path d="M55.8135 117.813H55.3975V121.229H55.8135V117.813Z" fill="#7FC2C7"/>
<path d="M53.2256 117.813H52.8096V121.229H53.2256V117.813Z" fill="#7FC2C7"/>
<path d="M50.4893 117.813H50.0732V121.229H50.4893V117.813Z" fill="#7FC2C7"/>
<path d="M46.2959 117.813H45.8799V121.229H46.2959V117.813Z" fill="#7FC2C7"/>
<path d="M42.3682 117.813H41.9521V121.229H42.3682V117.813Z" fill="#7FC2C7"/>
<path d="M38.8604 117.813H38.4443V121.229H38.8604V117.813Z" fill="#7FC2C7"/>
<path d="M60.2481 117.813H59.832V121.229H60.2481V117.813Z" fill="#7FC2C7"/>
<path d="M61.1329 117.813H60.7168V121.229H61.1329V117.813Z" fill="#7FC2C7"/>
<path d="M61.9893 117.813H61.5732V121.229H61.9893V117.813Z" fill="#7FC2C7"/>
<path d="M62.6309 117.825V121.217C62.5804 121.225 62.5287 121.229 62.4746 121.229H62.2148V117.813H62.4746C62.5275 117.813 62.5792 117.817 62.6309 117.825Z" fill="#7FC2C7"/>
<path d="M63.208 118.141V120.9C63.107 121.025 62.9624 121.124 62.792 121.179V117.863C62.9624 117.917 63.107 118.016 63.208 118.141Z" fill="#7FC2C7"/>
<path d="M64.5038 115.145V117.074C64.5038 117.228 64.4486 117.37 64.3522 117.489C64.2511 117.613 64.1066 117.712 63.9373 117.767C63.8856 117.785 63.8316 117.798 63.7752 117.806C63.7575 117.809 63.7411 117.811 63.7234 117.813C63.714 117.814 63.7046 117.814 63.6941 117.816C63.6847 117.817 63.6753 117.817 63.6647 117.817C63.6494 117.818 63.6329 117.818 63.6177 117.818H27.0295C26.5582 117.818 26.1692 117.504 26.1457 117.113C26.1457 117.1 26.1445 117.087 26.1445 117.074V115.145C26.1445 115.132 26.1445 115.119 26.1457 115.107C26.1692 114.715 26.5582 114.401 27.0295 114.401H63.6188C63.6717 114.401 63.7246 114.406 63.7752 114.413C63.8304 114.421 63.8856 114.434 63.9373 114.452C64.1066 114.507 64.2523 114.605 64.3522 114.73C64.4486 114.849 64.5038 114.991 64.5038 115.145Z" fill="#B2E0E3"/>
<path d="M46.5371 117.817H26.9355C26.5147 117.817 26.168 117.503 26.1457 117.112C26.1457 117.099 26.1445 117.086 26.1445 117.073V115.144C26.1445 115.131 26.1445 115.118 26.1457 115.106C26.1669 114.714 26.5147 114.4 26.9355 114.4H44.1301C44.4039 115.404 45.0421 116.792 46.53 117.811C46.5312 117.813 46.5347 117.816 46.5371 117.817Z" fill="#7FC2C7"/>
<path d="M60.0528 114.402H59.6367V117.818H60.0528V114.402Z" fill="#7FC2C7"/>
<path d="M58.6446 114.402H58.2285V117.818H58.6446V114.402Z" fill="#7FC2C7"/>
<path d="M56.958 114.402H56.542V117.818H56.958V114.402Z" fill="#7FC2C7"/>
<path d="M54.3702 114.402H53.9541V117.818H54.3702V114.402Z" fill="#7FC2C7"/>
<path d="M51.6338 114.402H51.2178V117.818H51.6338V114.402Z" fill="#7FC2C7"/>
<path d="M47.4405 114.402H47.0244V117.818H47.4405V114.402Z" fill="#7FC2C7"/>
<path d="M43.5127 114.402H43.0967V117.818H43.5127V114.402Z" fill="#7FC2C7"/>
<path d="M40.0049 114.402H39.5889V117.818H40.0049V114.402Z" fill="#7FC2C7"/>
<path d="M61.3926 114.402H60.9766V117.818H61.3926V114.402Z" fill="#7FC2C7"/>
<path d="M62.2784 114.402H61.8623V117.818H62.2784V114.402Z" fill="#7FC2C7"/>
<path d="M63.1338 114.402H62.7178V117.818H63.1338V114.402Z" fill="#7FC2C7"/>
<path d="M63.7754 114.414V117.806C63.7249 117.814 63.6732 117.818 63.6191 117.818H63.3594V114.402H63.6191C63.6732 114.402 63.7249 114.407 63.7754 114.414Z" fill="#7FC2C7"/>
<path d="M64.3526 114.73V117.489C64.2515 117.614 64.1069 117.712 63.9365 117.768V114.452C64.1069 114.506 64.2515 114.604 64.3526 114.73Z" fill="#7FC2C7"/>
<path d="M24.0225 151.698C33.6265 151.698 41.4122 143.913 41.4122 134.309C41.4122 124.705 33.6265 116.919 24.0225 116.919C14.4184 116.919 6.63281 124.705 6.63281 134.309C6.63281 143.913 14.4184 151.698 24.0225 151.698Z" fill="#69A8AD"/>
<path d="M22.5049 151.698C32.109 151.698 39.8946 143.913 39.8946 134.309C39.8946 124.705 32.109 116.919 22.5049 116.919C12.9009 116.919 5.11523 124.705 5.11523 134.309C5.11523 143.913 12.9009 151.698 22.5049 151.698Z" fill="#B2E0E3"/>
<path d="M22.5051 150.357C18.2729 150.357 14.2945 148.709 11.3022 145.717C8.30987 142.725 6.66211 138.746 6.66211 134.514C6.66211 130.282 8.30987 126.303 11.3022 123.311C14.2945 120.319 18.2729 118.671 22.5051 118.671C26.7373 118.671 30.7157 120.319 33.708 123.311C36.7003 126.303 38.3481 130.282 38.3481 134.514C38.3481 138.746 36.7003 142.725 33.708 145.717C30.7157 148.709 26.7373 150.357 22.5051 150.357ZM22.5051 119.615C14.2898 119.615 7.60704 126.299 7.60704 134.513C7.60704 142.728 14.291 149.411 22.5051 149.411C30.7204 149.411 37.4031 142.727 37.4031 134.513C37.4043 126.299 30.7204 119.615 22.5051 119.615Z" fill="#7FC2C7"/>
<path d="M24.686 139.112C24.7272 138.77 24.7142 138.465 24.6484 138.192C24.5826 137.921 24.4533 137.665 24.2594 137.428C24.0655 137.191 23.8057 136.961 23.4814 136.742C23.157 136.522 22.755 136.296 22.2755 136.067C21.4528 135.664 20.7112 135.256 20.0495 134.844C19.3878 134.431 18.8331 133.98 18.3853 133.488C17.9375 132.998 17.6096 132.448 17.4027 131.837C17.1959 131.227 17.1395 130.523 17.2335 129.726C17.3158 129.035 17.5132 128.418 17.8258 127.879C18.1385 127.339 18.5475 126.885 19.0528 126.515C19.5582 126.146 20.1447 125.868 20.8111 125.679C21.4775 125.489 22.2085 125.405 23.0054 125.426L23.3156 122.814L25.4171 123.064L25.1033 125.712C25.8449 125.898 26.5042 126.179 27.0813 126.553C27.6584 126.927 28.1332 127.379 28.5057 127.909C28.8771 128.441 29.1416 129.047 29.2956 129.73C29.4495 130.413 29.4789 131.16 29.3825 131.974L25.5863 131.523C25.7027 130.547 25.5722 129.791 25.1961 129.256C24.82 128.721 24.2688 128.41 23.5413 128.324C23.1476 128.277 22.8009 128.292 22.5035 128.369C22.2062 128.445 21.9535 128.568 21.7466 128.737C21.5398 128.906 21.3776 129.116 21.2589 129.366C21.1402 129.616 21.0638 129.891 21.0273 130.192C20.9921 130.493 21.0027 130.77 21.0614 131.025C21.1202 131.28 21.2448 131.523 21.434 131.756C21.6244 131.989 21.8853 132.218 22.2179 132.442C22.5505 132.668 22.9689 132.909 23.4708 133.166C24.2829 133.585 25.0163 134.002 25.6733 134.418C26.3303 134.834 26.8815 135.29 27.3293 135.784C27.7771 136.279 28.1038 136.831 28.3118 137.441C28.5187 138.052 28.5763 138.751 28.4822 139.54C28.3976 140.256 28.1967 140.883 27.8793 141.424C27.562 141.964 27.1506 142.415 26.6464 142.776C26.1422 143.136 25.5522 143.406 24.8788 143.581C24.2053 143.757 23.4696 143.835 22.6728 143.813L22.3848 146.242L20.2963 145.994L20.5831 143.577C19.865 143.417 19.181 143.175 18.531 142.851C17.8811 142.527 17.3205 142.103 16.8503 141.58C16.379 141.059 16.0276 140.429 15.7961 139.692C15.5634 138.955 15.5058 138.098 15.621 137.121L19.4172 137.571C19.349 138.149 19.3725 138.641 19.4889 139.046C19.6052 139.452 19.7851 139.787 20.0295 140.051C20.274 140.316 20.5631 140.514 20.8981 140.65C21.233 140.785 21.5797 140.873 21.9394 140.915C22.3507 140.965 22.7186 140.954 23.0418 140.886C23.365 140.816 23.6436 140.701 23.8751 140.539C24.1078 140.377 24.2911 140.174 24.4263 139.93C24.565 139.686 24.6508 139.413 24.686 139.112Z" fill="#7FC2C7"/>
<path d="M56.3977 93.1241C56.3977 93.1241 54.2892 96.0929 52.3559 96.1341C50.4225 96.1752 47.4819 94.7578 47.4819 94.7578C47.4819 94.7578 45.7072 90.8017 46.9107 89.255C46.9107 89.255 48.1178 88.725 49.38 89.6605C49.5963 89.8227 49.8172 90.0249 50.0335 90.287C50.3391 90.6548 50.6834 90.8652 51.0478 90.9745C52.4276 91.3941 54.0648 90.4068 54.6771 91.36C55.0344 91.9136 55.4234 92.3296 55.7431 92.6223C56.1227 92.9596 56.3977 93.1241 56.3977 93.1241Z" fill="#C5EDF0"/>
<path d="M28.9102 114.535C28.9102 114.535 36.3627 96.4782 49.7764 96.1338C49.7764 96.1338 62.1581 97.5101 62.8468 114.535H28.9102Z" fill="#C5EDF0"/>
<path d="M46.1024 96.6852C46.1024 96.6852 51.4794 97.8805 53.1377 97.1789C53.1377 97.1789 53.3881 94.9305 51.1244 95.2455C49.5742 95.4618 48.5647 94.7166 47.9711 94.4146C47.1308 93.9868 45.8791 95.745 46.1024 96.6852Z" fill="#8BCED3"/>
<path d="M50.7806 93.2973C50.4363 93.5547 49.3809 89.6621 49.3809 89.6621C49.5971 89.8243 49.8181 90.0265 50.0343 90.2886C50.3399 90.6564 50.6843 90.8668 51.0486 90.9761C51.0521 91.0889 51.1144 93.0458 50.7806 93.2973Z" fill="#C1EAED"/>
<path d="M55.744 92.6226C55.6688 92.6673 53.1818 94.1564 52.8445 94.1564C52.5002 94.1564 54.678 91.3604 54.678 91.3604C55.0353 91.9139 55.4243 92.33 55.744 92.6226Z" fill="#C1EAED"/>
<path d="M36.1911 109.49C36.0535 109.373 41.4646 101.522 42.9549 101.464C44.4452 101.407 47.7936 103.184 50.2182 103.413C52.6428 103.642 54.9934 102.955 55.4518 104.387C55.9102 105.82 57.1713 110.901 56.3979 111.714C55.6234 112.528 39.1657 112.033 36.1911 109.49Z" fill="#ABDCE0"/>
<path d="M154.653 42.8379L149.487 52.6399L146.837 51.6761L147.697 54.2912L142.518 69.8944C142.518 69.8956 139.652 50.0695 154.653 42.8379Z" fill="#8055BC"/>
<path d="M146.034 51.5039C146.034 51.5039 140.321 72.5652 139.771 92.6628C139.771 92.6628 144.509 94.3141 151.952 93.0071C159.436 91.692 146.034 51.5039 146.034 51.5039Z" fill="#633A9D"/>
<path d="M118.679 80.7089C120.212 80.6795 122.371 80.8699 123.084 80.0895C123.893 79.2045 124.846 79.335 124.846 79.335L124.654 78.3242L124.422 77.1172C124.422 77.1172 124.335 77.0067 124.02 77.0114C124.02 77.0114 122.909 77.0596 122.379 76.8692C121.088 76.4073 115.952 79.4854 116.124 80.3399C116.19 80.6595 118.027 80.7218 118.679 80.7089Z" fill="#E2915A"/>
<path d="M146.68 51.0898C146.68 51.0898 138.002 69.0143 135.316 70.9382C132.63 72.8622 123.057 77.0227 123.057 77.0227C123.057 77.0227 122.806 77.6186 123.038 78.4919C123.28 79.4004 123.757 79.6578 123.757 79.6578C123.757 79.6578 137.142 78.4625 140.255 76.5256C143.367 74.5887 150.228 66.8682 150.228 66.8682L146.68 51.0898Z" fill="#633A9D"/>
<path d="M172.08 151.593H177.216C177.862 151.241 178.438 150.437 178.62 149.24C178.871 147.585 180.725 146.682 181.127 145.329C181.528 143.977 179.472 142.072 179.472 142.072L179.129 141.628L178.772 141.169L175.363 141.972C175.363 141.972 175.279 142.784 175.228 143.818C175.191 144.564 175.172 145.426 175.213 146.183C175.313 147.987 174.709 149.931 173.105 150.282C171.919 150.541 171.972 151.244 172.08 151.593Z" fill="#233862"/>
<path d="M142.272 151.593H154.018C154.584 150.903 154.376 148.359 154.29 147.528C154.272 147.362 154.26 147.264 154.26 147.264C154.26 147.264 150.249 144.055 149.698 146.512C149.682 146.589 149.66 146.665 149.638 146.739C148.943 149.036 145.83 150.081 144.033 150.371C142.864 150.562 142.432 151.169 142.272 151.593Z" fill="#233862"/>
<path d="M144.511 86.0287C144.511 86.0287 145.12 93.6269 145.835 102.761C146.808 115.169 147.978 130.41 148.094 133.298C148.294 138.312 149.097 146.332 149.097 146.332C149.097 146.332 151.001 148.237 154.811 147.434C154.811 147.434 158.206 135.986 159.177 123.872C159.193 123.673 159.208 123.474 159.222 123.274C160.125 110.943 161.528 84.9756 161.528 84.9756L144.511 86.0287Z" fill="#6B43A4"/>
<path d="M144.511 86.0287C144.511 86.0287 145.12 93.6269 145.835 102.761L159.177 123.872C159.193 123.673 159.208 123.474 159.222 123.274C160.125 110.943 161.528 84.9756 161.528 84.9756L144.511 86.0287Z" fill="#633A9D"/>
<path d="M147.293 86.9301C147.293 86.9301 158.271 114.45 165.489 127.383C172.708 140.316 174.963 143.925 174.963 143.925C174.963 143.925 179.099 142.271 179.475 141.143C179.475 141.143 176.714 116.175 171.88 110.089C169.149 106.65 165.94 96.3289 165.79 92.7196C165.639 89.1102 164.812 81.9668 164.812 81.9668L147.293 86.9301Z" fill="#6B43A4"/>
<path d="M150.024 46.8124C154.314 48.1663 161.737 44.5124 161.737 44.5124C161.737 44.5124 157.783 41.5435 157.989 35.3721L154.673 38.0447L152.42 39.8605C152.42 39.8605 152.429 40.9312 152.675 42.807C152.719 43.149 152.772 43.518 152.835 43.9129C152.884 44.2279 152.745 44.5453 152.474 44.7133C150.911 45.6794 150.024 46.8124 150.024 46.8124Z" fill="#FFB27D"/>
<path d="M144.035 86.6604C144.164 86.7673 144.314 86.832 144.486 86.832C146.097 86.8096 150.795 87.7052 154.77 87.2962C158.121 86.9742 161.087 85.9822 164.272 84.5542C164.695 84.365 165.668 83.8455 165.647 83.3719C165.633 82.8536 165.581 82.1037 165.517 81.1576C165.291 77.8703 164.898 72.216 165.282 65.6919C165.351 64.4778 165.386 63.272 165.391 62.0861C165.424 53.2444 163.67 45.4674 160.148 42.8359C160.148 42.8359 157.692 44.2146 155.991 44.7575C154.326 45.29 153.466 45.183 152.603 44.6095C152.603 44.6095 150.92 45.4451 150.201 46.229C148.537 48.0437 147.237 50.453 146.378 53.9107C145.647 56.8537 144.963 61.1447 144.727 66.6439C144.619 69.1367 143.928 86.5746 144.035 86.6604Z" fill="white"/>
<path d="M164.871 57.4468L160.149 42.8379C160.149 42.8379 148.812 47.1136 148.287 63.1223C148.08 66.7704 147.205 81.7202 148.788 94.109C148.788 94.109 157.621 97.5503 168.45 90.7594L164.871 57.4468Z" fill="#633A9D"/>
<path d="M152.419 39.8613C152.419 39.8613 152.428 40.932 152.674 42.8077C155.17 42.3799 158.003 38.344 158.003 38.344C156.731 37.9773 155.618 37.9115 154.672 38.0454L152.419 39.8613Z" fill="#ED975D"/>
<path d="M150.561 39.7466C150.561 39.7466 158.287 41.03 159.014 36.2066C159.739 31.382 161.224 28.2992 156.322 27.2755C151.42 26.2518 150.183 27.9478 149.548 29.4992C148.914 31.0506 148.57 39.2882 150.561 39.7466Z" fill="#FFB27D"/>
<path d="M184.465 102.153L168.689 104.401C166.636 104.694 164.717 103.253 164.424 101.199L163.45 94.3628C163.157 92.3095 164.598 90.3903 166.651 90.0976L182.427 87.8493C184.481 87.5566 186.4 88.9975 186.693 91.0508L187.667 97.8875C187.959 99.9407 186.519 101.86 184.465 102.153Z" fill="#BAE6EA"/>
<path d="M165.528 94.0621L166.514 100.978C166.705 102.316 167.584 103.396 168.742 103.908C169.125 104.078 169.54 104.185 169.971 104.218C169.973 104.218 169.973 104.218 169.974 104.218H169.975C170.243 104.239 170.519 104.232 170.797 104.192L186.544 101.947C188.605 101.653 190.05 99.727 189.758 97.6668L188.773 90.7501C188.478 88.6898 186.553 87.2442 184.491 87.5369L179.068 88.3102L178.858 86.8352C178.762 86.1536 178.127 85.6787 177.445 85.7751L176.85 85.8597L173.553 86.3299L172.733 86.4474C172.404 86.4932 172.112 86.6672 171.911 86.934C171.71 87.2019 171.625 87.531 171.673 87.8589L171.884 89.3339L168.742 89.7805C168.618 89.7982 168.496 89.8228 168.378 89.851C168.377 89.8522 168.375 89.8522 168.375 89.8522H168.374C167.161 90.1496 166.203 91.0252 165.76 92.1346V92.1358C165.522 92.7282 165.433 93.3875 165.528 94.0621ZM178.291 88.4195L172.656 89.2234L172.445 87.7484C172.409 87.4946 172.587 87.2583 172.842 87.2219L174.257 87.0198L176.853 86.6495L177.553 86.5496C177.602 86.5438 177.649 86.5438 177.693 86.552C177.889 86.5837 178.05 86.74 178.081 86.9457L178.291 88.4195Z" fill="#8BCED3"/>
<path d="M172.47 81.7957C172.47 81.7957 173.298 82.8993 173.331 83.3401C173.553 86.3288 172.189 86.7425 175.724 88.4021C175.724 88.4021 177.233 88.9779 177.259 87.8062C177.285 86.6344 176.212 86.6156 176.408 84.9749C176.635 83.0827 176.611 83.065 175.369 82.0766L174.546 80.7168L172.47 81.7957Z" fill="#FFB27D"/>
<path d="M174.575 82.6428C173.243 82.9025 171.799 82.7968 171.799 82.7968C171.799 82.7968 167.844 70.5807 167.335 69.4654C166.826 68.3489 155.589 55.1409 155.589 55.1409L160.147 42.8379C160.147 42.8379 162.82 44.4022 165.646 49.2785C169.138 55.3019 172.975 65.004 173.658 66.58C175.697 71.2941 176.405 81.8636 176.405 81.8636C176.405 81.8636 175.621 82.4383 174.575 82.6428Z" fill="#633A9D"/>
<path d="M159.018 35.7411C159.018 35.7411 158.225 35.6083 158.353 34.5164C158.481 33.4246 158.479 31.9966 157.591 32.2634C156.704 32.5302 156.659 33.2401 156.294 32.8252C155.93 32.4103 155.923 30.6603 153.28 30.5392C150.638 30.4182 149.564 31.3373 148.336 30.7966C147.108 30.256 147.042 28.3967 147.042 28.3967C147.042 28.3967 147.391 29.0607 147.919 29.2723C147.919 29.2723 145.869 26.4692 148.242 24.5464C150.615 22.6236 153.035 23.8824 154.409 23.9658C157.435 24.1492 159.39 24.3302 160.378 26.3188C161.368 28.3062 160.96 33.8265 159.018 35.7411Z" fill="black"/>
<path d="M173.776 83.1104C173.776 83.1104 172.978 83.9425 172.928 84.288C172.766 85.3987 172.395 85.8782 172.581 85.9992C172.968 86.2508 173.479 85.428 173.724 84.69C173.968 83.9519 173.776 83.1104 173.776 83.1104Z" fill="#FFB27D"/>
<path d="M160.149 42.8379L154.983 52.6399L152.333 51.6761L153.193 54.2912L148.014 69.8944C148.014 69.8956 145.149 50.0695 160.149 42.8379Z" fill="#8055BC"/>
<path d="M150.025 37.0087C150.025 37.0087 150.326 37.8044 151.078 37.8255C151.831 37.8467 152.411 37.1156 152.411 37.1156C152.411 37.1156 150.778 36.7384 150.025 37.0087Z" fill="white"/>
<path d="M109.708 110.965L125.397 107.329C127.438 106.856 128.722 104.799 128.249 102.756L126.674 95.9572C126.202 93.9157 124.144 92.6323 122.101 93.1048L106.412 96.74C104.371 97.2136 103.087 99.2704 103.56 101.313L105.135 108.112C105.608 110.155 107.666 111.438 109.708 110.965Z" fill="#9C77D1"/>
<path d="M123.685 94.7019C122.862 93.8169 121.641 93.341 120.388 93.5032H120.387C120.386 93.5032 120.386 93.5043 120.385 93.5032C120.263 93.5196 120.139 93.5408 120.016 93.569L116.892 94.2941L116.552 92.8274C116.477 92.4994 116.277 92.2209 115.991 92.0423C115.704 91.8648 115.365 91.8072 115.039 91.8836L114.224 92.0716L110.944 92.8321L110.353 92.9696C109.676 93.1271 109.25 93.8064 109.408 94.4833L109.747 95.9501L104.355 97.1995C102.305 97.6743 101.017 99.7393 101.492 101.789L103.086 108.667C103.561 110.717 105.626 112.005 107.675 111.53L123.336 107.902C123.612 107.838 123.874 107.745 124.12 107.627H124.121C124.122 107.627 124.122 107.627 124.122 107.626C124.517 107.437 124.868 107.185 125.167 106.885C126.072 105.981 126.507 104.643 126.199 103.311L124.607 96.4343C124.449 95.7632 124.125 95.1744 123.685 94.7019ZM110.177 94.3047C110.13 94.099 110.226 93.8933 110.398 93.7923C110.438 93.7688 110.482 93.7511 110.53 93.7394L111.227 93.5772L113.809 92.9801L115.216 92.6546C115.469 92.5958 115.723 92.7545 115.781 93.0072L116.121 94.4739L110.517 95.7715L110.177 94.3047Z" fill="#633A9D"/>
<path d="M113.397 85.8525C113.397 85.8525 112.923 87.5332 113.085 88.0679C114.188 91.6961 116.093 94.0702 110.97 93.4578C110.97 93.4578 111.181 93.2475 110.201 91.4022C109.07 89.2726 109.089 89.2421 110.103 87.5085L110.454 85.5293L113.397 85.8525Z" fill="#FFB27D"/>
<path d="M119.842 81.5319C118.296 81.4379 116.41 81.0336 115.724 80.2156C114.945 79.2883 114.168 79.0391 114.168 79.0391L114.405 78.026L114.69 76.8166C114.69 76.8166 114.783 76.7097 115.1 76.7261C115.1 76.7261 116.313 77 116.763 76.6521C117.213 76.3042 118.037 76.5157 118.544 76.8531C119.189 77.2809 120.06 77.2127 120.037 77.4219C120.037 77.4219 118.759 78.0507 118.879 78.1564C120.049 79.1954 123.133 79.6091 122.932 80.4212C122.852 80.7421 120.502 81.5719 119.842 81.5319Z" fill="#FFB27D"/>
<path d="M98.2891 42.0194L98.2844 42.8597C98.2844 42.8597 98.5136 45.4889 95.2757 45.8732C92.0377 46.2587 89.3827 46.207 89.4709 44.1784C89.7624 42.607 90.2854 40.1695 90.3065 38.8696C90.3147 38.3865 90.2818 37.8741 90.1913 37.2947L96.4651 37.1689L98.3126 37.471L98.2891 42.0194Z" fill="#FFB27D"/>
<path d="M98.3127 37.4712L98.2892 42.0184C97.6228 42.3287 96.8706 42.5179 96.0279 42.5179C93.1449 42.5179 91.2809 40.4036 90.3066 38.8686C90.3148 38.3856 90.2819 37.8731 90.1914 37.2937L96.4651 37.168L98.3127 37.4712Z" fill="#E2915A"/>
<path d="M89.709 36.2848C90.4365 40.202 95.4915 40.0739 97.6763 39.8271C98.291 39.759 98.6777 39.6802 98.6777 39.6802C99.3711 39.4945 99.7578 38.4038 99.9376 36.9735C100.294 34.1434 99.8436 29.9887 99.3652 28.9263C98.6459 27.3279 97.2897 25.5978 92.1994 26.846C87.1092 28.0941 88.7758 31.2651 89.709 36.2848Z" fill="#FFB27D"/>
<path d="M85.5742 152.27H92.7376C92.6836 151.894 92.5014 150.751 92.1664 149.698C92.0501 149.331 91.9149 148.975 91.761 148.666C91.064 147.276 86.639 148.16 86.639 148.16C86.639 148.16 86.2277 148.512 85.9068 149.857C85.7646 150.45 85.64 151.237 85.5742 152.27Z" fill="#233862"/>
<path d="M107.218 150.01C107.238 150.985 107.361 151.907 107.714 152.27H121.882C121.703 151.758 121.193 150.987 119.738 150.751C118.085 150.483 115.509 149.687 114.004 148.097C113.469 147.532 113.069 146.865 112.894 146.087C112.227 143.119 107.383 146.997 107.383 146.997C107.383 146.997 107.187 148.559 107.218 150.01Z" fill="#233862"/>
<path d="M97.796 117.93C97.9934 119.017 98.118 119.908 98.1521 120.547C98.6022 129.332 105.547 149.421 106.789 149.888C108.711 150.613 111.739 149.071 113.322 148.567C113.977 148.358 114.421 147.695 114.275 147.024C110.836 131.213 109.571 108.446 109.112 94.9667C108.879 88.1771 107.714 83.4876 107.714 83.4876C107.714 83.4876 90.7759 78.9686 90.6749 84.6853C90.5855 89.7449 96.2857 109.585 97.796 117.93Z" fill="black"/>
<path d="M97.796 117.93L109.112 94.9667C108.879 88.1771 107.714 83.4876 107.714 83.4876C107.714 83.4876 90.7759 78.9686 90.6749 84.6852C90.5855 89.7449 96.2857 109.585 97.796 117.93Z" fill="#181818"/>
<path d="M101.566 84.7052L92.6112 149.604C92.6112 149.604 88.6786 150.552 85.6205 149.793C85.6205 149.793 82.9984 115.277 83.217 106.932C83.4356 98.5878 81.3354 84.6041 83.6965 83.0621C86.0565 81.5201 101.566 84.7052 101.566 84.7052Z" fill="black"/>
<path d="M99.5634 29.5393C98.1648 29.98 95.2065 29.5299 93.9701 30.5301C92.7337 31.5314 93.9114 33.1804 92.4987 33.768L92.4928 33.7703C92.2072 33.8891 91.8746 33.8091 91.6806 33.567C91.2893 33.0781 90.7475 32.5915 90.2527 32.7925C89.846 32.9594 89.826 33.4836 90.0047 33.9937C90.1551 34.4226 90.1128 34.9033 89.8531 35.2771C89.7402 35.4381 89.6674 35.6156 89.6991 35.7942C89.8166 36.4406 90.1375 37.2821 90.255 37.7111L90.2879 38.1624C90.2879 38.1624 87.9209 35.6003 86.923 33.4436C86.239 31.9639 86.252 26.433 89.5992 24.8169C89.5851 24.8064 89.5745 24.7946 89.5675 24.7805C89.4946 24.6512 89.2936 24.6806 89.2936 24.6806C89.5816 24.5513 90.0282 24.6336 90.0282 24.6336C90.0188 24.6265 90.0364 24.6054 90.0764 24.5748C90.1351 24.1835 90.5289 23.9037 90.5289 23.9037C90.3949 24.0977 90.3385 24.2904 90.3149 24.4326C91.1941 23.9696 93.8996 22.9423 96.0445 23.8767C97.4948 24.5078 98.8253 24.844 99.7291 25.0179C100.473 25.1613 101.001 25.8254 100.974 26.5834C100.936 27.6459 100.566 29.1738 99.5634 29.5393Z" fill="black"/>
<path d="M88.707 45.3066L90.7685 89.5413C90.7685 89.5413 107.975 89.8221 107.484 85.9284C106.992 82.0346 101.282 46.6606 101.282 46.6606" fill="#E9F3FE"/>
<path d="M94.3789 73.0141C94.3789 73.0141 93.5057 84.8282 91.8274 92.2467C91.8274 92.2467 81.7868 92.7791 79.4033 88.903C79.4033 88.903 81.2897 72.9425 81.2897 69.7057C81.2897 68.568 81.2015 67.0213 81.0628 65.2913C80.8536 62.6715 80.5304 59.6381 80.2225 56.9949C79.7959 53.3138 79.4033 50.3885 79.4033 50.3885L87.6821 43.6611L94.3789 73.0141Z" fill="#8BCED3"/>
<path d="M114.303 86.9929C114.303 86.9929 112.43 88.1658 109.48 87.7721C108.406 90.4059 105.873 91.3003 105.873 91.0617C105.873 91.0324 105.304 86.0879 104.633 80.2619C104.567 79.679 104.499 79.089 104.431 78.4943C104.425 78.4438 104.418 78.392 104.413 78.3415C104.3 77.366 104.187 76.3788 104.073 75.3962C103.265 68.3785 102.489 61.6511 102.489 61.6511C100.729 50.8725 99.2383 43.749 99.2383 43.749C102.995 44.1404 105.53 45.4779 106.54 47.2302C109.539 52.4262 111.709 65.4238 112.981 75.1529C112.983 75.1776 112.987 75.2023 112.99 75.227C113.209 76.9065 113.402 78.4884 113.566 79.9129C113.577 80.0022 113.587 80.0904 113.597 80.1773C114.063 84.2544 114.303 86.9929 114.303 86.9929Z" fill="#8BCED3"/>
<path d="M96.8828 36.9284C96.8828 36.9284 97.0462 37.4338 98.3214 37.2493C98.3214 37.2493 99.3921 37.0941 99.3133 36.5311C99.3133 36.5311 98.2368 36.2138 96.8828 36.9284Z" fill="white"/>
<path d="M88.2179 43.6094C88.1968 43.1874 90.196 42.6045 90.196 42.6045C90.196 42.6045 92.4843 45.7778 96.2546 45.833C96.2546 45.833 95.1804 47.9239 93.9134 48.4657C93.9146 48.4645 88.3413 46.1163 88.2179 43.6094Z" fill="black"/>
<path d="M96.2549 45.7563C96.2549 45.7563 98.2529 44.5716 98.2588 43.2881C98.2588 43.2881 99.5492 43.1271 100.112 43.7524C100.112 43.7524 100.586 45.9525 99.9571 47.2301C99.9594 47.2301 97.0823 46.7917 96.2549 45.7563Z" fill="black"/>
<path d="M94.8987 45.5667L97.6078 44.918C97.6078 44.918 97.9616 44.9485 97.9522 45.3904C97.9428 45.8312 97.1894 47.1205 96.8556 47.2239C96.5207 47.325 94.2582 46.4588 94.8987 45.5667Z" fill="black"/>
<path d="M88.5334 43.3903C88.5123 42.9684 89.8662 42.0986 89.8662 42.0986C89.8662 42.0986 92.486 45.1603 96.2563 45.2155C96.2563 45.2155 95.1821 47.3064 93.9151 47.8482C93.9151 47.8482 88.658 45.8972 88.5334 43.3903Z" fill="#DAE6F3"/>
<path d="M96.2549 45.2147C96.2549 45.2147 98.2752 44.144 98.2823 42.8594C98.2823 42.8594 99.5022 43.3965 100.065 44.0217C100.065 44.0217 100.587 45.4109 99.9582 46.6885C99.9594 46.6897 97.0823 46.2513 96.2549 45.2147Z" fill="#DAE6F3"/>
<path d="M101.206 82.3055C101.102 83.5736 100.616 84.7595 99.8442 85.6315L98.6301 87.0019C98.3257 87.3463 97.852 87.3052 97.6029 86.9126L96.1385 84.6149C95.7459 83.9991 95.5661 83.2151 95.6343 82.4277C95.7906 80.6741 96.082 77.2952 96.3206 74.0361C96.5146 71.394 96.6756 68.8283 96.7003 67.2687C96.7814 62.2878 96.1279 46.4131 96.1279 46.4131L97.101 46.4636C97.101 46.4636 99.461 52.601 100.647 60.9738C100.94 63.0353 101.159 65.2307 101.257 67.5061C101.257 67.5061 101.676 76.5724 101.206 82.3055Z" fill="black"/>
<path d="M101.206 82.306C101.102 83.5742 100.616 84.7601 99.8442 85.6321L98.6301 87.0025C98.3257 87.3469 97.852 87.3057 97.6029 86.9132L96.1385 84.6155C95.7459 83.9996 95.5661 83.2157 95.6343 82.4283C95.7906 80.6747 96.082 77.2957 96.3206 74.0367C99.0485 70.298 100.189 65.1608 100.647 60.9756C100.94 63.0371 101.159 65.2325 101.257 67.5079C101.257 67.5067 101.676 76.5729 101.206 82.306Z" fill="black"/>
<path d="M89.8674 42.0986C89.8674 42.0986 95.2303 64.5597 94.377 73.0207C94.377 73.0207 92.4049 63.9791 87.6602 56.5736C87.6602 56.5736 89.3914 55.0504 89.2974 54.4898C89.2974 54.4898 88.0116 54.109 86.7646 54.3652C86.7646 54.3652 86.9022 44.6831 87.6802 43.6606C88.4583 42.6369 89.8674 42.0986 89.8674 42.0986Z" fill="#8BCED3"/>
<path d="M98.2846 42.8594C97.4807 42.924 103.599 64.808 104.053 71.8222C104.053 71.8222 103.516 59.3053 103.569 55.6971C103.569 55.6971 101.342 54.5183 101.342 54.1046C101.342 53.6909 103.718 52.572 103.718 52.572C103.718 52.572 102.214 44.8633 101.392 44.0147C100.571 43.165 98.2846 42.8594 98.2846 42.8594Z" fill="#8BCED3"/>
<path d="M109.482 88.6631C109.482 88.6631 109.111 89.1661 109.347 90.4284C109.583 91.6907 109.453 92.3876 109.78 92.1702C110.106 91.9527 110.781 90.4366 110.781 90.4366L109.482 88.6631Z" fill="#FFB27D"/>
<path d="M93.7233 76.4763C87.4801 75.5442 83.3055 69.7101 81.063 65.2921C80.8538 62.6724 80.5306 59.639 80.2227 56.9957L81.6836 52.8281L93.7233 76.4763Z" fill="#8BCED3"/>
<path d="M113.595 80.1789C112.351 80.4669 108.58 81.1709 104.632 80.2624C104.566 79.6794 104.498 79.0894 104.43 78.4947C104.424 78.4442 104.417 78.3925 104.412 78.3419C104.541 77.8354 104.672 77.3288 104.801 76.8223C107.035 77.6226 112.028 79.3738 113.564 79.9145C113.575 80.005 113.585 80.0931 113.595 80.1789Z" fill="#233862"/>
<path d="M87.6802 43.6592C87.6825 43.6604 82.1939 44.3526 79.6905 47.8479C77.1859 51.3433 82.5641 70.3795 93.7235 76.4758C99.0923 79.4082 114.583 80.0687 114.583 80.0687C114.583 80.0687 115.435 80.1545 115.772 78.4397C115.89 77.8427 115.772 76.8225 115.772 76.8225C115.772 76.8225 98.1391 70.2115 96.5889 68.9386C95.0387 67.6646 87.6802 43.6592 87.6802 43.6592Z" fill="#8BCED3"/>
<path d="M122.382 76.8688C122.382 76.8688 120.536 76.4057 120.009 76.2941C119.392 76.1636 118.826 75.6994 118.646 75.918C118.311 76.3247 119.724 77.0392 120.281 78.2956C120.555 78.9127 121.105 79.2476 122.209 78.7951C122.763 78.5671 123.205 77.4142 122.382 76.8688Z" fill="#E2915A"/>
</svg>
