<svg width="44" height="44" viewBox="0 0 44 44" fill="none" xmlns="http://www.w3.org/2000/svg">
<path fill-rule="evenodd" clip-rule="evenodd" d="M1.38409 43.9835C1.21775 43.8284 0.954277 43.7985 0.847168 43.5666C0.975012 43.4547 1.10973 43.3498 1.22967 43.23C2.69116 41.7718 4.14957 40.3104 5.61141 38.8524C5.83227 38.6321 6.06665 38.4252 6.29473 38.2124C7.14358 39.2964 7.99679 40.3766 9.00053 41.326C7.78727 41.8807 6.5133 42.2788 5.27358 42.7654C4.34763 43.1289 3.4092 43.4603 2.47924 43.814C2.36823 43.8562 2.22241 43.8485 2.15711 43.9834C1.89947 43.9835 1.64172 43.9835 1.38409 43.9835Z" fill="#532E88"/>
<path fill-rule="evenodd" clip-rule="evenodd" d="M40.7058 3.70025C40.5281 2.95896 40.4758 2.21504 40.693 1.47352C40.889 0.803833 41.2772 0.288107 41.9315 0C42.1606 0 42.3896 0 42.6187 0C43.0094 0.254656 43.4215 0.490983 43.495 1.01851C43.356 1.14028 43.211 1.2561 43.0789 1.38497C42.3218 2.1242 41.5677 2.86652 40.8124 3.6078C40.7844 3.63461 40.7562 3.6613 40.7281 3.68822L40.7058 3.70025Z" fill="#D9CDEA"/>
<path fill-rule="evenodd" clip-rule="evenodd" d="M13.6753 12.7319C15.079 14.1237 16.4861 15.5124 17.8835 16.9107C18.1007 17.128 18.3808 17.2972 18.4913 17.6096C18.2527 20.173 18.5478 22.6871 19.1891 25.1693C19.1861 25.2221 19.1831 25.2749 19.1801 25.3276C19.0425 25.4497 18.8987 25.5656 18.7683 25.6949C17.2123 27.2376 15.6585 28.7823 14.1041 30.3265C14.0793 30.3132 14.0538 30.3015 14.0274 30.2914C13.9966 30.2122 13.9708 30.1304 13.9343 30.0537C12.9185 27.9231 12.2654 25.6916 12.0082 23.3403C11.6044 19.6504 12.1615 16.1175 13.6753 12.7319Z" fill="#532E88"/>
<path fill-rule="evenodd" clip-rule="evenodd" d="M22.6908 21.7373C22.7971 21.8303 22.9092 21.9174 23.0088 22.017C25.8811 24.8872 28.7524 27.7584 31.6229 30.6302C32.6024 31.6099 32.3798 32.5989 31.0663 33.0861C29.9072 33.516 28.7674 33.9986 27.5841 34.3622C27.497 34.2686 27.4146 34.1702 27.3223 34.0821C25.9174 32.7389 24.727 31.2263 23.7584 29.542C22.6049 27.5363 21.7799 25.4069 21.3813 23.1207C21.8178 22.6596 22.2544 22.1984 22.6908 21.7373Z" fill="#532E88"/>
<path fill-rule="evenodd" clip-rule="evenodd" d="M14.105 30.326C15.6594 28.7818 17.2133 27.237 18.7692 25.6943C18.8996 25.565 19.0435 25.4491 19.181 25.3271C19.2046 25.3776 19.2357 25.4258 19.2505 25.4786C20.0025 28.17 21.2013 30.6442 22.8327 32.9135C23.4596 33.7853 24.1916 34.5674 24.8713 35.3938C23.1794 36.054 21.4899 36.7205 19.7649 37.2914C19.7145 37.2424 19.6676 37.189 19.6131 37.1449C17.295 35.2615 15.4307 33.0113 14.105 30.326Z" fill="#532E88"/>
<path fill-rule="evenodd" clip-rule="evenodd" d="M5.22656 29.9002C5.40332 29.1323 5.73908 28.4203 6.01195 27.687C7.06655 24.853 8.13123 22.0229 9.19384 19.1919C9.24871 19.0459 9.31905 18.9059 9.38229 18.7637C9.24837 20.6498 9.25478 22.5308 9.54048 24.4059C9.9617 27.1695 10.8029 29.789 12.1812 32.2284C12.1822 32.2519 12.181 32.2752 12.1777 32.2986C10.841 33.6403 9.5044 34.9821 8.16788 36.3238C8.14486 36.3209 8.12206 36.3164 8.09961 36.3104C6.81166 34.3216 5.82569 32.1976 5.22656 29.9002Z" fill="#532E88"/>
<path fill-rule="evenodd" clip-rule="evenodd" d="M40.8121 3.60785C41.5674 2.86656 42.3215 2.12424 43.0786 1.38502C43.2107 1.25614 43.3557 1.14033 43.4947 1.01855C43.6448 1.37494 43.5319 1.70921 43.3292 1.98368C43.097 2.29825 43.1134 2.61133 43.1732 2.95729C43.2891 3.62904 43.5178 4.29014 43.4197 4.98538C43.2633 6.09519 42.4481 6.72054 41.3351 6.57448C40.7986 6.50403 40.2675 6.39234 39.7347 6.29497C39.0743 6.17423 38.949 6.29474 39.0638 6.94358C39.1382 7.36457 39.2128 7.78568 39.2801 8.20804C39.5661 10.0051 38.5471 10.9725 36.7465 10.621C36.2856 10.531 35.8299 10.4166 35.358 10.3774C34.9973 10.3474 34.8928 10.5053 34.9447 10.8252C35.0223 11.3034 35.1057 11.7807 35.1862 12.2585C35.2508 12.642 35.2744 13.0312 35.1921 13.4097C34.9633 14.4629 34.0304 14.9669 32.7796 14.7385C32.2889 14.6488 31.7966 14.5667 31.3044 14.4857C30.9667 14.4301 30.804 14.5401 30.8348 14.92C30.8845 15.5331 31.0885 16.1181 31.1188 16.7351C31.1954 18.303 30.2935 19.1063 28.7324 18.8367C28.3956 18.7786 28.0587 18.7185 27.7249 18.6452C27.268 18.5449 26.8382 18.4944 26.4308 18.8343C26.2077 19.0206 25.8979 19.0181 25.6074 18.9616C25.6245 18.7673 25.7888 18.6787 25.9049 18.5598C26.6916 17.7546 27.4825 16.9537 28.272 16.1513C28.3507 16.1274 28.372 16.0604 28.3917 15.9921C28.4419 15.9665 28.503 15.952 28.5407 15.9142C29.8266 14.6243 31.1103 13.3323 32.3944 12.0406C32.4285 12.0072 32.4626 11.9736 32.4968 11.94C33.7792 10.6655 35.0622 9.39129 36.3425 8.11445C36.3903 8.0668 36.4127 7.99383 36.447 7.93265C36.5164 7.91536 36.587 7.89943 36.6098 7.81661C37.3017 7.13649 38.0013 6.46394 38.6833 5.77397C39.3148 5.1351 39.9858 4.53494 40.5673 3.84738C40.6134 3.79835 40.6595 3.74944 40.7056 3.70052L40.7279 3.68838C40.7558 3.66146 40.7839 3.63465 40.8121 3.60785Z" fill="#A388C9"/>
<path fill-rule="evenodd" clip-rule="evenodd" d="M12.1808 32.2284C10.8024 29.789 9.96126 27.1695 9.54004 24.4058C9.25423 22.5308 9.24793 20.6498 9.38184 18.7636C9.7388 17.7746 10.0913 16.7845 10.4542 15.7982C10.7738 14.9296 11.1132 14.0685 11.4289 13.1987C11.7978 12.1827 12.9403 11.9406 13.6755 12.7318C12.1619 16.1174 11.6046 19.6503 12.0085 23.3401C12.2658 25.6913 12.9189 27.9229 13.9346 30.0535C13.9712 30.1302 13.9969 30.212 14.0277 30.2912C13.9964 30.3698 13.9856 30.4694 13.9304 30.5233C13.3485 31.0932 12.8164 31.7141 12.1808 32.2284Z" fill="#D9CDEA"/>
<path fill-rule="evenodd" clip-rule="evenodd" d="M39.9306 17.9596C40.7784 17.9245 41.617 18.0044 42.4371 18.2247C43.2553 18.4445 43.6788 19.0936 43.4933 19.817C43.2992 20.5736 42.6334 20.9055 41.7772 20.7175C39.3153 20.1771 37.0435 20.7194 34.9041 21.9665C33.9595 22.5172 33.11 23.1926 32.3386 23.9658C32.0306 24.2741 31.6755 24.4703 31.232 24.4327C30.722 24.3897 30.3389 24.1403 30.1382 23.6572C29.9323 23.1618 29.9903 22.6737 30.3617 22.2993C32.5944 20.0492 35.1965 18.4813 38.3911 18.0373C38.6035 18.0077 38.8161 17.9718 39.0297 17.9626C39.3294 17.95 39.6301 17.9596 39.9306 17.9596Z" fill="#8BCED3"/>
<path fill-rule="evenodd" clip-rule="evenodd" d="M26.5331 4.43171C26.4702 7.675 25.3165 10.3869 23.3458 12.7789C23.0005 13.1979 22.6282 13.5966 22.2472 13.9837C21.6825 14.5574 20.9117 14.5703 20.3757 14.0376C19.8759 13.541 19.8862 12.7357 20.4179 12.1887C21.6986 10.8712 22.7515 9.40536 23.3709 7.65965C23.9622 5.99333 24.1246 4.29516 23.7051 2.56022C23.5315 1.84219 23.909 1.14741 24.567 0.963779C25.288 0.76262 25.9797 1.16334 26.1977 1.91321C26.4475 2.77204 26.4881 3.658 26.5331 4.43171Z" fill="#72BCC1"/>
<path fill-rule="evenodd" clip-rule="evenodd" d="M8.16748 36.3236C9.504 34.9818 10.8406 33.64 12.1774 32.2983C13.4588 34.564 15.0331 36.5954 16.9911 38.3201C16.4255 38.6481 15.7923 38.8086 15.1893 39.0427C14.0526 39.4838 12.9071 39.9021 11.7654 40.3297C10.3866 39.1556 9.17396 37.8322 8.16748 36.3236Z" fill="#532E88"/>
<path fill-rule="evenodd" clip-rule="evenodd" d="M24.871 35.3942C24.1912 34.5677 23.4592 33.7858 22.8323 32.9139C21.2008 30.6445 20.002 28.1704 19.2501 25.479C19.2353 25.4262 19.2043 25.378 19.1807 25.3276C19.1836 25.2748 19.1865 25.2219 19.1896 25.1691C19.9956 24.5785 20.6384 23.8198 21.318 23.0991C21.3385 23.1084 21.3597 23.1157 21.3817 23.1207C21.7803 25.407 22.6053 27.5364 23.7588 29.5421C24.7274 31.2264 25.9179 32.7389 27.3227 34.0822C27.415 34.1704 27.4974 34.2687 27.5844 34.3623C26.6992 34.7568 25.7834 35.0712 24.871 35.3942Z" fill="#D9CDEA"/>
<path fill-rule="evenodd" clip-rule="evenodd" d="M6.29401 38.2126C6.06593 38.4256 5.83155 38.6324 5.61068 38.8527C4.14884 40.3107 2.69044 41.7719 1.22894 43.2303C1.10901 43.3501 0.97429 43.455 0.846446 43.5669C0.401284 43.1448 0.390057 42.6556 0.595225 42.1133C1.33319 40.1618 2.06325 38.2071 2.79205 36.2521C3.10112 35.4229 3.39965 34.5898 3.70288 33.7586C3.95857 33.7428 3.92959 33.9779 3.98996 34.1106C4.6333 35.5251 5.37699 36.8809 6.29653 38.1368C6.29183 38.1618 6.29103 38.1873 6.29401 38.2126Z" fill="#532E88"/>
<path fill-rule="evenodd" clip-rule="evenodd" d="M16.9915 38.3206C15.0336 36.5958 13.4591 34.5645 12.1777 32.2989C12.1811 32.2755 12.1823 32.2521 12.1813 32.2286C12.817 31.7144 13.3491 31.0935 13.9308 30.5236C13.986 30.4695 13.9966 30.37 14.0281 30.2915C14.0545 30.3016 14.08 30.3132 14.1048 30.3266C15.4305 33.0118 17.2948 35.2622 19.6129 37.1457C19.6674 37.1899 19.7143 37.2433 19.7647 37.2922C18.858 37.6826 17.942 38.0482 16.9915 38.3206Z" fill="#D9CDEA"/>
<path fill-rule="evenodd" clip-rule="evenodd" d="M6.29677 38.1368C5.37735 36.8809 4.63354 35.5252 3.9902 34.1106C3.92994 33.978 3.95881 33.7428 3.70312 33.7586C4.13374 32.6229 4.5624 31.4866 4.99737 30.3528C5.05751 30.1958 5.14916 30.0508 5.22625 29.9004C5.82537 32.1979 6.81135 34.322 8.0993 36.3107C7.54737 36.9675 6.9211 37.5513 6.29677 38.1368Z" fill="#D9CDEA"/>
<path fill-rule="evenodd" clip-rule="evenodd" d="M21.3176 23.0991C20.638 23.8198 19.9953 24.5785 19.1892 25.1691C18.5479 22.6869 18.2528 20.1728 18.4914 17.6094C18.5323 17.6196 18.5863 17.6165 18.6122 17.6419C19.4179 18.4331 20.2581 19.1907 20.9879 20.0566C21.0297 21.0781 21.1682 22.0892 21.3176 23.0991Z" fill="#D9CDEA"/>
<path fill-rule="evenodd" clip-rule="evenodd" d="M6.29686 38.1367C6.92119 37.5512 7.54746 36.9674 8.09939 36.3105C8.12196 36.3165 8.14475 36.321 8.16778 36.324C9.17415 37.8325 10.3868 39.156 11.7655 40.3302C10.8382 40.6469 9.94453 41.0573 9.00002 41.3264C7.99629 40.3769 7.1432 39.2968 6.29423 38.2127C6.29125 38.1873 6.29205 38.1619 6.29686 38.1367Z" fill="#D9CDEA"/>
<path fill-rule="evenodd" clip-rule="evenodd" d="M40.5677 3.84712C39.9862 4.53468 39.315 5.13495 38.6837 5.77371C38.0018 6.46367 37.302 7.13623 36.6101 7.81634C36.4317 7.12935 36.3857 6.43549 36.5437 5.74048C36.7967 4.62655 37.6888 3.84608 38.8712 3.71721C39.4407 3.65512 40.0108 3.69155 40.5677 3.84712Z" fill="#D9CDEA"/>
<path fill-rule="evenodd" clip-rule="evenodd" d="M32.3941 12.0403C31.11 13.3321 29.8263 14.624 28.5404 15.9139C28.5027 15.9517 28.4417 15.9663 28.3914 15.9918C28.2497 15.3884 28.2039 14.7728 28.3031 14.1654C28.542 12.7026 29.7222 11.8073 31.25 11.9018C31.6332 11.9257 32.0202 11.9343 32.3941 12.0403Z" fill="#D9CDEA"/>
<path fill-rule="evenodd" clip-rule="evenodd" d="M36.4467 7.93233C36.4125 7.9935 36.39 8.06648 36.3422 8.11413C35.0619 9.39096 33.779 10.665 32.4965 11.9397C32.3549 11.2063 32.29 10.4688 32.4786 9.73658C32.7591 8.64807 33.7096 7.88101 34.8324 7.81892C35.3746 7.78891 35.9152 7.80025 36.4467 7.93233Z" fill="#D9CDEA"/>
<path fill-rule="evenodd" clip-rule="evenodd" d="M28.2724 16.1511C27.4829 16.9534 26.692 17.7544 25.9053 18.5596C25.7892 18.6785 25.625 18.767 25.6078 18.9613C25.0415 18.8158 24.6736 18.469 24.5831 17.8843C24.4892 17.2771 24.7766 16.8336 25.2618 16.5042C26.2025 15.8656 27.2266 15.909 28.2724 16.1511Z" fill="#D9CDEA"/>
<path fill-rule="evenodd" clip-rule="evenodd" d="M40.4231 15.3373C39.738 15.335 39.133 14.7342 39.1284 14.0512C39.1237 13.3578 39.7614 12.7276 40.4498 12.7455C41.1382 12.7632 41.7285 13.3729 41.7192 14.0562C41.71 14.7475 41.1109 15.3395 40.4231 15.3373Z" fill="#532E88"/>
<path fill-rule="evenodd" clip-rule="evenodd" d="M39.8808 26.8109C39.8755 27.5235 39.3112 28.0871 38.6021 28.0881C37.9148 28.0891 37.3138 27.4957 37.3072 26.8095C37.3004 26.1081 37.9173 25.5014 38.6251 25.5134C39.334 25.5253 39.8859 26.0958 39.8808 26.8109Z" fill="#72BCC1"/>
<path fill-rule="evenodd" clip-rule="evenodd" d="M31.3072 6.19766C30.5896 6.19526 30.0051 5.62764 30.0068 4.93515C30.0087 4.26179 30.6745 3.60711 31.3398 3.62486C32.0418 3.64354 32.584 4.22112 32.5803 4.94615C32.5764 5.69041 32.0578 6.2003 31.3072 6.19766Z" fill="#532E88"/>
<path fill-rule="evenodd" clip-rule="evenodd" d="M18.5975 5.48699C19.3124 5.49822 19.8702 6.07501 19.8499 6.78227C19.8301 7.4696 19.2122 8.07343 18.5445 8.05785C17.8439 8.04147 17.2593 7.41966 17.2757 6.70815C17.2919 6.00605 17.866 5.47565 18.5975 5.48699Z" fill="#8BCED3"/>
<path fill-rule="evenodd" clip-rule="evenodd" d="M21.3179 23.0991C21.1685 22.0893 21.03 21.0781 20.9883 20.0566C21.5986 20.5736 22.1427 21.1576 22.6911 21.7373C22.2547 22.1984 21.8181 22.6596 21.3816 23.1206C21.3596 23.1156 21.3384 23.1084 21.3179 23.0991Z" fill="#532E88"/>
<path fill-rule="evenodd" clip-rule="evenodd" d="M40.8123 3.60742C40.7843 3.63423 40.7561 3.66115 40.728 3.68784C40.756 3.66092 40.7842 3.63423 40.8123 3.60742Z" fill="#FE7E46"/>
</svg>
