<svg width="259" height="173" viewBox="0 0 259 173" fill="none" xmlns="http://www.w3.org/2000/svg">
<path d="M54.5306 99.9442H55.5701C55.4 99.8273 55.1874 99.7588 54.9559 99.7588H28.9027C27.5395 99.7588 26.4351 100.738 26.4351 101.946V103.336C26.4351 104.544 27.5395 105.523 28.9027 105.523L54.6641 105.516L54.5306 99.9442Z" fill="#8BCED3"/>
<path d="M39.7395 99.7629C38.4354 99.7629 37.3794 100.7 37.3794 101.855V103.425C37.3794 104.58 38.4366 105.517 39.7395 105.517H55.9578V105.166H55.8905L51.7668 104.82L50.934 101.922C50.934 101.922 52.5429 100.32 52.6468 100.279C52.7519 100.238 55.8905 100.113 55.8905 100.113L55.9578 100.111V99.7617H39.7395V99.7629Z" fill="#8BCED3"/>
<path d="M54.906 102.63C54.906 100.936 55.8935 100.114 55.8935 100.114H40.0709C38.8731 100.114 37.9033 100.974 37.9033 102.036V103.245C37.9033 104.306 38.8743 105.166 40.0709 105.166H55.8935C55.8935 105.168 54.906 104.765 54.906 102.63Z" fill="#FFF3DD"/>
<path d="M54.1019 111.469H55.2785C55.0859 111.324 54.8449 111.236 54.5827 111.236H25.0968C23.5541 111.236 22.3032 112.462 22.3032 113.974V115.714C22.3032 117.226 23.5541 118.452 25.0968 118.452L54.2531 118.443L54.1019 111.469Z" fill="#5D3598"/>
<path d="M37.3612 111.241C35.8858 111.241 34.6904 112.414 34.6904 113.86V115.826C34.6904 117.272 35.887 118.445 37.3612 118.445H55.7175V118.005H55.6419L50.9749 117.572L50.0323 113.944C50.0323 113.944 51.8525 111.94 51.9718 111.888C52.0911 111.836 55.6419 111.678 55.6419 111.678L55.7175 111.677V111.24H37.3612V111.241Z" fill="#5D3598"/>
<path d="M54.5271 114.831C54.5271 112.709 55.6446 111.682 55.6446 111.682H37.7371C36.3822 111.682 35.2837 112.759 35.2837 114.087V115.6C35.2837 116.929 36.3822 118.005 37.7371 118.005H55.6446C55.6446 118.006 54.5271 117.502 54.5271 114.831Z" fill="#FFF3DD"/>
<path d="M21.331 105.693H20.1533C20.3459 105.577 20.5868 105.509 20.8491 105.509H50.3479C51.8906 105.509 53.1427 106.482 53.1427 107.682V109.062C53.1427 110.262 51.8918 111.235 50.3479 111.235L21.1798 111.227L21.331 105.693Z" fill="black"/>
<path d="M38.0773 105.515C39.5526 105.515 40.7492 106.445 40.7492 107.592V109.152C40.7492 110.3 39.5526 111.229 38.0773 111.229H19.7139V110.881H19.7895L24.4577 110.537L25.4015 107.659C25.4015 107.659 23.58 106.067 23.4619 106.027C23.3426 105.986 19.7895 105.862 19.7895 105.862H19.7139V105.515H38.0773Z" fill="black"/>
<path d="M20.9052 108.362C20.9052 106.678 19.7866 105.863 19.7866 105.863H37.7012C39.0572 105.863 40.1558 106.717 40.1558 107.772V108.972C40.1558 110.026 39.0572 110.881 37.7012 110.881H19.7866C19.7866 110.881 20.9052 110.481 20.9052 108.362Z" fill="#FFF3DD"/>
<path d="M117.84 172.385L115.192 171.86L126.637 108.418L129.286 108.943L117.84 172.385Z" fill="#184655"/>
<path d="M209.438 172.385H212.768L200.358 108.418L197.59 108.941L209.438 172.385Z" fill="#184655"/>
<path d="M148.725 172.385H152.055L139.645 108.418L136.876 108.941L148.725 172.385Z" fill="#184655"/>
<path d="M179.589 172.353L176.99 172.385L188.424 108.418L191.085 108.943L179.589 172.353Z" fill="#184655"/>
<path d="M166.897 21.9576C177.885 23.1297 192.105 24.3655 206.38 48.4915C221.982 74.859 213.769 114.247 201.454 125.192C189.14 136.137 148.92 149.652 115.111 129.42C115.111 129.42 94.6963 117.159 105.173 96.8109C121.295 65.4966 119.017 58.967 126.226 46.6951C133.434 34.4231 143.573 19.4695 166.897 21.9576Z" fill="#CDB6EE"/>
<path d="M206.369 48.5127C196.614 32.0495 186.884 26.2483 178.192 23.8516C181.554 27.3115 184.963 31.7628 188.375 37.5203C203.996 63.8819 195.772 103.261 183.443 114.204C172.509 123.907 139.604 135.628 108.687 124.05C111.866 127.548 114.99 129.422 114.99 129.422C148.841 149.65 189.108 136.138 201.437 125.195C213.768 114.253 221.99 74.8755 206.369 48.5127Z" fill="#5D3598"/>
<path d="M66.7864 57.6241L98.0796 57.389C98.7942 57.3831 99.3695 56.7995 99.3636 56.0849L99.2065 35.1629C99.2018 34.4483 98.617 33.873 97.9024 33.879L66.6092 34.114C65.8946 34.1199 65.3193 34.7035 65.3252 35.4181L65.4823 56.3401C65.4882 57.0547 66.0718 57.6288 66.7864 57.6241Z" fill="#8BCED3"/>
<path d="M98.2465 45.5186L108.35 55.8142L95.8853 53.4883L98.2465 45.5186Z" fill="#8BCED3"/>
<path d="M89.1304 44.0663L86.0899 44.0119C86.0899 44.0119 82.258 41.151 82.141 40.1399C82.0241 39.1287 82.6513 36.9883 82.0572 36.7202C81.463 36.4521 80.2038 36.2394 79.4089 37.5778C78.8312 38.5499 79.312 42.0983 78.9553 42.3346C78.732 42.4834 76.9838 42.5011 75.7057 42.4941C74.8658 42.4893 74.0933 42.9512 73.7 43.693L73.6988 43.6954C73.433 44.1974 73.5535 44.8164 73.9894 45.1802L74.6674 45.7472L74.1335 46.4559C73.7366 46.9839 73.8393 47.734 74.365 48.1344L74.9001 48.5431L74.5339 48.9613C74.0614 49.4988 74.1618 50.328 74.7477 50.7379L75.2238 51.071L75.1529 51.2021C74.8552 51.7502 75.0265 52.4341 75.5462 52.7778L76.0246 53.0944L84.1231 53.2385C84.8815 53.2515 85.6351 53.1098 86.3368 52.8216L89.193 52.401C89.5001 52.3561 89.7281 52.0927 89.7281 51.7821L89.7458 44.6935C89.747 44.3521 89.4729 44.0722 89.1304 44.0663Z" fill="white"/>
<path d="M131.048 61.7979L128.202 70.4713L136.876 67.0051L131.048 61.7979Z" fill="#F79C8D"/>
<path d="M140.735 36.8623C140.119 36.8857 138.431 37.4025 135.962 41.6752C132.81 47.1311 128.202 63.6135 128.202 63.6135L141.955 68.3035L143.723 64.8635L146.633 38.3789C146.632 38.3789 140.906 36.8553 140.735 36.8623Z" fill="#8BCED3"/>
<path d="M157.111 34.6934C153.381 34.6981 144.153 35.7567 139.871 37.0872C139.871 37.0872 136.725 63.3852 142.704 83.3695C144.042 87.8428 141.598 101.913 141.598 101.913L180.243 101.417C180.243 101.417 175.665 67.4016 177.389 61.9075C179.113 56.4133 179.154 37.265 179.154 37.265C179.154 37.265 178.89 37.225 170.472 35.8097C166.545 35.1491 161.093 34.6887 157.111 34.6934Z" fill="#8BCED3"/>
<path d="M161.663 150.701C161.663 150.701 160.809 160.523 159.235 163.242C157.662 165.961 159.318 170.585 159.401 171.22C159.483 171.855 162.712 172.762 167.845 172.218C172.978 171.675 172.894 170.496 172.48 168.592C172.066 166.688 169.335 164.24 169.169 162.427C169.004 160.614 170.743 154.086 170.743 154.086L161.663 150.701Z" fill="#F7A491"/>
<path d="M147.217 93.8357C147.217 93.8357 121.177 92.376 115.361 95.9316C109.546 99.4884 116.413 106.791 116.413 106.791C116.413 106.791 137.613 116.099 173.104 118.168C181.509 118.657 182.233 96.0378 180.662 94.1663C179.091 92.2948 147.217 93.8357 147.217 93.8357Z" fill="black"/>
<path d="M168.431 172.297C173.408 171.771 172.793 169.347 172.392 167.506C172.14 166.353 170.712 164.996 169.861 163.711C169.417 164.063 168.692 164.683 166.531 165.316C164.286 165.973 161.209 164.672 159.248 163.858C158.549 166.436 158.517 169.724 158.583 170.223C158.664 170.836 163.453 172.823 168.431 172.297Z" fill="black"/>
<path d="M165.858 112.425C164.814 120.39 159.644 160.043 159.644 160.043L171.64 161.543C171.64 161.543 186.392 109.786 185.636 101.869C184.879 93.9526 179.357 93.2866 179.357 93.2866C179.357 93.2866 168.622 91.3397 165.858 112.425Z" fill="black"/>
<path d="M154.557 1.59277C154.557 1.59277 158.46 -2.52712 161.601 2.48512C161.601 2.48512 164.02 1.12573 165.717 3.54667C165.717 3.54667 170.088 2.23017 171.149 8.76984C171.149 8.76984 173.398 8.34569 173.695 11.0204C173.992 13.6963 172.635 15.4799 172.635 15.4799C172.635 15.4799 173.898 16.4279 173.324 18.8882C172.836 20.98 171.106 21.2987 171.106 21.2987C171.106 21.2987 170.64 24.8241 169.112 25.8856C167.585 26.9472 165.505 26.4373 165.505 26.4373C165.505 26.4373 164.954 28.3483 163.171 28.178C161.389 28.0076 159.182 26.3098 157.188 27.0735C155.194 27.8384 150.017 27.0306 150.017 27.0306C150.017 27.0306 144.204 24.4405 145.943 18.4942C145.943 18.4942 142.889 15.7337 145.561 12.4215C145.561 12.4215 143.609 7.24009 147.47 4.18291C151.332 1.12458 154.557 1.59277 154.557 1.59277Z" fill="black"/>
<path d="M154.583 29.5901L153.794 34.6105C153.794 34.6105 152.025 41.8428 154.301 43.2365C156.577 44.6313 163.98 34.4042 163.98 34.4042L163.199 21.6836L154.583 29.5901Z" fill="#F7A491"/>
<path d="M162.896 25.7256C161.186 29.9796 157.113 32.5953 154.223 33.6096L154.831 29.436L162.667 21.6836L162.896 25.7256Z" fill="#F47458"/>
<path d="M158.349 6.88617C154.298 5.45363 149.98 8.2173 149.362 12.5068C149.093 14.3706 148.85 16.7146 148.805 19.2778C148.696 25.4416 151.803 31.441 154.528 31.441C157.252 31.441 164.784 27.4511 165.057 18.6997C165.226 13.2971 162.6 8.38865 158.349 6.88617Z" fill="#F7A491"/>
<path d="M165.065 21.6834C166.262 21.6834 167.233 20.7126 167.233 19.515C167.233 18.3175 166.262 17.3467 165.065 17.3467C163.867 17.3467 162.896 18.3175 162.896 19.515C162.896 20.7126 163.867 21.6834 165.065 21.6834Z" fill="#F7A491"/>
<path d="M145.591 4.02102C142.468 6.27473 141.372 9.69945 143.146 11.6699C144.919 13.6403 148.889 13.4109 152.013 11.1572C155.136 8.90348 156.232 5.47876 154.458 3.50835C152.685 1.53678 148.714 1.76732 145.591 4.02102Z" fill="black"/>
<path d="M179.761 40.1542C176.222 38.8348 174.491 70.5391 174.013 83.5885C167.746 84.1875 156.823 83.5932 154.103 83.3904C152.825 83.2949 149.875 82.2207 148.603 82.0557C147.299 81.8859 146.117 81.7974 145.477 81.9083C145.242 81.9495 138.709 84.6049 138.15 85.1874C137.458 85.9102 135.583 87.732 135.9 88.5196C136.216 89.3073 139.504 86.3241 139.504 86.3241L141.11 85.428C139.11 87.37 135.295 89.9287 135.845 90.8602C136.38 91.7693 139.822 89.1729 142.274 87.403C140.17 89.292 137.557 92.6725 138.16 93.1996C138.701 93.6736 141.674 89.7601 144.851 88.6328C146.028 88.2154 147.201 89.3721 148.127 89.5113C148.807 89.6139 149.858 89.832 150.526 89.6445L153.965 88.6741C155.136 88.779 155.166 89.4688 156.349 89.7188C157.722 90.0089 159.976 90.3154 161.725 90.7411C171.799 93.1878 175.159 94.3245 178.242 94.3233C187.583 94.3162 188.125 43.273 179.761 40.1542Z" fill="#F7A491"/>
<path d="M186.501 69.8826C187.14 56.413 187.047 39.8103 179.777 36.9776C176.908 35.8595 171.852 42.58 172.761 70.1558C176.642 70.4885 182.34 70.7571 186.501 69.8826Z" fill="#8BCED3"/>
<path d="M144.465 63.9668H145.209L156.391 92.1555L155.621 92.0353L144.465 63.9668Z" fill="#F79C8D"/>
<path d="M127.549 159.375C127.549 159.375 128.587 162.633 126.729 164.788C124.87 166.943 117.145 169.058 116.13 170.224C115.116 171.391 115.193 172.385 115.193 172.385L136.876 171.801L136.64 165.392L135.642 160.786L127.549 159.375Z" fill="#F7A491"/>
<path d="M124.274 166.309C124.274 166.309 129.798 168.247 132.467 167.099C135.135 165.952 135.055 165.634 135.827 166.062C136.599 166.49 136.876 171.769 136.876 171.769L112.701 172.385C111.019 172.352 110.169 171.277 111.535 170.357C112.472 169.727 113.556 169.304 114.171 168.998C116.062 168.057 124.274 166.309 124.274 166.309Z" fill="black"/>
<path d="M127.726 100.479C126.054 96.9775 122.253 92.4188 115.564 95.1643C109.185 97.7836 107.472 104.22 109.485 110.81C111.498 117.401 124.749 156.145 125.211 161.472L135.792 161.542C135.792 161.542 133.869 130.864 133.397 123.449C132.942 116.314 130.619 106.54 127.726 100.479Z" fill="black"/>
<path d="M110.973 63.9668H145.986C146.912 63.9668 147.747 64.5392 148.098 65.4173L158.878 92.3259H178.181C178.721 92.3259 179.159 92.7738 179.159 93.3249C179.159 93.8771 178.721 94.3239 178.181 94.3239H123.244C121.734 94.3239 120.364 93.4161 119.746 92.0059L108.89 67.2588C108.211 65.7147 109.317 63.9668 110.973 63.9668Z" fill="#5D3598"/>
<path d="M129.327 79.519C129.527 80.6986 130.4 81.4873 131.275 81.2803C132.15 81.0733 132.698 79.9504 132.497 78.7708C132.297 77.5912 131.425 76.8025 130.55 77.0096C129.674 77.2166 129.127 78.3395 129.327 79.519Z" fill="white"/>
<path d="M231.636 129.038C231.409 127.037 231.139 124.99 230.211 123.204C229.082 121.033 227.097 119.466 225.364 117.74C222.125 114.515 219.633 110.541 218.136 106.219C216.98 102.876 216.402 99.315 214.809 96.1588C213.836 94.231 212.508 92.5076 211.402 90.653C208.789 86.2695 207.366 81.0898 203.822 77.4209C203.141 81.8694 204.489 86.5896 207.414 90.0022C208.287 91.0204 209.3 91.9382 209.965 93.1029C211.172 95.2173 211.062 97.7983 211.204 100.23C211.47 104.802 212.758 109.311 214.946 113.329C217.271 117.599 220.628 121.4 221.87 126.103C222.802 129.627 222.525 133.579 224.512 136.632C224.727 136.963 224.973 137.296 225.025 137.687C225.055 137.907 225.021 138.13 224.986 138.35C224.942 138.633 224.898 138.917 224.853 139.2C224.401 142.084 223.934 145.754 226.412 147.912C228.13 149.407 230.34 149.442 231.573 147.455C232.814 145.454 232.705 142.527 232.612 140.275C232.46 136.525 232.058 132.765 231.636 129.038Z" fill="#C4C4C4"/>
<path d="M236.099 126.719C235.135 123.38 233.639 120.202 232.888 116.808C232.161 113.517 232.155 110.115 232.153 106.744C232.15 103.05 232.148 99.3566 232.144 95.6629C232.143 93.363 232.14 91.0514 231.76 88.7834C230.943 83.9037 228.407 79.3926 227.977 74.4633C227.791 72.3324 228.006 70.1778 227.773 68.0516C227.639 66.8361 227.327 65.597 226.765 64.5186C226.16 63.3598 224.489 63.4106 223.942 64.5977C222.71 67.2661 221.929 70.1507 222.426 73.0104C222.725 74.7256 223.468 76.325 224.022 77.9751C226.492 85.3224 225.181 93.4564 227.092 100.97C227.669 103.238 228.542 105.462 228.643 107.8C228.886 113.397 224.706 118.508 225.09 124.096C225.404 128.678 228.699 132.47 230.081 136.849C230.854 139.3 231.021 141.916 231.85 144.35C232.494 146.24 233.993 148.536 236.32 147.962C238.529 147.417 237.861 145.614 237.763 143.891C237.429 138.064 237.743 132.411 236.099 126.719Z" fill="#B4B4B4"/>
<path d="M241.156 129.778C241.059 128.044 240.766 126.299 241.009 124.579C241.213 123.126 241.792 121.757 242.205 120.349C242.979 117.711 243.171 114.943 243.358 112.2C243.698 107.214 244.04 102.228 244.38 97.2419C244.909 89.4918 245.442 81.7193 246.891 74.0874C247.294 71.9683 247.745 69.672 246.793 67.7383C246.592 67.3308 246.198 66.8984 245.764 67.0343C245.456 67.1311 245.305 67.4713 245.193 67.7749C242.024 76.3837 240.828 85.6516 237.291 94.1152C236.444 96.1422 235.459 98.1373 235.021 100.291C234.494 102.876 234.784 105.548 234.852 108.186C234.95 111.969 234.582 115.782 233.536 119.421C232.989 121.324 232.257 123.184 231.958 125.141C231.585 127.582 231.898 130.068 232.132 132.526C232.582 137.253 232.733 142.007 232.588 146.752C232.501 149.542 234.857 149.469 236.417 147.755C237.509 146.556 237.498 145.24 237.871 143.748C239.097 138.85 241.454 135.089 241.156 129.778Z" fill="#C4C4C4"/>
<path d="M226.443 137.343C224.361 133.996 220.212 132.094 218.881 128.384C218.542 127.44 218.41 126.425 217.996 125.51C217.077 123.481 214.988 122.334 212.934 121.401C212.649 121.271 212.324 121.478 212.319 121.792C212.312 122.29 212.55 122.766 212.962 123.045C214.544 124.111 215.747 125.738 216.283 127.574C216.917 129.749 216.642 132.132 217.431 134.256C218.092 136.039 219.455 137.496 220.096 139.287C220.68 140.924 220.619 142.713 220.894 144.429C221.169 146.145 221.932 147.968 223.508 148.694C229.213 151.321 227.788 139.504 226.443 137.343Z" fill="#B4B4B4"/>
<path d="M250.168 136.239C250.08 137.856 250.327 139.552 249.693 141.043C249.288 141.996 248.56 142.767 247.962 143.613C245.862 146.583 245.101 150.791 241.874 152.463C241.661 152.573 241.424 152.672 241.187 152.628C240.857 152.567 240.641 152.248 240.507 151.938C239.716 150.096 240.604 148.019 241.13 146.084C241.222 145.745 241.298 145.368 241.137 145.056C240.959 144.714 240.554 144.565 240.278 144.297C239.726 143.761 239.778 142.873 239.888 142.112C240.162 140.207 240.546 138.32 241.039 136.462C241.319 135.408 241.641 134.345 242.248 133.439C242.917 132.443 243.888 131.699 244.797 130.917C248.815 127.461 251.892 122.919 253.614 117.901C253.987 116.816 254.319 115.669 255.089 114.818C255.859 113.968 257.232 113.529 258.171 114.19C258.839 114.66 256.105 119.056 255.786 119.584C254.876 121.092 254.864 122.403 254.349 124.075C253.088 128.175 250.409 131.846 250.168 136.239Z" fill="#C4C4C4"/>
<path d="M246.987 138.108C247.584 136.565 248.186 135.001 248.382 133.358C248.601 131.532 248.311 129.663 248.623 127.85C249.025 125.52 250.383 123.469 251.056 121.202C251.542 119.565 251.661 117.845 251.953 116.162C252.787 111.35 255.05 106.647 254.401 101.806C254.259 100.754 253.784 99.5266 252.739 99.347C251.792 99.184 250.931 100.05 250.686 100.979C250.44 101.909 250.623 102.89 250.69 103.849C250.879 106.524 250.115 109.258 248.569 111.446C247.083 113.549 244.926 115.133 243.589 117.334C241.948 120.034 241.725 123.328 240.888 126.376C239.224 132.437 235.048 137.723 234.288 143.962C233.985 146.445 234.568 149.463 236.859 150.454C243.485 153.325 245.486 141.991 246.987 138.108Z" fill="#B4B4B4"/>
<path d="M235.402 145.8H234.343H220.194C219.154 145.8 218.387 146.773 218.628 147.787L224.171 171.166C224.343 171.893 224.992 172.406 225.737 172.406H234.341H235.401H244.005C244.75 172.406 245.399 171.892 245.571 171.166L251.115 147.787C251.356 146.773 250.588 145.8 249.549 145.8H235.402Z" fill="#75706F"/>
<path d="M82.8126 118.438H8.88525V122.256H82.8126V118.438Z" fill="black"/>
<path d="M58.5562 140.588H10.2227V143.928H58.5562V140.588Z" fill="black"/>
<path d="M75.5584 120.348H72.4399V172.423H75.5584V120.348Z" fill="black"/>
<path d="M31.4563 120.348H28.3379V172.423H31.4563V120.348Z" fill="black"/>
<path d="M50.2589 172.423L67.0583 120.795L64.3049 119.899L47.2148 172.423H50.2589Z" fill="black"/>
<path d="M3.00505 172.424L17.3735 120.682L14.5835 119.907L0 172.424H3.00505Z" fill="black"/>
<path d="M150.97 25.0249L157.475 24.9365C157.475 24.9365 157.366 26.9912 154.506 27.0993C151.02 27.2296 150.97 25.0249 150.97 25.0249Z" fill="white"/>
</svg>
