<svg xmlns="http://www.w3.org/2000/svg" xmlns:xlink="http://www.w3.org/1999/xlink" viewBox="0 0 48 48"><defs><linearGradient id="a" x1="24" y1="30.25" x2="24" y2="-4.26" gradientUnits="userSpaceOnUse"><stop offset="0" stop-color="#fff"/><stop offset=".52" stop-color="#cce2e6"/><stop offset="1" stop-color="#8fa1bb"/></linearGradient><linearGradient id="c" x1="24" y1="11.44" x2="24" y2="24.03" xlink:href="#a"/><linearGradient id="b" x1="24" y1="78.83" x2="24" y2="14.26" gradientUnits="userSpaceOnUse"><stop offset="0" stop-color="#27e9de"/><stop offset=".52" stop-color="#03a4ec"/><stop offset="1" stop-color="#2547a8"/></linearGradient><linearGradient id="d" y1="51.31" x2="24" y2="37.23" xlink:href="#b"/><linearGradient id="e" y1="11.75" x2="24" y2="28.7" xlink:href="#b"/><linearGradient id="f" y1="46.55" x2="24" y2="24.04" xlink:href="#b"/><linearGradient id="g" y1="36.75" x2="24" y2="26.33" xlink:href="#b"/><linearGradient id="h" x1="24" y1="44.33" x2="24" y2="13.99" gradientUnits="userSpaceOnUse"><stop offset="0" stop-color="#273a9b"/><stop offset=".56" stop-color="#202f65"/><stop offset="1" stop-color="#021e2f"/></linearGradient><linearGradient id="i" x1="9" y1="37.75" x2="9" y2="20.85" gradientUnits="userSpaceOnUse"><stop offset="0" stop-color="#f3c57a"/><stop offset=".49" stop-color="#f39369"/><stop offset="1" stop-color="#e94867"/></linearGradient><linearGradient id="j" x1="16.5" y1="36.83" x2="16.5" y2="25.29" xlink:href="#a"/><linearGradient id="k" x1="24" y1="36.83" x2="24" y2="25.29" xlink:href="#a"/><linearGradient id="l" x1="31.5" y1="36.83" x2="31.5" y2="25.29" xlink:href="#a"/><linearGradient id="m" x1="39" y1="36.83" x2="39" y2="25.29" xlink:href="#a"/></defs><path d="M36 31.71H12V15a12 12 0 1 1 24 0zm-19.18-4.79h14.36V15a7.18 7.18 0 1 0-14.35 0z" style="fill:url(#a)"/><path d="M36 18.19a3.46 3.46 0 0 0-1.1-.19h-3.72v9.57H16.82V18h-3.68a3.46 3.46 0 0 0-1.1.19v14.16H36z" style="fill:url(#c)"/><rect x="9" y="21" width="30" height="24" rx="3.89" ry="3.89" style="fill:url(#b)"/><path style="fill:url(#d)" d="M9 28.5h30v12H9z"/><path d="M12.89 21a3.88 3.88 0 0 0-3.68 2.67h29.57A3.88 3.88 0 0 0 35.11 21z" style="fill:url(#e)"/><path d="M27.24 31.74a3.24 3.24 0 0 0-6.39-.74 3.21 3.21 0 0 0 .63 2.81 1.72 1.72 0 0 1 .36 1.09v.48A2.16 2.16 0 0 0 24 37.5a2.16 2.16 0 0 0 2.16-2.16v-.48a1.78 1.78 0 0 1 .37-1.11 3.19 3.19 0 0 0 .71-2.01z" style="fill:url(#f)"/><path d="M27 32.88a3.23 3.23 0 0 0-3.88-2 3.2 3.2 0 0 0-2.16 2 3.24 3.24 0 0 0 .5.9 1.72 1.72 0 0 1 .36 1.09v.48a2.16 2.16 0 1 0 4.32 0v-.48a1.78 1.78 0 0 1 .37-1.11 3.24 3.24 0 0 0 .49-.88z" style="fill:url(#g)"/><rect x="3" y="27" width="42" height="12" rx="2.6" ry="2.6" style="fill:url(#h)"/><path d="m10.67 33.1-.17-.1.17-.1a.75.75 0 0 0-.75-1.3l-.17.1v-.2a.75.75 0 0 0-1.5 0v.2l-.17-.1a.75.75 0 1 0-.75 1.3l.17.1-.17.1a.75.75 0 1 0 .75 1.3l.17-.1v.2a.75.75 0 0 0 1.5 0v-.2l.17.1a.75.75 0 0 0 .75-1.3z" style="fill:url(#i)"/><path d="M18.17 33.1 18 33l.17-.1a.75.75 0 0 0-.75-1.3l-.17.1v-.2a.75.75 0 0 0-1.5 0v.2l-.17-.1a.75.75 0 1 0-.75 1.3l.17.1-.17.1a.75.75 0 1 0 .75 1.3l.17-.1v.2a.75.75 0 0 0 1.5 0v-.2l.17.1a.75.75 0 0 0 .75-1.3z" style="fill:url(#j)"/><path d="m25.67 33.1-.17-.1.17-.1a.75.75 0 0 0-.75-1.3l-.17.1v-.2a.75.75 0 0 0-1.5 0v.2l-.17-.1a.75.75 0 1 0-.75 1.3l.17.1-.17.1a.75.75 0 1 0 .75 1.3l.17-.1v.2a.75.75 0 0 0 1.5 0v-.2l.17.1a.75.75 0 0 0 .75-1.3z" style="fill:url(#k)"/><path d="M33.17 33.1 33 33l.17-.1a.75.75 0 0 0-.75-1.3l-.17.1v-.2a.75.75 0 0 0-1.5 0v.2l-.17-.1a.75.75 0 1 0-.75 1.3l.17.1-.17.1a.75.75 0 1 0 .75 1.3l.17-.1v.2a.75.75 0 0 0 1.5 0v-.2l.17.1a.75.75 0 0 0 .75-1.3z" style="fill:url(#l)"/><path d="m40.67 33.1-.17-.1.17-.1a.75.75 0 0 0-.75-1.3l-.17.1v-.2a.75.75 0 0 0-1.5 0v.2l-.17-.1a.75.75 0 1 0-.75 1.3l.17.1-.17.1a.75.75 0 1 0 .75 1.3l.17-.1v.2a.75.75 0 0 0 1.5 0v-.2l.17.1a.75.75 0 0 0 .75-1.3z" style="fill:url(#m)"/></svg>