<svg width="40" height="40" viewBox="0 0 40 40" fill="none" xmlns="http://www.w3.org/2000/svg">
<path d="M29.9998 11.933C29.8998 11.9163 29.7831 11.9163 29.6831 11.933C27.3831 11.8497 25.5498 9.96634 25.5498 7.63301C25.5498 5.24968 27.4665 3.33301 29.8498 3.33301C32.2331 3.33301 34.1498 5.26634 34.1498 7.63301C34.1331 9.96634 32.2998 11.8497 29.9998 11.933Z" stroke="#532E88" stroke-width="2" stroke-linecap="round" stroke-linejoin="round"/>
<path d="M28.2829 24.0666C30.5662 24.4499 33.0829 24.0499 34.8496 22.8666C37.1996 21.2999 37.1996 18.7333 34.8496 17.1666C33.0663 15.9833 30.5162 15.5833 28.2329 15.9833" stroke="#532E88" stroke-width="2" stroke-linecap="round" stroke-linejoin="round"/>
<path d="M9.94981 11.933C10.0498 11.9163 10.1665 11.9163 10.2665 11.933C12.5665 11.8497 14.3998 9.96634 14.3998 7.63301C14.3998 5.24968 12.4831 3.33301 10.0998 3.33301C7.71647 3.33301 5.7998 5.26634 5.7998 7.63301C5.81647 9.96634 7.64981 11.8497 9.94981 11.933Z" stroke="#532E88" stroke-width="2" stroke-linecap="round" stroke-linejoin="round"/>
<path d="M11.6666 24.0666C9.38323 24.4499 6.86657 24.0499 5.0999 22.8666C2.7499 21.2999 2.7499 18.7333 5.0999 17.1666C6.88324 15.9833 9.43323 15.5833 11.7166 15.9833" stroke="#532E88" stroke-width="2" stroke-linecap="round" stroke-linejoin="round"/>
<path d="M20.0003 24.3832C19.9003 24.3665 19.7836 24.3665 19.6836 24.3832C17.3836 24.2999 15.5503 22.4165 15.5503 20.0832C15.5503 17.6999 17.467 15.7832 19.8503 15.7832C22.2336 15.7832 24.1503 17.7165 24.1503 20.0832C24.1336 22.4165 22.3003 24.3165 20.0003 24.3832Z" stroke="#532E88" stroke-width="2" stroke-linecap="round" stroke-linejoin="round"/>
<path d="M15.1502 29.6336C12.8002 31.2003 12.8002 33.7669 15.1502 35.3336C17.8169 37.1169 22.1835 37.1169 24.8502 35.3336C27.2002 33.7669 27.2002 31.2003 24.8502 29.6336C22.2002 27.8669 17.8169 27.8669 15.1502 29.6336Z" stroke="#532E88" stroke-width="2" stroke-linecap="round" stroke-linejoin="round"/>
</svg>
