<svg width="23" height="15" viewBox="0 0 23 15" fill="none" xmlns="http://www.w3.org/2000/svg">
<path d="M0.963626 4.40592L3.73532 6.47917C4.11903 6.76712 4.11903 7.34368 3.73532 7.63163L0.964301 9.7042C0.566527 10.0009 0.00134879 9.71761 0.00134879 9.22072L0 4.88875C0.000669652 4.39187 0.566523 4.1086 0.963626 4.40592Z" fill="#1F1F1F"/>
<path d="M7.13618 4.40592L9.9072 6.47917C10.2916 6.76712 10.2916 7.34368 9.9072 7.63163L7.13618 9.7042C6.73907 10.0009 6.17322 9.71761 6.17322 9.22072L6.17188 4.88875C6.17188 4.39187 6.7384 4.1086 7.13618 4.40592Z" fill="#1F1F1F"/>
<path d="M15.1203 0.308411L22.1784 5.58861C23.1575 6.32121 23.1575 7.79109 22.1784 8.52369L15.1216 13.8019C14.1098 14.5579 12.6694 13.8367 12.6694 12.5711L12.666 1.53855C12.666 0.273572 14.1085 -0.448296 15.1203 0.308411Z" fill="#1F1F1F"/>
</svg>
