<svg width="18" height="19" viewBox="0 0 18 19" fill="none" xmlns="http://www.w3.org/2000/svg">
<path d="M17.6172 0H16.2293C16.2001 0 16.1724 0.0127565 16.1534 0.0349211L0.471575 18.3303C0.415974 18.3952 0.462065 18.4954 0.5475 18.4954H1.93546C1.96465 18.4954 1.99239 18.4827 2.01139 18.4605L17.6932 0.165079C17.7488 0.100212 17.7027 0 17.6172 0Z" fill="#E3DDEB"/>
<path d="M5.2318 0H0.188707C0.108465 0 0.0609034 0.0897524 0.105959 0.15615L12.5207 18.4516C12.5393 18.479 12.5703 18.4954 12.6035 18.4954H17.8099C17.8904 18.4954 17.9379 18.4051 17.8923 18.3388L5.31421 0.0433471C5.29555 0.0162117 5.26473 0 5.2318 0Z" fill="#E3DDEB"/>
</svg>
