<svg width="38" height="38" viewBox="0 0 38 38" fill="none" xmlns="http://www.w3.org/2000/svg">
<path d="M34.8337 14.2502V23.7502C34.8337 27.7086 34.042 30.4794 32.2687 32.2686L22.167 22.1669L34.4062 9.92773C34.6912 11.1786 34.8337 12.6036 34.8337 14.2502Z" stroke="white" stroke-width="2.5" stroke-linecap="round" stroke-linejoin="round"/>
<path d="M34.4062 9.92734L9.92781 34.4057C5.16197 33.3132 3.16699 30.0198 3.16699 23.7498V14.2498C3.16699 6.33317 6.33366 3.1665 14.2503 3.1665H23.7503C30.0203 3.1665 33.3137 5.16151 34.4062 9.92734Z" stroke="white" stroke-width="2.5" stroke-linecap="round" stroke-linejoin="round"/>
<path d="M32.2686 32.2682C30.4794 34.0415 27.7086 34.8332 23.7503 34.8332H14.2503C12.6036 34.8332 11.1786 34.6907 9.92773 34.4057L22.1669 22.1665L32.2686 32.2682Z" stroke="white" stroke-width="2.5" stroke-linecap="round" stroke-linejoin="round"/>
<path d="M9.87968 12.6351C10.9564 7.99597 17.923 7.99597 18.9997 12.6351C19.6172 15.3585 17.9072 17.6701 16.403 19.0951C15.3105 20.1401 13.5847 20.1401 12.4764 19.0951C10.9722 17.6701 9.24635 15.3585 9.87968 12.6351Z" stroke="white" stroke-width="2.5"/>
<path d="M14.4002 13.7751H14.4144" stroke="white" stroke-width="2.5" stroke-linecap="round" stroke-linejoin="round"/>
</svg>
