<svg width="84" height="84" viewBox="0 0 84 84" fill="none" xmlns="http://www.w3.org/2000/svg">
<path d="M31.5 7C22.33 7 14.875 14.455 14.875 23.625C14.875 32.62 21.91 39.9 31.08 40.215C31.36 40.18 31.64 40.18 31.85 40.215C31.92 40.215 31.955 40.215 32.025 40.215C32.06 40.215 32.06 40.215 32.095 40.215C41.055 39.9 48.09 32.62 48.125 23.625C48.125 14.455 40.67 7 31.5 7Z" fill="#532E88"/>
<path d="M49.2799 49.5251C39.5149 43.0151 23.5899 43.0151 13.7549 49.5251C9.30986 52.5001 6.85986 56.5251 6.85986 60.8301C6.85986 65.1351 9.30986 69.1251 13.7199 72.0651C18.6199 75.3551 25.0599 77.0001 31.4999 77.0001C37.9399 77.0001 44.3799 75.3551 49.2799 72.0651C53.6899 69.0901 56.1399 65.1001 56.1399 60.7601C56.1049 56.4551 53.6899 52.4651 49.2799 49.5251Z" fill="#532E88"/>
<path d="M69.9648 25.6899C70.5248 32.4799 65.6948 38.4299 59.0098 39.2349C58.9748 39.2349 58.9748 39.2349 58.9398 39.2349H58.8348C58.6248 39.2349 58.4148 39.2349 58.2398 39.3049C54.8448 39.4799 51.7298 38.3949 49.3848 36.3999C52.9898 33.1799 55.0548 28.3499 54.6348 23.0999C54.3898 20.2649 53.4098 17.6749 51.9398 15.4699C53.2698 14.8049 54.8098 14.3849 56.3848 14.2449C63.2448 13.6499 69.3698 18.7599 69.9648 25.6899Z" fill="#532E88"/>
<path d="M76.9648 58.0649C76.6848 61.4599 74.5148 64.3999 70.8748 66.3949C67.3748 68.3199 62.9648 69.2299 58.5898 69.1249C61.1098 66.8499 62.5798 64.0149 62.8598 61.0049C63.2098 56.6649 61.1448 52.4999 57.0148 49.1749C54.6698 47.3199 51.9398 45.8499 48.9648 44.7649C56.6998 42.5249 66.4298 44.0299 72.4148 48.8599C75.6348 51.4499 77.2798 54.7049 76.9648 58.0649Z" fill="#532E88"/>
</svg>
