<svg width="84" height="84" viewBox="0 0 84 84" fill="none" xmlns="http://www.w3.org/2000/svg">
<path d="M56.665 7H27.335C14.595 7 7 14.595 7 27.335V56.63C7 69.405 14.595 77 27.335 77H56.63C69.37 77 76.965 69.405 76.965 56.665V27.335C77 14.595 69.405 7 56.665 7ZM59.08 50.155C59.08 50.47 59.01 50.785 58.905 51.1C58.66 51.695 58.17 52.185 57.575 52.43C57.26 52.57 56.945 52.605 56.63 52.605H50.12C48.755 52.605 47.67 51.52 47.67 50.155C47.67 48.79 48.755 47.705 50.12 47.705H50.75L43.365 40.32L39.795 45.64C39.375 46.235 38.745 46.655 38.01 46.725C37.275 46.795 36.575 46.55 36.05 46.025L25.62 35.595C24.675 34.65 24.675 33.11 25.62 32.13C26.565 31.15 28.105 31.185 29.085 32.13L37.415 40.46L40.985 35.14C41.405 34.545 42.035 34.125 42.77 34.055C43.54 33.985 44.205 34.23 44.73 34.755L54.25 44.275V43.645C54.25 42.28 55.335 41.195 56.7 41.195C58.065 41.195 59.15 42.28 59.15 43.645V50.155H59.08Z" fill="#532E88"/>
</svg>
