<svg width="84" height="84" viewBox="0 0 84 84" fill="none" xmlns="http://www.w3.org/2000/svg">
<path d="M56.665 7H27.335C14.595 7 7 14.595 7 27.335V56.63C7 69.405 14.595 77 27.335 77H56.63C69.37 77 76.965 69.405 76.965 56.665V27.335C77 14.595 69.405 7 56.665 7ZM26.705 63.525C26.705 64.96 25.515 66.15 24.08 66.15C22.645 66.15 21.455 64.96 21.455 63.525V56.28C21.455 54.845 22.645 53.655 24.08 53.655C25.515 53.655 26.705 54.845 26.705 56.28V63.525ZM44.625 63.525C44.625 64.96 43.435 66.15 42 66.15C40.565 66.15 39.375 64.96 39.375 63.525V49C39.375 47.565 40.565 46.375 42 46.375C43.435 46.375 44.625 47.565 44.625 49V63.525ZM62.545 63.525C62.545 64.96 61.355 66.15 59.92 66.15C58.485 66.15 57.295 64.96 57.295 63.525V41.755C57.295 40.32 58.485 39.13 59.92 39.13C61.355 39.13 62.545 40.32 62.545 41.755V63.525ZM62.545 30.695C62.545 32.13 61.355 33.32 59.92 33.32C58.485 33.32 57.295 32.13 57.295 30.695V27.3C48.37 36.47 37.205 42.945 24.71 46.06C24.5 46.13 24.29 46.13 24.08 46.13C22.89 46.13 21.84 45.325 21.525 44.135C21.175 42.735 22.015 41.3 23.45 40.95C35.245 38.01 45.745 31.815 54.075 23.065H49.7C48.265 23.065 47.075 21.875 47.075 20.44C47.075 19.005 48.265 17.815 49.7 17.815H59.955C60.095 17.815 60.2 17.885 60.34 17.885C60.515 17.92 60.69 17.92 60.865 17.99C61.04 18.06 61.18 18.165 61.355 18.27C61.46 18.34 61.565 18.375 61.67 18.445C61.705 18.48 61.705 18.515 61.74 18.515C61.88 18.655 61.985 18.795 62.09 18.935C62.195 19.075 62.3 19.18 62.335 19.32C62.405 19.46 62.405 19.6 62.44 19.775C62.475 19.95 62.545 20.125 62.545 20.335C62.545 20.37 62.58 20.405 62.58 20.44V30.695H62.545Z" fill="#532E88"/>
</svg>
