<svg width="84" height="84" viewBox="0 0 84 84" fill="none" xmlns="http://www.w3.org/2000/svg">
<path d="M61.46 7H22.435C13.93 7 7 13.93 7 22.435V45.185V45.885C7 54.425 13.93 61.32 22.435 61.32H35.875C37.8 61.32 39.375 62.895 39.375 64.82V68.215C39.375 70.14 37.8 71.715 35.875 71.715H27.405C25.97 71.715 24.78 72.905 24.78 74.34C24.78 75.775 25.935 77 27.405 77H56.63C58.065 77 59.255 75.81 59.255 74.375C59.255 72.94 58.065 71.75 56.63 71.75H48.16C46.235 71.75 44.66 70.175 44.66 68.25V64.855C44.66 62.93 46.235 61.355 48.16 61.355H61.495C70.035 61.355 76.93 54.425 76.93 45.92V45.22V22.47C76.895 13.93 69.965 7 61.46 7Z" fill="#532E88"/>
</svg>
