<svg width="84" height="84" viewBox="0 0 84 84" fill="none" xmlns="http://www.w3.org/2000/svg">
<path d="M73.43 10.57C70.385 7.525 66.08 6.335 61.915 7.385L27.615 15.96C21.84 17.395 17.395 21.875 15.96 27.615L7.385 61.95C6.335 66.115 7.525 70.42 10.57 73.465C12.88 75.74 15.925 77 19.075 77C20.055 77 21.07 76.895 22.05 76.615L56.385 68.04C62.125 66.605 66.605 62.16 68.04 56.385L76.615 22.05C77.665 17.885 76.475 13.58 73.43 10.57ZM42 55.58C34.51 55.58 28.42 49.49 28.42 42C28.42 34.51 34.51 28.42 42 28.42C49.49 28.42 55.58 34.51 55.58 42C55.58 49.49 49.49 55.58 42 55.58Z" fill="#532E88"/>
</svg>
