<svg width="84" height="84" viewBox="0 0 84 84" fill="none" xmlns="http://www.w3.org/2000/svg">
<path d="M42 7C22.715 7 7 22.715 7 42C7 61.285 22.715 77 42 77C61.285 77 77 61.285 77 42C77 22.715 61.285 7 42 7ZM57.225 54.495C56.735 55.335 55.86 55.79 54.95 55.79C54.495 55.79 54.04 55.685 53.62 55.405L42.77 48.93C40.075 47.32 38.08 43.785 38.08 40.67V26.32C38.08 24.885 39.27 23.695 40.705 23.695C42.14 23.695 43.33 24.885 43.33 26.32V40.67C43.33 41.93 44.38 43.785 45.465 44.415L56.315 50.89C57.575 51.625 57.995 53.235 57.225 54.495Z" fill="#532E88"/>
</svg>
