<svg width="30" height="30" viewBox="0 0 30 30" fill="none" xmlns="http://www.w3.org/2000/svg">
<path d="M22.5001 8.95C22.4251 8.9375 22.3376 8.9375 22.2626 8.95C20.5376 8.8875 19.1626 7.475 19.1626 5.725C19.1626 3.9375 20.6001 2.5 22.3876 2.5C24.1751 2.5 25.6126 3.95 25.6126 5.725C25.6001 7.475 24.2251 8.8875 22.5001 8.95Z" stroke="#532E88" stroke-width="1.5" stroke-linecap="round" stroke-linejoin="round"/>
<path d="M21.2128 18.0502C22.9253 18.3377 24.8128 18.0377 26.1378 17.1502C27.9003 15.9752 27.9003 14.0502 26.1378 12.8752C24.8003 11.9877 22.8878 11.6877 21.1753 11.9877" stroke="#532E88" stroke-width="1.5" stroke-linecap="round" stroke-linejoin="round"/>
<path d="M7.46211 8.95C7.53711 8.9375 7.62461 8.9375 7.69961 8.95C9.42461 8.8875 10.7996 7.475 10.7996 5.725C10.7996 3.9375 9.36211 2.5 7.57461 2.5C5.78711 2.5 4.34961 3.95 4.34961 5.725C4.36211 7.475 5.73711 8.8875 7.46211 8.95Z" stroke="#532E88" stroke-width="1.5" stroke-linecap="round" stroke-linejoin="round"/>
<path d="M8.7498 18.0502C7.0373 18.3377 5.1498 18.0377 3.8248 17.1502C2.0623 15.9752 2.0623 14.0502 3.8248 12.8752C5.1623 11.9877 7.0748 11.6877 8.7873 11.9877" stroke="#532E88" stroke-width="1.5" stroke-linecap="round" stroke-linejoin="round"/>
<path d="M15.0001 18.2879C14.9251 18.2754 14.8376 18.2754 14.7626 18.2879C13.0376 18.2254 11.6626 16.8129 11.6626 15.0629C11.6626 13.2754 13.1001 11.8379 14.8876 11.8379C16.6751 11.8379 18.1126 13.2879 18.1126 15.0629C18.1001 16.8129 16.7251 18.2379 15.0001 18.2879Z" stroke="#532E88" stroke-width="1.5" stroke-linecap="round" stroke-linejoin="round"/>
<path d="M11.3624 22.2252C9.5999 23.4002 9.5999 25.3252 11.3624 26.5002C13.3624 27.8377 16.6374 27.8377 18.6374 26.5002C20.3999 25.3252 20.3999 23.4002 18.6374 22.2252C16.6499 20.9002 13.3624 20.9002 11.3624 22.2252Z" stroke="#532E88" stroke-width="1.5" stroke-linecap="round" stroke-linejoin="round"/>
</svg>
